G04 #@! TF.GenerationSoftware,KiCad,Pcbnew,7.0.1-0*
G04 #@! TF.CreationDate,2023-08-25T07:29:48+02:00*
G04 #@! TF.ProjectId,spellcaster,7370656c-6c63-4617-9374-65722e6b6963,0.0.1*
G04 #@! TF.SameCoordinates,Original*
G04 #@! TF.FileFunction,Legend,Top*
G04 #@! TF.FilePolarity,Positive*
%FSLAX46Y46*%
G04 Gerber Fmt 4.6, Leading zero omitted, Abs format (unit mm)*
G04 Created by KiCad (PCBNEW 7.0.1-0) date 2023-08-25 07:29:48*
%MOMM*%
%LPD*%
G01*
G04 APERTURE LIST*
G04 Aperture macros list*
%AMRoundRect*
0 Rectangle with rounded corners*
0 $1 Rounding radius*
0 $2 $3 $4 $5 $6 $7 $8 $9 X,Y pos of 4 corners*
0 Add a 4 corners polygon primitive as box body*
4,1,4,$2,$3,$4,$5,$6,$7,$8,$9,$2,$3,0*
0 Add four circle primitives for the rounded corners*
1,1,$1+$1,$2,$3*
1,1,$1+$1,$4,$5*
1,1,$1+$1,$6,$7*
1,1,$1+$1,$8,$9*
0 Add four rect primitives between the rounded corners*
20,1,$1+$1,$2,$3,$4,$5,0*
20,1,$1+$1,$4,$5,$6,$7,0*
20,1,$1+$1,$6,$7,$8,$9,0*
20,1,$1+$1,$8,$9,$2,$3,0*%
%AMRotRect*
0 Rectangle, with rotation*
0 The origin of the aperture is its center*
0 $1 length*
0 $2 width*
0 $3 Rotation angle, in degrees counterclockwise*
0 Add horizontal line*
21,1,$1,$2,0,0,$3*%
G04 Aperture macros list end*
%ADD10C,0.120000*%
%ADD11C,0.127000*%
%ADD12C,0.200000*%
%ADD13C,0.150000*%
%ADD14RoundRect,0.112500X-0.112500X0.187500X-0.112500X-0.187500X0.112500X-0.187500X0.112500X0.187500X0*%
%ADD15C,1.500000*%
%ADD16RoundRect,0.140000X0.140000X0.170000X-0.140000X0.170000X-0.140000X-0.170000X0.140000X-0.170000X0*%
%ADD17RoundRect,0.140000X-0.140000X-0.170000X0.140000X-0.170000X0.140000X0.170000X-0.140000X0.170000X0*%
%ADD18RoundRect,0.135000X-0.135000X-0.185000X0.135000X-0.185000X0.135000X0.185000X-0.135000X0.185000X0*%
%ADD19RoundRect,0.140000X0.170000X-0.140000X0.170000X0.140000X-0.170000X0.140000X-0.170000X-0.140000X0*%
%ADD20R,1.700000X0.800000*%
%ADD21RoundRect,0.087500X-0.225000X-0.087500X0.225000X-0.087500X0.225000X0.087500X-0.225000X0.087500X0*%
%ADD22RoundRect,0.087500X-0.087500X-0.225000X0.087500X-0.225000X0.087500X0.225000X-0.087500X0.225000X0*%
%ADD23RoundRect,0.147500X-0.147500X-0.172500X0.147500X-0.172500X0.147500X0.172500X-0.147500X0.172500X0*%
%ADD24RoundRect,0.147500X-0.172500X0.147500X-0.172500X-0.147500X0.172500X-0.147500X0.172500X0.147500X0*%
%ADD25RoundRect,0.140000X-0.170000X0.140000X-0.170000X-0.140000X0.170000X-0.140000X0.170000X0.140000X0*%
%ADD26RoundRect,0.150000X-0.587500X-0.150000X0.587500X-0.150000X0.587500X0.150000X-0.587500X0.150000X0*%
%ADD27RoundRect,0.062500X-0.203293X-0.291682X0.291682X0.203293X0.203293X0.291682X-0.291682X-0.203293X0*%
%ADD28RoundRect,0.062500X0.203293X-0.291682X0.291682X-0.203293X-0.203293X0.291682X-0.291682X0.203293X0*%
%ADD29RotRect,3.600000X3.600000X45.000000*%
%ADD30R,1.000000X1.800000*%
%ADD31RoundRect,0.218750X0.256250X-0.218750X0.256250X0.218750X-0.256250X0.218750X-0.256250X-0.218750X0*%
%ADD32R,0.900000X0.800000*%
%ADD33RoundRect,0.250001X-0.899999X-0.899999X0.899999X-0.899999X0.899999X0.899999X-0.899999X0.899999X0*%
%ADD34C,2.300000*%
%ADD35C,0.700000*%
%ADD36C,4.400000*%
%ADD37RoundRect,0.135000X0.135000X0.185000X-0.135000X0.185000X-0.135000X-0.185000X0.135000X-0.185000X0*%
%ADD38RoundRect,0.250000X0.700000X-0.275000X0.700000X0.275000X-0.700000X0.275000X-0.700000X-0.275000X0*%
%ADD39C,1.400000*%
G04 APERTURE END LIST*
D10*
X56603000Y-117590000D02*
X54903000Y-117590000D01*
X54903000Y-117590000D02*
X54903000Y-120250000D01*
X56603000Y-117590000D02*
X56603000Y-120250000D01*
X59370000Y-77470000D02*
G75*
G03*
X59370000Y-77470000I-950000J0D01*
G01*
X58781836Y-101325000D02*
X58566164Y-101325000D01*
X58781836Y-100605000D02*
X58566164Y-100605000D01*
X55772164Y-96922000D02*
X55987836Y-96922000D01*
X55772164Y-97642000D02*
X55987836Y-97642000D01*
X53387164Y-98065000D02*
X53602836Y-98065000D01*
X53387164Y-98785000D02*
X53602836Y-98785000D01*
X55853359Y-110872000D02*
X56160641Y-110872000D01*
X55853359Y-111632000D02*
X56160641Y-111632000D01*
X53574836Y-97769000D02*
X53359164Y-97769000D01*
X53574836Y-97049000D02*
X53359164Y-97049000D01*
X51329000Y-115697836D02*
X51329000Y-115482164D01*
X52049000Y-115697836D02*
X52049000Y-115482164D01*
D11*
X50693000Y-126848500D02*
X50693000Y-123848500D01*
X53193000Y-126848500D02*
X53193000Y-123848500D01*
D12*
X51843000Y-128048500D02*
G75*
G03*
X51843000Y-128048500I-100000J0D01*
G01*
D10*
X54524000Y-115683500D02*
X54524000Y-115508500D01*
X55199000Y-112963500D02*
X54524000Y-112963500D01*
X55199000Y-115683500D02*
X54524000Y-115683500D01*
X57069000Y-112963500D02*
X57744000Y-112963500D01*
X57069000Y-115683500D02*
X57744000Y-115683500D01*
X57744000Y-112963500D02*
X57744000Y-113138500D01*
X57744000Y-115683500D02*
X57744000Y-115508500D01*
G36*
X56978444Y-84709952D02*
G01*
X56978444Y-85325585D01*
X56978444Y-85624511D01*
X56978444Y-85717115D01*
X56975601Y-85774989D01*
X56967099Y-85832305D01*
X56953020Y-85888512D01*
X56933499Y-85943069D01*
X56908725Y-85995449D01*
X56878936Y-86045149D01*
X56844420Y-86091689D01*
X56805507Y-86134622D01*
X56762574Y-86173535D01*
X56716033Y-86208052D01*
X56666333Y-86237841D01*
X56613953Y-86262615D01*
X56559397Y-86282135D01*
X56503190Y-86296214D01*
X56445874Y-86304716D01*
X56388000Y-86307560D01*
X56330126Y-86304716D01*
X56272810Y-86296214D01*
X56216603Y-86282135D01*
X56162047Y-86262615D01*
X56109667Y-86237841D01*
X56059967Y-86208052D01*
X56013426Y-86173535D01*
X55970493Y-86134622D01*
X55931580Y-86091689D01*
X55897064Y-86045149D01*
X55867275Y-85995449D01*
X55842501Y-85943069D01*
X55822980Y-85888512D01*
X55808901Y-85832305D01*
X55800399Y-85774989D01*
X55797556Y-85717115D01*
X55797556Y-85624511D01*
X55797556Y-85312250D01*
X56029066Y-85312250D01*
X56035039Y-85377397D01*
X56052958Y-85437266D01*
X56082406Y-85490606D01*
X56122967Y-85536167D01*
X56174223Y-85573255D01*
X56235759Y-85601175D01*
X56307157Y-85618677D01*
X56388000Y-85624511D01*
X56469191Y-85619719D01*
X56540519Y-85605342D01*
X56601985Y-85581381D01*
X56653589Y-85547835D01*
X56705447Y-85489062D01*
X56736562Y-85414979D01*
X56746934Y-85325585D01*
X56743183Y-85264883D01*
X56731932Y-85211682D01*
X56699150Y-85133339D01*
X56591359Y-85167787D01*
X56615806Y-85223906D01*
X56628030Y-85312250D01*
X56612334Y-85391565D01*
X56565244Y-85445044D01*
X56517275Y-85467578D01*
X56457083Y-85481098D01*
X56384666Y-85485605D01*
X56322436Y-85481855D01*
X56271319Y-85470603D01*
X56198532Y-85431709D01*
X56159638Y-85377258D01*
X56147970Y-85314472D01*
X56159638Y-85231684D01*
X56187975Y-85170010D01*
X56079072Y-85134450D01*
X56065737Y-85157231D01*
X56049069Y-85194457D01*
X56035178Y-85246131D01*
X56029066Y-85312250D01*
X55797556Y-85312250D01*
X55797556Y-85048884D01*
X56044624Y-85048884D01*
X56732487Y-85048884D01*
X56732487Y-84912200D01*
X56418004Y-84912200D01*
X56480789Y-84853859D01*
X56519405Y-84823995D01*
X56560799Y-84795519D01*
X56604138Y-84768988D01*
X56648588Y-84744957D01*
X56732487Y-84709952D01*
X56732487Y-84555489D01*
X56682898Y-84573547D01*
X56631919Y-84596605D01*
X56580802Y-84623692D01*
X56530796Y-84653834D01*
X56482873Y-84686477D01*
X56438006Y-84721065D01*
X56397168Y-84756347D01*
X56361330Y-84791074D01*
X56320492Y-84757320D01*
X56277986Y-84724954D01*
X56235064Y-84694256D01*
X56192976Y-84665502D01*
X56152137Y-84639249D01*
X56112966Y-84616052D01*
X56044624Y-84578825D01*
X56044624Y-84733289D01*
X56111299Y-84766626D01*
X56185752Y-84810521D01*
X56261317Y-84861082D01*
X56330215Y-84912200D01*
X56044624Y-84912200D01*
X56044624Y-85048884D01*
X55797556Y-85048884D01*
X55797556Y-84555489D01*
X55797556Y-84462885D01*
X55800399Y-84405011D01*
X55808901Y-84347695D01*
X55822980Y-84291488D01*
X55842501Y-84236931D01*
X55867275Y-84184551D01*
X55897064Y-84134851D01*
X55931580Y-84088311D01*
X55970493Y-84045378D01*
X56013426Y-84006465D01*
X56059967Y-83971948D01*
X56109667Y-83942159D01*
X56162047Y-83917385D01*
X56216603Y-83897865D01*
X56272810Y-83883786D01*
X56330126Y-83875284D01*
X56388000Y-83872440D01*
X56445874Y-83875284D01*
X56503190Y-83883786D01*
X56559397Y-83897865D01*
X56613953Y-83917385D01*
X56666333Y-83942159D01*
X56716033Y-83971948D01*
X56762574Y-84006465D01*
X56805507Y-84045378D01*
X56844420Y-84088311D01*
X56878936Y-84134851D01*
X56908725Y-84184551D01*
X56933499Y-84236931D01*
X56953020Y-84291488D01*
X56967099Y-84347695D01*
X56975601Y-84405011D01*
X56978444Y-84462885D01*
X56978444Y-84555489D01*
X56978444Y-84709952D01*
G37*
X59370000Y-80010000D02*
G75*
G03*
X59370000Y-80010000I-950000J0D01*
G01*
G36*
X56978444Y-77251004D02*
G01*
X56978444Y-77741066D01*
X56978444Y-78084442D01*
X56978444Y-78177046D01*
X56975601Y-78234920D01*
X56967099Y-78292236D01*
X56953020Y-78348443D01*
X56933499Y-78402999D01*
X56908725Y-78455379D01*
X56878936Y-78505079D01*
X56844420Y-78551620D01*
X56805507Y-78594553D01*
X56762574Y-78633466D01*
X56716033Y-78667982D01*
X56666333Y-78697771D01*
X56613953Y-78722545D01*
X56559397Y-78742066D01*
X56503190Y-78756145D01*
X56445874Y-78764647D01*
X56388000Y-78767490D01*
X56330126Y-78764647D01*
X56272810Y-78756145D01*
X56216603Y-78742066D01*
X56162047Y-78722545D01*
X56109667Y-78697771D01*
X56059967Y-78667982D01*
X56013426Y-78633466D01*
X55970493Y-78594553D01*
X55931580Y-78551620D01*
X55897064Y-78505079D01*
X55867275Y-78455379D01*
X55842501Y-78402999D01*
X55822980Y-78348443D01*
X55808901Y-78292236D01*
X55800399Y-78234920D01*
X55797556Y-78177046D01*
X55797556Y-78084442D01*
X56044624Y-78084442D01*
X56732487Y-78084442D01*
X56732487Y-77961093D01*
X56275764Y-77961093D01*
X56352008Y-77919792D01*
X56428128Y-77880342D01*
X56504126Y-77842745D01*
X56580123Y-77807000D01*
X56656243Y-77773107D01*
X56732487Y-77741066D01*
X56732487Y-77631052D01*
X56044624Y-77631052D01*
X56044624Y-77754401D01*
X56468010Y-77754401D01*
X56424671Y-77773986D01*
X56374665Y-77797184D01*
X56320492Y-77823298D01*
X56264651Y-77851635D01*
X56207839Y-77881500D01*
X56150748Y-77912198D01*
X56095602Y-77943313D01*
X56044624Y-77974428D01*
X56044624Y-78084442D01*
X55797556Y-78084442D01*
X55797556Y-77237669D01*
X56029066Y-77237669D01*
X56035039Y-77302816D01*
X56052958Y-77362685D01*
X56082406Y-77416025D01*
X56122967Y-77461586D01*
X56174223Y-77498674D01*
X56235759Y-77526594D01*
X56307157Y-77544097D01*
X56388000Y-77549931D01*
X56469191Y-77545138D01*
X56540519Y-77530762D01*
X56601985Y-77506800D01*
X56653589Y-77473254D01*
X56705447Y-77414482D01*
X56736562Y-77340398D01*
X56746934Y-77251004D01*
X56743183Y-77190302D01*
X56731932Y-77137101D01*
X56699150Y-77058758D01*
X56591359Y-77093207D01*
X56615806Y-77149325D01*
X56628030Y-77237669D01*
X56612334Y-77316985D01*
X56565244Y-77370464D01*
X56517275Y-77392997D01*
X56457083Y-77406518D01*
X56384666Y-77411024D01*
X56322436Y-77407274D01*
X56271319Y-77396022D01*
X56198532Y-77357129D01*
X56159638Y-77302677D01*
X56147970Y-77239892D01*
X56159638Y-77157104D01*
X56187975Y-77095429D01*
X56079072Y-77059869D01*
X56065737Y-77082650D01*
X56049069Y-77119877D01*
X56035178Y-77171550D01*
X56029066Y-77237669D01*
X55797556Y-77237669D01*
X55797556Y-77058758D01*
X55797556Y-76966154D01*
X55800399Y-76908280D01*
X55808901Y-76850964D01*
X55822980Y-76794757D01*
X55842501Y-76740201D01*
X55867275Y-76687821D01*
X55897064Y-76638121D01*
X55931580Y-76591580D01*
X55970493Y-76548647D01*
X56013426Y-76509734D01*
X56059967Y-76475218D01*
X56109667Y-76445429D01*
X56162047Y-76420655D01*
X56216603Y-76401134D01*
X56272810Y-76387055D01*
X56330126Y-76378553D01*
X56388000Y-76375710D01*
X56445874Y-76378553D01*
X56503190Y-76387055D01*
X56559397Y-76401134D01*
X56613953Y-76420655D01*
X56666333Y-76445429D01*
X56716033Y-76475218D01*
X56762574Y-76509734D01*
X56805507Y-76548647D01*
X56844420Y-76591580D01*
X56878936Y-76638121D01*
X56908725Y-76687821D01*
X56933499Y-76740201D01*
X56953020Y-76794757D01*
X56967099Y-76850964D01*
X56975601Y-76908280D01*
X56978444Y-76966154D01*
X56978444Y-77058758D01*
X56978444Y-77251004D01*
G37*
G36*
X56436339Y-82179259D02*
G01*
X56481345Y-82182176D01*
X56557466Y-82197734D01*
X56609139Y-82231071D01*
X56628030Y-82287189D01*
X56609139Y-82343863D01*
X56558021Y-82376645D01*
X56481901Y-82392202D01*
X56436478Y-82395120D01*
X56388000Y-82396092D01*
X56339661Y-82395120D01*
X56294655Y-82392202D01*
X56218534Y-82376645D01*
X56166861Y-82343863D01*
X56147970Y-82287189D01*
X56166861Y-82230516D01*
X56217979Y-82197734D01*
X56294099Y-82182176D01*
X56339522Y-82179259D01*
X56388000Y-82178287D01*
X56436339Y-82179259D01*
G37*
G36*
X56978444Y-82286078D02*
G01*
X56978444Y-83060619D01*
X56978444Y-83153224D01*
X56975601Y-83211097D01*
X56967099Y-83268413D01*
X56953020Y-83324620D01*
X56933499Y-83379177D01*
X56908725Y-83431557D01*
X56878936Y-83481257D01*
X56844420Y-83527797D01*
X56805507Y-83570731D01*
X56762574Y-83609643D01*
X56716033Y-83644160D01*
X56666333Y-83673949D01*
X56613953Y-83698723D01*
X56559397Y-83718243D01*
X56503190Y-83732322D01*
X56445874Y-83740825D01*
X56388000Y-83743668D01*
X56330126Y-83740825D01*
X56272810Y-83732322D01*
X56216603Y-83718243D01*
X56162047Y-83698723D01*
X56109667Y-83673949D01*
X56059967Y-83644160D01*
X56013426Y-83609643D01*
X55970493Y-83570731D01*
X55931580Y-83527797D01*
X55897064Y-83481257D01*
X55867275Y-83431557D01*
X55842501Y-83379177D01*
X55822980Y-83324620D01*
X55808901Y-83268413D01*
X55800399Y-83211097D01*
X55797556Y-83153224D01*
X55797556Y-83060619D01*
X56044624Y-83060619D01*
X56157971Y-83060619D01*
X56157971Y-82910601D01*
X56619140Y-82910601D01*
X56619140Y-83060619D01*
X56732487Y-83060619D01*
X56732487Y-82623898D01*
X56619140Y-82623898D01*
X56619140Y-82772806D01*
X56157971Y-82772806D01*
X56157971Y-82623898D01*
X56044624Y-82623898D01*
X56044624Y-83060619D01*
X55797556Y-83060619D01*
X55797556Y-82287189D01*
X56029066Y-82287189D01*
X56039129Y-82359297D01*
X56069318Y-82420045D01*
X56119633Y-82469434D01*
X56170369Y-82498119D01*
X56232008Y-82518607D01*
X56304552Y-82530900D01*
X56388000Y-82534998D01*
X56471448Y-82531005D01*
X56543992Y-82519024D01*
X56605631Y-82499056D01*
X56656367Y-82471101D01*
X56706682Y-82422145D01*
X56736871Y-82360470D01*
X56746934Y-82286078D01*
X56736871Y-82213476D01*
X56706682Y-82152728D01*
X56656367Y-82103833D01*
X56605631Y-82075635D01*
X56543992Y-82055494D01*
X56471448Y-82043409D01*
X56388000Y-82039381D01*
X56304552Y-82043339D01*
X56232008Y-82055216D01*
X56170369Y-82075010D01*
X56119633Y-82102722D01*
X56069318Y-82151370D01*
X56039129Y-82212859D01*
X56029066Y-82287189D01*
X55797556Y-82287189D01*
X55797556Y-82039381D01*
X55797556Y-81946776D01*
X55800399Y-81888903D01*
X55808901Y-81831587D01*
X55822980Y-81775380D01*
X55842501Y-81720823D01*
X55867275Y-81668443D01*
X55897064Y-81618743D01*
X55931580Y-81572203D01*
X55970493Y-81529269D01*
X56013426Y-81490357D01*
X56059967Y-81455840D01*
X56109667Y-81426051D01*
X56162047Y-81401277D01*
X56216603Y-81381757D01*
X56272810Y-81367678D01*
X56330126Y-81359175D01*
X56388000Y-81356332D01*
X56445874Y-81359175D01*
X56503190Y-81367678D01*
X56559397Y-81381757D01*
X56613953Y-81401277D01*
X56666333Y-81426051D01*
X56716033Y-81455840D01*
X56762574Y-81490357D01*
X56805507Y-81529269D01*
X56844420Y-81572203D01*
X56878936Y-81618743D01*
X56908725Y-81668443D01*
X56933499Y-81720823D01*
X56953020Y-81775380D01*
X56967099Y-81831587D01*
X56975601Y-81888903D01*
X56978444Y-81946776D01*
X56978444Y-82039381D01*
X56978444Y-82286078D01*
G37*
X50906000Y-107842164D02*
X50906000Y-108057836D01*
X50186000Y-107842164D02*
X50186000Y-108057836D01*
X52578000Y-118328000D02*
X50903000Y-118328000D01*
X52578000Y-118328000D02*
X53228000Y-118328000D01*
X52578000Y-121448000D02*
X51928000Y-121448000D01*
X52578000Y-121448000D02*
X53228000Y-121448000D01*
G36*
X56978444Y-87591662D02*
G01*
X56978444Y-87872808D01*
X56978444Y-87965412D01*
X56975601Y-88023286D01*
X56967099Y-88080602D01*
X56953020Y-88136809D01*
X56933499Y-88191365D01*
X56908725Y-88243746D01*
X56878936Y-88293445D01*
X56844420Y-88339986D01*
X56805507Y-88382919D01*
X56762574Y-88421832D01*
X56716033Y-88456349D01*
X56666333Y-88486138D01*
X56613953Y-88510912D01*
X56559397Y-88530432D01*
X56503190Y-88544511D01*
X56445874Y-88553013D01*
X56388000Y-88555856D01*
X56330126Y-88553013D01*
X56272810Y-88544511D01*
X56216603Y-88530432D01*
X56162047Y-88510912D01*
X56109667Y-88486138D01*
X56059967Y-88456349D01*
X56013426Y-88421832D01*
X55970493Y-88382919D01*
X55931580Y-88339986D01*
X55897064Y-88293445D01*
X55867275Y-88243746D01*
X55842501Y-88191365D01*
X55822980Y-88136809D01*
X55808901Y-88080602D01*
X55800399Y-88023286D01*
X55797556Y-87965412D01*
X55797556Y-87872808D01*
X55797556Y-87574993D01*
X56029066Y-87574993D01*
X56034761Y-87635278D01*
X56051847Y-87691674D01*
X56080323Y-87742514D01*
X56120189Y-87786131D01*
X56171167Y-87821968D01*
X56232981Y-87849472D01*
X56305351Y-87866974D01*
X56388000Y-87872808D01*
X56471483Y-87867807D01*
X56544131Y-87852806D01*
X56605805Y-87828636D01*
X56656367Y-87796132D01*
X56695816Y-87755710D01*
X56724153Y-87707787D01*
X56741239Y-87652920D01*
X56746934Y-87591662D01*
X56744156Y-87523737D01*
X56735821Y-87466646D01*
X56715819Y-87390526D01*
X56372442Y-87390526D01*
X56372442Y-87527209D01*
X56623585Y-87527209D01*
X56626919Y-87553879D01*
X56628030Y-87580549D01*
X56613445Y-87646947D01*
X56569689Y-87695008D01*
X56523572Y-87716616D01*
X56463009Y-87729580D01*
X56388000Y-87733902D01*
X56337021Y-87731540D01*
X56290766Y-87724456D01*
X56215201Y-87693341D01*
X56165750Y-87638334D01*
X56147970Y-87556102D01*
X56160194Y-87482759D01*
X56187975Y-87422752D01*
X56079072Y-87387192D01*
X56065737Y-87409972D01*
X56049069Y-87448311D01*
X56035178Y-87503317D01*
X56029066Y-87574993D01*
X55797556Y-87574993D01*
X55797556Y-87387192D01*
X55797556Y-87294588D01*
X55800399Y-87236714D01*
X55808901Y-87179398D01*
X55822980Y-87123191D01*
X55842501Y-87068635D01*
X55867275Y-87016254D01*
X55897064Y-86966555D01*
X55931580Y-86920014D01*
X55970493Y-86877081D01*
X56013426Y-86838168D01*
X56059967Y-86803651D01*
X56109667Y-86773862D01*
X56162047Y-86749088D01*
X56216603Y-86729568D01*
X56272810Y-86715489D01*
X56330126Y-86706987D01*
X56388000Y-86704144D01*
X56445874Y-86706987D01*
X56503190Y-86715489D01*
X56559397Y-86729568D01*
X56613953Y-86749088D01*
X56666333Y-86773862D01*
X56716033Y-86803651D01*
X56762574Y-86838168D01*
X56805507Y-86877081D01*
X56844420Y-86920014D01*
X56878936Y-86966555D01*
X56908725Y-87016254D01*
X56933499Y-87068635D01*
X56953020Y-87123191D01*
X56967099Y-87179398D01*
X56975601Y-87236714D01*
X56978444Y-87294588D01*
X56978444Y-87387192D01*
X56978444Y-87591662D01*
G37*
X55772164Y-97938000D02*
X55987836Y-97938000D01*
X55772164Y-98658000D02*
X55987836Y-98658000D01*
G36*
X57940575Y-132892087D02*
G01*
X57070625Y-132892087D01*
X57070625Y-132507912D01*
X57940575Y-132507912D01*
X57940575Y-132892087D01*
G37*
D11*
X56789000Y-126848500D02*
X56789000Y-123848500D01*
X59289000Y-126848500D02*
X59289000Y-123848500D01*
D12*
X57939000Y-128048500D02*
G75*
G03*
X57939000Y-128048500I-100000J0D01*
G01*
G36*
X56341883Y-90016886D02*
G01*
X56362302Y-90057724D01*
X56369109Y-90118009D01*
X56369109Y-90148013D01*
X56162416Y-90148013D01*
X56159638Y-90125788D01*
X56159083Y-90106897D01*
X56165472Y-90057724D01*
X56184641Y-90019108D01*
X56217423Y-89994105D01*
X56264651Y-89985771D01*
X56341883Y-90016886D01*
G37*
G36*
X56967332Y-89801303D02*
G01*
X56967332Y-90284697D01*
X56967332Y-90377301D01*
X56964542Y-90434085D01*
X56956200Y-90490323D01*
X56942386Y-90545472D01*
X56923233Y-90599002D01*
X56898925Y-90650396D01*
X56869697Y-90699160D01*
X56835829Y-90744825D01*
X56797649Y-90786950D01*
X56755524Y-90825130D01*
X56709859Y-90858998D01*
X56661095Y-90888226D01*
X56609701Y-90912534D01*
X56556171Y-90931687D01*
X56501022Y-90945501D01*
X56444784Y-90953843D01*
X56388000Y-90956633D01*
X56331216Y-90953843D01*
X56274978Y-90945501D01*
X56219829Y-90931687D01*
X56166299Y-90912534D01*
X56114905Y-90888226D01*
X56066141Y-90858998D01*
X56020476Y-90825130D01*
X55978351Y-90786950D01*
X55940171Y-90744825D01*
X55906303Y-90699160D01*
X55877075Y-90650396D01*
X55852767Y-90599002D01*
X55833614Y-90545472D01*
X55819800Y-90490323D01*
X55811458Y-90434085D01*
X55808668Y-90377301D01*
X55808668Y-90284697D01*
X55808668Y-90106897D01*
X56040179Y-90106897D01*
X56041290Y-90145791D01*
X56044068Y-90192463D01*
X56049624Y-90240802D01*
X56057959Y-90284697D01*
X56735821Y-90284697D01*
X56735821Y-90148013D01*
X56482456Y-90148013D01*
X56482456Y-90076893D01*
X56545381Y-90039250D01*
X56607472Y-90004106D01*
X56670396Y-89972297D01*
X56735821Y-89944654D01*
X56735821Y-89801303D01*
X56663034Y-89832974D01*
X56586358Y-89871312D01*
X56513016Y-89912428D01*
X56449119Y-89952433D01*
X56417726Y-89903816D01*
X56374665Y-89871312D01*
X56322992Y-89852976D01*
X56265762Y-89846864D01*
X56211728Y-89851448D01*
X56165194Y-89865200D01*
X56094630Y-89917984D01*
X56070460Y-89955767D01*
X56053514Y-90000217D01*
X56043512Y-90050779D01*
X56040179Y-90106897D01*
X55808668Y-90106897D01*
X55808668Y-89801303D01*
X55808668Y-89708699D01*
X55811458Y-89651915D01*
X55819800Y-89595677D01*
X55833614Y-89540528D01*
X55852767Y-89486998D01*
X55877075Y-89435604D01*
X55906303Y-89386840D01*
X55940171Y-89341175D01*
X55978351Y-89299050D01*
X56020476Y-89260870D01*
X56066141Y-89227002D01*
X56114905Y-89197774D01*
X56166299Y-89173466D01*
X56219829Y-89154313D01*
X56274978Y-89140499D01*
X56331216Y-89132157D01*
X56388000Y-89129367D01*
X56444784Y-89132157D01*
X56501022Y-89140499D01*
X56556171Y-89154313D01*
X56609701Y-89173466D01*
X56661095Y-89197774D01*
X56709859Y-89227002D01*
X56755524Y-89260870D01*
X56797649Y-89299050D01*
X56835829Y-89341175D01*
X56869697Y-89386840D01*
X56898925Y-89435604D01*
X56923233Y-89486998D01*
X56942386Y-89540528D01*
X56956200Y-89595677D01*
X56964542Y-89651915D01*
X56967332Y-89708699D01*
X56967332Y-89801303D01*
G37*
D10*
X59288000Y-108985164D02*
X59288000Y-109200836D01*
X58568000Y-108985164D02*
X58568000Y-109200836D01*
X55000000Y-110117097D02*
X54699480Y-109816577D01*
X51609423Y-106125480D02*
X51308903Y-106426000D01*
X55300520Y-109816577D02*
X55000000Y-110117097D01*
X54699480Y-103035423D02*
X55000000Y-102734903D01*
X58390577Y-106726520D02*
X58691097Y-106426000D01*
X55000000Y-102734903D02*
X55300520Y-103035423D01*
X58691097Y-106426000D02*
X58390577Y-106125480D01*
X53602836Y-102468000D02*
X53387164Y-102468000D01*
X53602836Y-101748000D02*
X53387164Y-101748000D01*
X51629000Y-112556000D02*
X52979000Y-112556000D01*
X51629000Y-114306000D02*
X52979000Y-114306000D01*
X53260164Y-110257000D02*
X53475836Y-110257000D01*
X53260164Y-110977000D02*
X53475836Y-110977000D01*
X59370000Y-82550000D02*
G75*
G03*
X59370000Y-82550000I-950000J0D01*
G01*
X58647359Y-110110000D02*
X58954641Y-110110000D01*
X58647359Y-110870000D02*
X58954641Y-110870000D01*
X55137164Y-115972000D02*
X55352836Y-115972000D01*
X55137164Y-116692000D02*
X55352836Y-116692000D01*
X58066000Y-114007000D02*
X59536000Y-114007000D01*
X59536000Y-114007000D02*
X59536000Y-111722000D01*
X58066000Y-111722000D02*
X58066000Y-114007000D01*
X55390000Y-101438000D02*
X55390000Y-99138000D01*
X55390000Y-99138000D02*
X52690000Y-99138000D01*
X59370000Y-90170000D02*
G75*
G03*
X59370000Y-90170000I-950000J0D01*
G01*
X50440000Y-110089836D02*
X50440000Y-109874164D01*
X51160000Y-110089836D02*
X51160000Y-109874164D01*
X57042164Y-115972000D02*
X57257836Y-115972000D01*
X57042164Y-116692000D02*
X57257836Y-116692000D01*
X59370000Y-87630000D02*
G75*
G03*
X59370000Y-87630000I-950000J0D01*
G01*
X59370000Y-85090000D02*
G75*
G03*
X59370000Y-85090000I-950000J0D01*
G01*
G36*
X59596044Y-117217488D02*
G01*
X59403956Y-117217488D01*
X59403956Y-116782512D01*
X59596044Y-116782512D01*
X59596044Y-117217488D01*
G37*
X56367000Y-100222164D02*
X56367000Y-100437836D01*
X55647000Y-100222164D02*
X55647000Y-100437836D01*
X58781836Y-104246000D02*
X58566164Y-104246000D01*
X58781836Y-103526000D02*
X58566164Y-103526000D01*
X51715641Y-117982000D02*
X51408359Y-117982000D01*
X51715641Y-117222000D02*
X51408359Y-117222000D01*
X55853359Y-111888000D02*
X56160641Y-111888000D01*
X55853359Y-112648000D02*
X56160641Y-112648000D01*
G36*
X52847875Y-132539663D02*
G01*
X53346350Y-132539663D01*
X53346350Y-132860337D01*
X52847875Y-132860337D01*
X52847875Y-133412788D01*
X52511325Y-133412788D01*
X52511325Y-132860337D01*
X52012850Y-132860337D01*
X52012850Y-132539663D01*
X52511325Y-132539663D01*
X52511325Y-131987212D01*
X52847875Y-131987212D01*
X52847875Y-132539663D01*
G37*
G36*
X59584137Y-121919831D02*
G01*
X59833375Y-121919831D01*
X59833375Y-122080169D01*
X59584137Y-122080169D01*
X59584137Y-122356394D01*
X59415862Y-122356394D01*
X59415862Y-122080169D01*
X59166625Y-122080169D01*
X59166625Y-121919831D01*
X59415862Y-121919831D01*
X59415862Y-121643606D01*
X59584137Y-121643606D01*
X59584137Y-121919831D01*
G37*
X53065000Y-115482164D02*
X53065000Y-115697836D01*
X52345000Y-115482164D02*
X52345000Y-115697836D01*
X50398000Y-102130242D02*
X50398000Y-100459758D01*
X52218000Y-102130242D02*
X52218000Y-100459758D01*
G36*
X56963442Y-79954676D02*
G01*
X56963442Y-80146922D01*
X56963442Y-80239526D01*
X56960671Y-80295929D01*
X56952385Y-80351789D01*
X56938664Y-80406568D01*
X56919639Y-80459738D01*
X56895495Y-80510788D01*
X56866463Y-80559225D01*
X56832823Y-80604583D01*
X56794899Y-80646425D01*
X56753057Y-80684349D01*
X56707699Y-80717989D01*
X56659262Y-80747021D01*
X56608212Y-80771165D01*
X56555042Y-80790190D01*
X56500263Y-80803911D01*
X56444403Y-80812197D01*
X56388000Y-80814968D01*
X56331597Y-80812197D01*
X56275737Y-80803911D01*
X56220958Y-80790190D01*
X56167788Y-80771165D01*
X56116738Y-80747021D01*
X56068301Y-80717989D01*
X56022943Y-80684349D01*
X55981101Y-80646425D01*
X55943177Y-80604583D01*
X55909537Y-80559225D01*
X55880505Y-80510788D01*
X55856361Y-80459738D01*
X55837336Y-80406568D01*
X55823615Y-80351789D01*
X55815329Y-80295929D01*
X55812558Y-80239526D01*
X55812558Y-80146922D01*
X56044068Y-80146922D01*
X56106298Y-80134142D01*
X56184086Y-80115807D01*
X56242303Y-80101114D01*
X56302866Y-80085186D01*
X56365775Y-80068023D01*
X56429919Y-80049873D01*
X56494186Y-80030981D01*
X56558577Y-80011349D01*
X56650255Y-79982179D01*
X56731932Y-79954676D01*
X56731932Y-79813547D01*
X56672727Y-79792310D01*
X56612164Y-79771566D01*
X56550243Y-79751317D01*
X56488013Y-79731870D01*
X56426523Y-79713534D01*
X56365775Y-79696310D01*
X56277292Y-79672696D01*
X56192976Y-79651860D01*
X56114632Y-79633941D01*
X56044068Y-79619078D01*
X56044068Y-79762429D01*
X56101853Y-79772431D01*
X56168528Y-79784654D01*
X56240620Y-79798545D01*
X56314658Y-79813547D01*
X56389111Y-79829660D01*
X56462454Y-79846884D01*
X56531212Y-79864664D01*
X56591914Y-79882444D01*
X56530379Y-79900363D01*
X56461342Y-79918560D01*
X56388000Y-79936340D01*
X56313546Y-79953009D01*
X56239648Y-79968427D01*
X56167973Y-79982457D01*
X56101714Y-79994125D01*
X56044068Y-80002459D01*
X56044068Y-80146922D01*
X55812558Y-80146922D01*
X55812558Y-79619078D01*
X55812558Y-79526474D01*
X55815329Y-79470071D01*
X55823615Y-79414211D01*
X55837336Y-79359432D01*
X55856361Y-79306262D01*
X55880505Y-79255212D01*
X55909537Y-79206775D01*
X55943177Y-79161417D01*
X55981101Y-79119575D01*
X56022943Y-79081651D01*
X56068301Y-79048011D01*
X56116738Y-79018979D01*
X56167788Y-78994835D01*
X56220958Y-78975810D01*
X56275737Y-78962089D01*
X56331597Y-78953803D01*
X56388000Y-78951032D01*
X56444403Y-78953803D01*
X56500263Y-78962089D01*
X56555042Y-78975810D01*
X56608212Y-78994835D01*
X56659262Y-79018979D01*
X56707699Y-79048011D01*
X56753057Y-79081651D01*
X56794899Y-79119575D01*
X56832823Y-79161417D01*
X56866463Y-79206775D01*
X56895495Y-79255212D01*
X56919639Y-79306262D01*
X56938664Y-79359432D01*
X56952385Y-79414211D01*
X56960671Y-79470071D01*
X56963442Y-79526474D01*
X56963442Y-79619078D01*
X56963442Y-79954676D01*
G37*
D13*
X58020000Y-121787000D02*
X57520000Y-121287000D01*
X58820000Y-121787000D02*
X58020000Y-121787000D01*
X57520000Y-121287000D02*
X57520000Y-117687000D01*
X59320000Y-121287000D02*
X58820000Y-121787000D01*
X57520000Y-117687000D02*
X58020000Y-117187000D01*
X59320000Y-117687000D02*
X59320000Y-121287000D01*
X58020000Y-117187000D02*
X58820000Y-117187000D01*
X58820000Y-117187000D02*
X59320000Y-117687000D01*
%LPC*%
G36*
X52540561Y-76978874D02*
G01*
X52571676Y-77003877D01*
X52589456Y-77038881D01*
X52595012Y-77079442D01*
X52386097Y-77079442D01*
X52395542Y-77038326D01*
X52415545Y-77002766D01*
X52447771Y-76978318D01*
X52493888Y-76969428D01*
X52540561Y-76978874D01*
G37*
G36*
X51974379Y-76985125D02*
G01*
X52009383Y-77018879D01*
X52030219Y-77070135D01*
X52037164Y-77133893D01*
X52031330Y-77197929D01*
X52013828Y-77245574D01*
X51984102Y-77275161D01*
X51941597Y-77285023D01*
X51897147Y-77279467D01*
X51861587Y-77265021D01*
X51861587Y-76978318D01*
X51891591Y-76975540D01*
X51924928Y-76973873D01*
X51974379Y-76985125D01*
G37*
G36*
X53131746Y-77805459D02*
G01*
X52531671Y-77805459D01*
X51861587Y-77805459D01*
X51351523Y-77805459D01*
X51159277Y-77805459D01*
X51066673Y-77805459D01*
X50997526Y-77802062D01*
X50929045Y-77791903D01*
X50861889Y-77775082D01*
X50796705Y-77751759D01*
X50734122Y-77722159D01*
X50674741Y-77686567D01*
X50619135Y-77645327D01*
X50567838Y-77598835D01*
X50545282Y-77573948D01*
X51724903Y-77573948D01*
X51861587Y-77573948D01*
X51861587Y-77377257D01*
X51916316Y-77396426D01*
X51969378Y-77402816D01*
X52017440Y-77397815D01*
X52059389Y-77382813D01*
X52123842Y-77326695D01*
X52146345Y-77286968D01*
X52162736Y-77240018D01*
X52172737Y-77187094D01*
X52175814Y-77133893D01*
X52244968Y-77133893D01*
X52249969Y-77196401D01*
X52264971Y-77250574D01*
X52289279Y-77296552D01*
X52322200Y-77334474D01*
X52363316Y-77364200D01*
X52412211Y-77385591D01*
X52468468Y-77398510D01*
X52531671Y-77402816D01*
X52621682Y-77394481D01*
X52697247Y-77373923D01*
X52678356Y-77257242D01*
X52615570Y-77275022D01*
X52537227Y-77283912D01*
X52476664Y-77276550D01*
X52428324Y-77254464D01*
X52396654Y-77219598D01*
X52386097Y-77173898D01*
X52725028Y-77173898D01*
X52726695Y-77150562D01*
X52727251Y-77122781D01*
X52720583Y-77042338D01*
X52700581Y-76975849D01*
X52667243Y-76923311D01*
X52621065Y-76885344D01*
X52562539Y-76862563D01*
X52491666Y-76854969D01*
X52445549Y-76859414D01*
X52400543Y-76872749D01*
X52358593Y-76894835D01*
X52321644Y-76925534D01*
X52290529Y-76964844D01*
X52266082Y-77012767D01*
X52250247Y-77069163D01*
X52244968Y-77133893D01*
X52175814Y-77133893D01*
X52176071Y-77129448D01*
X52168909Y-77051537D01*
X52147425Y-76985233D01*
X52111618Y-76930534D01*
X52062353Y-76889789D01*
X52000493Y-76865341D01*
X51926039Y-76857192D01*
X51872283Y-76859137D01*
X51817692Y-76864971D01*
X51766992Y-76873861D01*
X51724903Y-76884973D01*
X51724903Y-77573948D01*
X50545282Y-77573948D01*
X50521346Y-77547538D01*
X50480105Y-77491932D01*
X50444514Y-77432551D01*
X50414914Y-77369967D01*
X50411161Y-77359477D01*
X51159277Y-77359477D01*
X51235953Y-77387258D01*
X51288737Y-77398926D01*
X51351523Y-77402816D01*
X51412920Y-77399760D01*
X51463759Y-77390592D01*
X51537657Y-77357254D01*
X51578218Y-77307248D01*
X51590442Y-77246129D01*
X51573773Y-77176676D01*
X51530990Y-77130004D01*
X51472649Y-77099444D01*
X51410419Y-77077219D01*
X51370970Y-77063329D01*
X51338744Y-77048327D01*
X51316519Y-77031103D01*
X51308184Y-77009433D01*
X51326520Y-76982207D01*
X51397084Y-76969428D01*
X51487096Y-76982207D01*
X51545992Y-77000543D01*
X51567106Y-76884973D01*
X51490985Y-76862748D01*
X51445285Y-76856914D01*
X51395973Y-76854969D01*
X51341244Y-76858164D01*
X51294849Y-76867749D01*
X51225396Y-76903309D01*
X51185391Y-76955537D01*
X51172612Y-77018323D01*
X51189281Y-77086665D01*
X51231508Y-77131671D01*
X51288182Y-77161119D01*
X51349301Y-77181677D01*
X51389861Y-77195012D01*
X51424310Y-77208903D01*
X51447646Y-77226127D01*
X51455981Y-77250574D01*
X51429311Y-77280023D01*
X51352634Y-77287246D01*
X51263179Y-77273911D01*
X51180391Y-77245018D01*
X51159277Y-77359477D01*
X50411161Y-77359477D01*
X50391591Y-77304784D01*
X50374769Y-77237628D01*
X50364611Y-77169147D01*
X50361214Y-77100000D01*
X50364611Y-77030853D01*
X50374769Y-76962372D01*
X50391591Y-76895216D01*
X50414914Y-76830033D01*
X50444514Y-76767449D01*
X50461326Y-76739399D01*
X52806149Y-76739399D01*
X52950612Y-76739399D01*
X52950612Y-77182788D01*
X52961447Y-77277661D01*
X52993951Y-77346698D01*
X53050069Y-77388786D01*
X53131746Y-77402816D01*
X53193420Y-77398371D01*
X53239537Y-77387814D01*
X53270096Y-77376146D01*
X53285098Y-77368367D01*
X53267318Y-77258353D01*
X53230647Y-77272799D01*
X53161749Y-77283912D01*
X53108409Y-77265021D01*
X53087296Y-77192789D01*
X53087296Y-76739399D01*
X53361774Y-76739399D01*
X53506237Y-76739399D01*
X53506237Y-77182788D01*
X53517072Y-77277661D01*
X53549576Y-77346698D01*
X53605694Y-77388786D01*
X53687371Y-77402816D01*
X53749045Y-77398371D01*
X53795162Y-77387814D01*
X53825721Y-77376146D01*
X53840723Y-77368367D01*
X53822943Y-77258353D01*
X53786272Y-77272799D01*
X53717374Y-77283912D01*
X53664034Y-77265021D01*
X53642921Y-77192789D01*
X53642921Y-76626052D01*
X53361774Y-76626052D01*
X53361774Y-76739399D01*
X53087296Y-76739399D01*
X53087296Y-76626052D01*
X52806149Y-76626052D01*
X52806149Y-76739399D01*
X50461326Y-76739399D01*
X50480105Y-76708068D01*
X50521346Y-76652462D01*
X50567838Y-76601165D01*
X50619135Y-76554673D01*
X50674741Y-76513433D01*
X50734122Y-76477841D01*
X50796705Y-76448241D01*
X50861889Y-76424918D01*
X50929045Y-76408097D01*
X50997526Y-76397938D01*
X51066673Y-76394541D01*
X51159277Y-76394541D01*
X53840723Y-76394541D01*
X53933327Y-76394541D01*
X54002474Y-76397938D01*
X54070955Y-76408097D01*
X54138111Y-76424918D01*
X54203295Y-76448241D01*
X54265878Y-76477841D01*
X54325259Y-76513433D01*
X54380865Y-76554673D01*
X54432162Y-76601165D01*
X54478654Y-76652462D01*
X54519895Y-76708068D01*
X54555486Y-76767449D01*
X54585086Y-76830033D01*
X54608409Y-76895216D01*
X54625231Y-76962372D01*
X54635389Y-77030853D01*
X54638786Y-77100000D01*
X54635389Y-77169147D01*
X54625231Y-77237628D01*
X54608409Y-77304784D01*
X54585086Y-77369967D01*
X54555486Y-77432551D01*
X54519895Y-77491932D01*
X54478654Y-77547538D01*
X54432162Y-77598835D01*
X54380865Y-77645327D01*
X54325259Y-77686567D01*
X54265878Y-77722159D01*
X54203295Y-77751759D01*
X54138111Y-77775082D01*
X54070955Y-77791903D01*
X54002474Y-77802062D01*
X53933327Y-77805459D01*
X53840723Y-77805459D01*
X53687371Y-77805459D01*
X53131746Y-77805459D01*
G37*
G36*
X58049981Y-129396888D02*
G01*
X57854719Y-129396888D01*
X57854719Y-128577737D01*
X58049981Y-128577737D01*
X58049981Y-128873012D01*
X58092844Y-128873012D01*
X58178966Y-128863289D01*
X58237306Y-128834119D01*
X58281756Y-128723787D01*
X58269850Y-128656319D01*
X58234131Y-128609488D01*
X58178966Y-128582103D01*
X58108719Y-128572975D01*
X58081731Y-128573769D01*
X58049981Y-128577737D01*
X57854719Y-128577737D01*
X57854719Y-128428512D01*
X57917425Y-128416606D01*
X57986481Y-128408669D01*
X58053156Y-128404700D01*
X58108719Y-128403112D01*
X58188887Y-128407875D01*
X58261119Y-128422162D01*
X58324619Y-128446372D01*
X58378594Y-128480900D01*
X58454000Y-128581706D01*
X58473645Y-128648183D01*
X58480194Y-128725375D01*
X58471463Y-128807131D01*
X58445269Y-128880950D01*
X58398834Y-128942466D01*
X58329381Y-128987313D01*
X58386531Y-129078594D01*
X58445269Y-129183369D01*
X58500037Y-129292906D01*
X58545281Y-129396888D01*
X58340494Y-129396888D01*
X58301005Y-129303423D01*
X58255562Y-129213531D01*
X58205358Y-129124830D01*
X58151581Y-129034937D01*
X58049981Y-129034937D01*
X58049981Y-129396888D01*
G37*
G36*
X51765062Y-129164319D02*
G01*
X51720612Y-129391331D01*
X51517412Y-129391331D01*
X51545416Y-129277190D01*
X51573546Y-129167176D01*
X51601804Y-129061290D01*
X51618232Y-129002394D01*
X51801575Y-129002394D01*
X51993662Y-129002394D01*
X51974612Y-128900794D01*
X51953181Y-128803163D01*
X51927781Y-128704737D01*
X51898412Y-128599169D01*
X51869044Y-128704737D01*
X51843644Y-128803163D01*
X51821419Y-128900794D01*
X51801575Y-129002394D01*
X51618232Y-129002394D01*
X51630188Y-128959531D01*
X51658700Y-128861900D01*
X51694121Y-128743979D01*
X51728947Y-128629133D01*
X51763177Y-128517363D01*
X51796812Y-128408669D01*
X52009537Y-128408669D01*
X52044413Y-128518256D01*
X52079189Y-128631117D01*
X52113866Y-128747253D01*
X52148444Y-128866662D01*
X52175908Y-128965119D01*
X52203054Y-129066815D01*
X52229883Y-129171748D01*
X52256394Y-129279921D01*
X52282587Y-129391331D01*
X52073037Y-129391331D01*
X52027000Y-129164319D01*
X51801575Y-129164319D01*
X51765062Y-129164319D01*
G37*
G36*
X54147142Y-78814275D02*
G01*
X54180480Y-78841064D01*
X54199530Y-78878569D01*
X54205483Y-78922027D01*
X53981645Y-78922027D01*
X53991766Y-78877973D01*
X54013197Y-78839873D01*
X54047725Y-78813680D01*
X54097136Y-78804155D01*
X54147142Y-78814275D01*
G37*
G36*
X52357633Y-79014300D02*
G01*
X52392161Y-79018467D01*
X52392161Y-79147055D01*
X52352870Y-79150031D01*
X52306436Y-79150627D01*
X52232617Y-79134553D01*
X52204042Y-79080380D01*
X52213567Y-79045852D01*
X52239166Y-79025611D01*
X52276670Y-79015491D01*
X52320723Y-79012514D01*
X52357633Y-79014300D01*
G37*
G36*
X54137617Y-79516545D02*
G01*
X53581595Y-79516545D01*
X52873173Y-79516545D01*
X52295720Y-79516545D01*
X51788514Y-79516545D01*
X51464664Y-79516545D01*
X51365445Y-79516545D01*
X51305013Y-79513576D01*
X51245163Y-79504699D01*
X51186472Y-79489997D01*
X51129504Y-79469614D01*
X51074808Y-79443744D01*
X51022911Y-79412639D01*
X50974313Y-79376596D01*
X50929482Y-79335963D01*
X50888849Y-79291132D01*
X50852807Y-79242534D01*
X50821701Y-79190637D01*
X50795832Y-79135942D01*
X50775448Y-79078974D01*
X50760747Y-79020282D01*
X50754120Y-78975605D01*
X51464664Y-78975605D01*
X51469278Y-79035434D01*
X51483119Y-79091095D01*
X51506782Y-79141102D01*
X51540864Y-79183964D01*
X51585661Y-79219088D01*
X51641472Y-79245877D01*
X51708891Y-79262843D01*
X51788514Y-79268498D01*
X51844176Y-79266564D01*
X51892098Y-79260759D01*
X51967108Y-79241114D01*
X51945677Y-79120861D01*
X51877216Y-79136339D01*
X51805183Y-79141102D01*
X51715737Y-79130088D01*
X51656950Y-79097048D01*
X51648802Y-79083952D01*
X52059977Y-79083952D01*
X52076645Y-79170272D01*
X52124270Y-79227422D01*
X52198684Y-79258973D01*
X52295720Y-79268498D01*
X52370432Y-79266117D01*
X52437405Y-79258973D01*
X52532655Y-79242305D01*
X52532655Y-79222064D01*
X52667195Y-79222064D01*
X52749348Y-79251830D01*
X52805903Y-79264331D01*
X52873173Y-79268498D01*
X52938955Y-79265224D01*
X52993427Y-79255402D01*
X53072603Y-79219683D01*
X53116061Y-79166105D01*
X53129158Y-79100620D01*
X53111298Y-79026206D01*
X53065459Y-78976200D01*
X53002952Y-78943458D01*
X52936277Y-78919645D01*
X52894009Y-78904763D01*
X52859481Y-78888689D01*
X52835669Y-78870234D01*
X52826739Y-78847017D01*
X52846384Y-78817847D01*
X52921989Y-78804155D01*
X53018430Y-78817847D01*
X53081533Y-78837492D01*
X53085231Y-78817252D01*
X53241077Y-78817252D01*
X53368473Y-78817252D01*
X53368473Y-79047042D01*
X53372045Y-79110592D01*
X53382761Y-79160747D01*
X53424433Y-79228017D01*
X53491108Y-79260164D01*
X53581595Y-79268498D01*
X53672678Y-79261355D01*
X53760189Y-79237542D01*
X53739948Y-79111336D01*
X53702444Y-79126814D01*
X53669106Y-79135744D01*
X53635769Y-79139911D01*
X53598264Y-79141102D01*
X53563736Y-79137530D01*
X53537542Y-79123242D01*
X53520873Y-79093477D01*
X53514920Y-79043470D01*
X53514920Y-78980367D01*
X53830436Y-78980367D01*
X53835794Y-79047340D01*
X53851867Y-79105383D01*
X53877912Y-79154645D01*
X53913184Y-79195275D01*
X53957238Y-79227124D01*
X54009625Y-79250044D01*
X54069900Y-79263885D01*
X54137617Y-79268498D01*
X54234058Y-79259569D01*
X54249374Y-79255402D01*
X54494805Y-79255402D01*
X54642442Y-79255402D01*
X54642442Y-78839873D01*
X54703164Y-78828563D01*
X54763886Y-78825586D01*
X54796033Y-78826777D01*
X54835323Y-78830944D01*
X54875209Y-78837492D01*
X54909142Y-78844636D01*
X54935336Y-78708905D01*
X54889497Y-78697594D01*
X54838895Y-78690450D01*
X54791866Y-78686283D01*
X54757933Y-78685092D01*
X54680989Y-78688366D01*
X54614463Y-78698189D01*
X54553889Y-78713370D01*
X54494805Y-78732717D01*
X54494805Y-79255402D01*
X54249374Y-79255402D01*
X54315020Y-79237542D01*
X54294780Y-79112527D01*
X54227509Y-79131577D01*
X54143570Y-79141102D01*
X54078681Y-79133214D01*
X54026889Y-79109550D01*
X53992956Y-79072194D01*
X53981645Y-79023230D01*
X54344786Y-79023230D01*
X54346572Y-78998227D01*
X54347167Y-78968461D01*
X54340023Y-78882273D01*
X54318592Y-78811034D01*
X54282873Y-78754744D01*
X54233396Y-78714064D01*
X54170690Y-78689656D01*
X54094755Y-78681520D01*
X54045344Y-78686283D01*
X53997123Y-78700570D01*
X53952177Y-78724234D01*
X53912589Y-78757125D01*
X53879252Y-78799243D01*
X53853058Y-78850589D01*
X53836091Y-78911013D01*
X53830436Y-78980367D01*
X53514920Y-78980367D01*
X53514920Y-78817252D01*
X53749473Y-78817252D01*
X53749473Y-78695808D01*
X53514920Y-78695808D01*
X53514920Y-78531502D01*
X53368473Y-78555314D01*
X53368473Y-78695808D01*
X53241077Y-78695808D01*
X53241077Y-78817252D01*
X53085231Y-78817252D01*
X53104155Y-78713667D01*
X53022597Y-78689855D01*
X52973632Y-78683604D01*
X52920798Y-78681520D01*
X52862160Y-78684943D01*
X52812452Y-78695213D01*
X52738038Y-78733313D01*
X52695175Y-78789272D01*
X52681483Y-78856542D01*
X52699342Y-78929766D01*
X52744586Y-78977986D01*
X52805308Y-79009538D01*
X52870792Y-79031564D01*
X52914250Y-79045852D01*
X52951159Y-79060734D01*
X52976163Y-79079189D01*
X52985092Y-79105383D01*
X52956517Y-79136934D01*
X52874364Y-79144673D01*
X52778519Y-79130386D01*
X52689817Y-79099430D01*
X52667195Y-79222064D01*
X52532655Y-79222064D01*
X52532655Y-78908930D01*
X52520748Y-78814275D01*
X52481458Y-78742838D01*
X52408234Y-78697594D01*
X52356591Y-78685539D01*
X52293339Y-78681520D01*
X52240654Y-78683455D01*
X52189755Y-78689259D01*
X52112364Y-78706523D01*
X52132605Y-78824395D01*
X52195113Y-78810108D01*
X52275480Y-78804155D01*
X52330248Y-78811150D01*
X52365967Y-78832134D01*
X52392161Y-78901786D01*
X52392161Y-78919645D01*
X52344834Y-78912502D01*
X52290958Y-78910120D01*
X52204042Y-78919050D01*
X52130223Y-78948220D01*
X52079027Y-79001798D01*
X52059977Y-79083952D01*
X51648802Y-79083952D01*
X51624357Y-79044661D01*
X51613492Y-78975605D01*
X51623017Y-78908930D01*
X51653973Y-78855947D01*
X51710528Y-78821419D01*
X51798039Y-78808917D01*
X51872453Y-78815466D01*
X51925436Y-78830348D01*
X51957583Y-78712477D01*
X51875430Y-78688664D01*
X51784942Y-78681520D01*
X51707403Y-78687325D01*
X51641472Y-78704738D01*
X51586554Y-78732122D01*
X51542055Y-78767841D01*
X51507824Y-78811150D01*
X51483714Y-78861305D01*
X51469427Y-78916669D01*
X51464664Y-78975605D01*
X50754120Y-78975605D01*
X50751869Y-78960432D01*
X50748900Y-78900000D01*
X50751869Y-78839568D01*
X50760747Y-78779718D01*
X50775448Y-78721026D01*
X50795832Y-78664058D01*
X50821701Y-78609363D01*
X50852807Y-78557466D01*
X50888849Y-78508868D01*
X50929482Y-78464037D01*
X50974313Y-78423404D01*
X51022911Y-78387361D01*
X51074808Y-78356256D01*
X51129504Y-78330386D01*
X51186472Y-78310003D01*
X51245163Y-78295301D01*
X51305013Y-78286424D01*
X51365445Y-78283455D01*
X51464664Y-78283455D01*
X54935336Y-78283455D01*
X55034555Y-78283455D01*
X55094987Y-78286424D01*
X55154837Y-78295301D01*
X55213528Y-78310003D01*
X55270496Y-78330386D01*
X55325192Y-78356256D01*
X55377089Y-78387361D01*
X55425687Y-78423404D01*
X55470518Y-78464037D01*
X55511151Y-78508868D01*
X55547193Y-78557466D01*
X55578299Y-78609363D01*
X55604168Y-78664058D01*
X55624552Y-78721026D01*
X55639253Y-78779718D01*
X55648131Y-78839568D01*
X55651100Y-78900000D01*
X55648131Y-78960432D01*
X55639253Y-79020282D01*
X55624552Y-79078974D01*
X55604168Y-79135942D01*
X55578299Y-79190637D01*
X55547193Y-79242534D01*
X55511151Y-79291132D01*
X55470518Y-79335963D01*
X55425687Y-79376596D01*
X55377089Y-79412639D01*
X55325192Y-79443744D01*
X55270496Y-79469614D01*
X55213528Y-79489997D01*
X55154837Y-79504699D01*
X55094987Y-79513576D01*
X55034555Y-79516545D01*
X54935336Y-79516545D01*
X54642442Y-79516545D01*
X54137617Y-79516545D01*
G37*
D14*
X55753000Y-118150000D03*
X55753000Y-120250000D03*
D15*
X58420000Y-77470000D03*
D16*
X59154000Y-100965000D03*
X58194000Y-100965000D03*
D17*
X55400000Y-97282000D03*
X56360000Y-97282000D03*
X53015000Y-98425000D03*
X53975000Y-98425000D03*
D18*
X55497000Y-111252000D03*
X56517000Y-111252000D03*
D16*
X53947000Y-97409000D03*
X52987000Y-97409000D03*
D19*
X51689000Y-116070000D03*
X51689000Y-115110000D03*
D20*
X51943000Y-127048500D03*
X51943000Y-123648500D03*
D21*
X54971500Y-113573500D03*
X54971500Y-114073500D03*
X54971500Y-114573500D03*
X54971500Y-115073500D03*
D22*
X55634000Y-115236000D03*
X56134000Y-115236000D03*
X56634000Y-115236000D03*
D21*
X57296500Y-115073500D03*
X57296500Y-114573500D03*
X57296500Y-114073500D03*
X57296500Y-113573500D03*
D22*
X56634000Y-113411000D03*
X56134000Y-113411000D03*
X55634000Y-113411000D03*
D23*
X51100000Y-98425000D03*
X52070000Y-98425000D03*
D24*
X58166000Y-101900000D03*
X58166000Y-102870000D03*
D15*
X58420000Y-80010000D03*
D25*
X50546000Y-107470000D03*
X50546000Y-108430000D03*
D26*
X51640500Y-118938000D03*
X51640500Y-120838000D03*
X53515500Y-119888000D03*
D24*
X58166000Y-98956000D03*
X58166000Y-99926000D03*
D17*
X55400000Y-98298000D03*
X56360000Y-98298000D03*
D20*
X58039000Y-127048500D03*
X58039000Y-123648500D03*
D25*
X58928000Y-108613000D03*
X58928000Y-109573000D03*
D27*
X52003635Y-106876781D03*
X52286478Y-107159623D03*
X52569320Y-107442466D03*
X52852163Y-107725309D03*
X53135006Y-108008151D03*
X53417849Y-108290994D03*
X53700691Y-108573837D03*
X53983534Y-108856680D03*
X54266377Y-109139522D03*
X54549219Y-109422365D03*
D28*
X55450781Y-109422365D03*
X55733623Y-109139522D03*
X56016466Y-108856680D03*
X56299309Y-108573837D03*
X56582151Y-108290994D03*
X56864994Y-108008151D03*
X57147837Y-107725309D03*
X57430680Y-107442466D03*
X57713522Y-107159623D03*
X57996365Y-106876781D03*
D27*
X57996365Y-105975219D03*
X57713522Y-105692377D03*
X57430680Y-105409534D03*
X57147837Y-105126691D03*
X56864994Y-104843849D03*
X56582151Y-104561006D03*
X56299309Y-104278163D03*
X56016466Y-103995320D03*
X55733623Y-103712478D03*
X55450781Y-103429635D03*
D28*
X54549219Y-103429635D03*
X54266377Y-103712478D03*
X53983534Y-103995320D03*
X53700691Y-104278163D03*
X53417849Y-104561006D03*
X53135006Y-104843849D03*
X52852163Y-105126691D03*
X52569320Y-105409534D03*
X52286478Y-105692377D03*
X52003635Y-105975219D03*
D29*
X55000000Y-106426000D03*
D16*
X53975000Y-102108000D03*
X53015000Y-102108000D03*
D30*
X53554000Y-113431000D03*
X51054000Y-113431000D03*
D17*
X52888000Y-110617000D03*
X53848000Y-110617000D03*
D15*
X58420000Y-82550000D03*
D18*
X58291000Y-110490000D03*
X59311000Y-110490000D03*
D17*
X54765000Y-116332000D03*
X55725000Y-116332000D03*
D31*
X58801000Y-113309500D03*
X58801000Y-111734500D03*
D32*
X54740000Y-99738000D03*
X53340000Y-99738000D03*
X53340000Y-100838000D03*
X54740000Y-100838000D03*
D15*
X58420000Y-90170000D03*
D19*
X50800000Y-110462000D03*
X50800000Y-109502000D03*
D33*
X52718000Y-135000000D03*
D34*
X57518000Y-135000000D03*
D17*
X56670000Y-116332000D03*
X57630000Y-116332000D03*
D15*
X58420000Y-87630000D03*
D35*
X53400000Y-130900000D03*
X53883274Y-129733274D03*
X53883274Y-132066726D03*
X55050000Y-129250000D03*
D36*
X55050000Y-130900000D03*
D35*
X55050000Y-132550000D03*
X56216726Y-129733274D03*
X56216726Y-132066726D03*
X56700000Y-130900000D03*
D15*
X58420000Y-85090000D03*
D25*
X56007000Y-99850000D03*
X56007000Y-100810000D03*
D16*
X59154000Y-103886000D03*
X58194000Y-103886000D03*
D37*
X52072000Y-117602000D03*
X51052000Y-117602000D03*
D18*
X55497000Y-112268000D03*
X56517000Y-112268000D03*
D25*
X52705000Y-115110000D03*
X52705000Y-116070000D03*
D38*
X51308000Y-102870000D03*
X51308000Y-99720000D03*
D39*
X58420000Y-120757000D03*
X58420000Y-118217000D03*
M02*
