G04 #@! TF.GenerationSoftware,KiCad,Pcbnew,7.0.1-0*
G04 #@! TF.CreationDate,2023-08-24T20:12:00+02:00*
G04 #@! TF.ProjectId,spellcaster,7370656c-6c63-4617-9374-65722e6b6963,0.0.1*
G04 #@! TF.SameCoordinates,Original*
G04 #@! TF.FileFunction,Copper,L1,Top*
G04 #@! TF.FilePolarity,Positive*
%FSLAX46Y46*%
G04 Gerber Fmt 4.6, Leading zero omitted, Abs format (unit mm)*
G04 Created by KiCad (PCBNEW 7.0.1-0) date 2023-08-24 20:12:00*
%MOMM*%
%LPD*%
G01*
G04 APERTURE LIST*
G04 Aperture macros list*
%AMRoundRect*
0 Rectangle with rounded corners*
0 $1 Rounding radius*
0 $2 $3 $4 $5 $6 $7 $8 $9 X,Y pos of 4 corners*
0 Add a 4 corners polygon primitive as box body*
4,1,4,$2,$3,$4,$5,$6,$7,$8,$9,$2,$3,0*
0 Add four circle primitives for the rounded corners*
1,1,$1+$1,$2,$3*
1,1,$1+$1,$4,$5*
1,1,$1+$1,$6,$7*
1,1,$1+$1,$8,$9*
0 Add four rect primitives between the rounded corners*
20,1,$1+$1,$2,$3,$4,$5,0*
20,1,$1+$1,$4,$5,$6,$7,0*
20,1,$1+$1,$6,$7,$8,$9,0*
20,1,$1+$1,$8,$9,$2,$3,0*%
%AMRotRect*
0 Rectangle, with rotation*
0 The origin of the aperture is its center*
0 $1 length*
0 $2 width*
0 $3 Rotation angle, in degrees counterclockwise*
0 Add horizontal line*
21,1,$1,$2,0,0,$3*%
G04 Aperture macros list end*
G04 #@! TA.AperFunction,SMDPad,CuDef*
%ADD10C,1.500000*%
G04 #@! TD*
G04 #@! TA.AperFunction,SMDPad,CuDef*
%ADD11RoundRect,0.140000X0.140000X0.170000X-0.140000X0.170000X-0.140000X-0.170000X0.140000X-0.170000X0*%
G04 #@! TD*
G04 #@! TA.AperFunction,SMDPad,CuDef*
%ADD12RoundRect,0.140000X-0.140000X-0.170000X0.140000X-0.170000X0.140000X0.170000X-0.140000X0.170000X0*%
G04 #@! TD*
G04 #@! TA.AperFunction,SMDPad,CuDef*
%ADD13RoundRect,0.135000X-0.135000X-0.185000X0.135000X-0.185000X0.135000X0.185000X-0.135000X0.185000X0*%
G04 #@! TD*
G04 #@! TA.AperFunction,SMDPad,CuDef*
%ADD14RoundRect,0.140000X0.170000X-0.140000X0.170000X0.140000X-0.170000X0.140000X-0.170000X-0.140000X0*%
G04 #@! TD*
G04 #@! TA.AperFunction,SMDPad,CuDef*
%ADD15R,1.700000X0.800000*%
G04 #@! TD*
G04 #@! TA.AperFunction,SMDPad,CuDef*
%ADD16RoundRect,0.087500X-0.225000X-0.087500X0.225000X-0.087500X0.225000X0.087500X-0.225000X0.087500X0*%
G04 #@! TD*
G04 #@! TA.AperFunction,SMDPad,CuDef*
%ADD17RoundRect,0.087500X-0.087500X-0.225000X0.087500X-0.225000X0.087500X0.225000X-0.087500X0.225000X0*%
G04 #@! TD*
G04 #@! TA.AperFunction,SMDPad,CuDef*
%ADD18RoundRect,0.147500X-0.147500X-0.172500X0.147500X-0.172500X0.147500X0.172500X-0.147500X0.172500X0*%
G04 #@! TD*
G04 #@! TA.AperFunction,SMDPad,CuDef*
%ADD19RoundRect,0.147500X-0.172500X0.147500X-0.172500X-0.147500X0.172500X-0.147500X0.172500X0.147500X0*%
G04 #@! TD*
G04 #@! TA.AperFunction,SMDPad,CuDef*
%ADD20RoundRect,0.140000X-0.170000X0.140000X-0.170000X-0.140000X0.170000X-0.140000X0.170000X0.140000X0*%
G04 #@! TD*
G04 #@! TA.AperFunction,SMDPad,CuDef*
%ADD21RoundRect,0.150000X-0.587500X-0.150000X0.587500X-0.150000X0.587500X0.150000X-0.587500X0.150000X0*%
G04 #@! TD*
G04 #@! TA.AperFunction,SMDPad,CuDef*
%ADD22RoundRect,0.062500X-0.203293X-0.291682X0.291682X0.203293X0.203293X0.291682X-0.291682X-0.203293X0*%
G04 #@! TD*
G04 #@! TA.AperFunction,SMDPad,CuDef*
%ADD23RoundRect,0.062500X0.203293X-0.291682X0.291682X-0.203293X-0.203293X0.291682X-0.291682X0.203293X0*%
G04 #@! TD*
G04 #@! TA.AperFunction,SMDPad,CuDef*
%ADD24RotRect,3.600000X3.600000X45.000000*%
G04 #@! TD*
G04 #@! TA.AperFunction,SMDPad,CuDef*
%ADD25R,1.000000X1.800000*%
G04 #@! TD*
G04 #@! TA.AperFunction,SMDPad,CuDef*
%ADD26RoundRect,0.218750X0.256250X-0.218750X0.256250X0.218750X-0.256250X0.218750X-0.256250X-0.218750X0*%
G04 #@! TD*
G04 #@! TA.AperFunction,SMDPad,CuDef*
%ADD27R,0.900000X0.800000*%
G04 #@! TD*
G04 #@! TA.AperFunction,ComponentPad*
%ADD28RoundRect,0.250001X-0.899999X-0.899999X0.899999X-0.899999X0.899999X0.899999X-0.899999X0.899999X0*%
G04 #@! TD*
G04 #@! TA.AperFunction,ComponentPad*
%ADD29C,2.300000*%
G04 #@! TD*
G04 #@! TA.AperFunction,ComponentPad*
%ADD30C,0.700000*%
G04 #@! TD*
G04 #@! TA.AperFunction,ComponentPad*
%ADD31C,4.400000*%
G04 #@! TD*
G04 #@! TA.AperFunction,ConnectorPad*
%ADD32R,0.500000X0.500000*%
G04 #@! TD*
G04 #@! TA.AperFunction,ComponentPad*
%ADD33R,0.500000X0.900000*%
G04 #@! TD*
G04 #@! TA.AperFunction,SMDPad,CuDef*
%ADD34RoundRect,0.135000X0.135000X0.185000X-0.135000X0.185000X-0.135000X-0.185000X0.135000X-0.185000X0*%
G04 #@! TD*
G04 #@! TA.AperFunction,SMDPad,CuDef*
%ADD35RoundRect,0.225000X-0.375000X0.225000X-0.375000X-0.225000X0.375000X-0.225000X0.375000X0.225000X0*%
G04 #@! TD*
G04 #@! TA.AperFunction,SMDPad,CuDef*
%ADD36RoundRect,0.250000X0.700000X-0.275000X0.700000X0.275000X-0.700000X0.275000X-0.700000X-0.275000X0*%
G04 #@! TD*
G04 #@! TA.AperFunction,ComponentPad*
%ADD37C,1.400000*%
G04 #@! TD*
G04 #@! TA.AperFunction,ViaPad*
%ADD38C,0.800000*%
G04 #@! TD*
G04 #@! TA.AperFunction,Conductor*
%ADD39C,0.200000*%
G04 #@! TD*
G04 #@! TA.AperFunction,Conductor*
%ADD40C,0.500000*%
G04 #@! TD*
G04 #@! TA.AperFunction,Conductor*
%ADD41C,0.350000*%
G04 #@! TD*
G04 APERTURE END LIST*
G04 #@! TA.AperFunction,EtchedComponent*
G36*
X52540561Y-76978874D02*
G01*
X52571676Y-77003877D01*
X52589456Y-77038881D01*
X52595012Y-77079442D01*
X52386097Y-77079442D01*
X52395542Y-77038326D01*
X52415545Y-77002766D01*
X52447771Y-76978318D01*
X52493888Y-76969428D01*
X52540561Y-76978874D01*
G37*
G04 #@! TD.AperFunction*
G04 #@! TA.AperFunction,EtchedComponent*
G36*
X51974379Y-76985125D02*
G01*
X52009383Y-77018879D01*
X52030219Y-77070135D01*
X52037164Y-77133893D01*
X52031330Y-77197929D01*
X52013828Y-77245574D01*
X51984102Y-77275161D01*
X51941597Y-77285023D01*
X51897147Y-77279467D01*
X51861587Y-77265021D01*
X51861587Y-76978318D01*
X51891591Y-76975540D01*
X51924928Y-76973873D01*
X51974379Y-76985125D01*
G37*
G04 #@! TD.AperFunction*
G04 #@! TA.AperFunction,EtchedComponent*
G36*
X53131746Y-77805459D02*
G01*
X52531671Y-77805459D01*
X51861587Y-77805459D01*
X51351523Y-77805459D01*
X51159277Y-77805459D01*
X51066673Y-77805459D01*
X50997526Y-77802062D01*
X50929045Y-77791903D01*
X50861889Y-77775082D01*
X50796705Y-77751759D01*
X50734122Y-77722159D01*
X50674741Y-77686567D01*
X50619135Y-77645327D01*
X50567838Y-77598835D01*
X50545282Y-77573948D01*
X51724903Y-77573948D01*
X51861587Y-77573948D01*
X51861587Y-77377257D01*
X51916316Y-77396426D01*
X51969378Y-77402816D01*
X52017440Y-77397815D01*
X52059389Y-77382813D01*
X52123842Y-77326695D01*
X52146345Y-77286968D01*
X52162736Y-77240018D01*
X52172737Y-77187094D01*
X52175814Y-77133893D01*
X52244968Y-77133893D01*
X52249969Y-77196401D01*
X52264971Y-77250574D01*
X52289279Y-77296552D01*
X52322200Y-77334474D01*
X52363316Y-77364200D01*
X52412211Y-77385591D01*
X52468468Y-77398510D01*
X52531671Y-77402816D01*
X52621682Y-77394481D01*
X52697247Y-77373923D01*
X52678356Y-77257242D01*
X52615570Y-77275022D01*
X52537227Y-77283912D01*
X52476664Y-77276550D01*
X52428324Y-77254464D01*
X52396654Y-77219598D01*
X52386097Y-77173898D01*
X52725028Y-77173898D01*
X52726695Y-77150562D01*
X52727251Y-77122781D01*
X52720583Y-77042338D01*
X52700581Y-76975849D01*
X52667243Y-76923311D01*
X52621065Y-76885344D01*
X52562539Y-76862563D01*
X52491666Y-76854969D01*
X52445549Y-76859414D01*
X52400543Y-76872749D01*
X52358593Y-76894835D01*
X52321644Y-76925534D01*
X52290529Y-76964844D01*
X52266082Y-77012767D01*
X52250247Y-77069163D01*
X52244968Y-77133893D01*
X52175814Y-77133893D01*
X52176071Y-77129448D01*
X52168909Y-77051537D01*
X52147425Y-76985233D01*
X52111618Y-76930534D01*
X52062353Y-76889789D01*
X52000493Y-76865341D01*
X51926039Y-76857192D01*
X51872283Y-76859137D01*
X51817692Y-76864971D01*
X51766992Y-76873861D01*
X51724903Y-76884973D01*
X51724903Y-77573948D01*
X50545282Y-77573948D01*
X50521346Y-77547538D01*
X50480105Y-77491932D01*
X50444514Y-77432551D01*
X50414914Y-77369967D01*
X50411161Y-77359477D01*
X51159277Y-77359477D01*
X51235953Y-77387258D01*
X51288737Y-77398926D01*
X51351523Y-77402816D01*
X51412920Y-77399760D01*
X51463759Y-77390592D01*
X51537657Y-77357254D01*
X51578218Y-77307248D01*
X51590442Y-77246129D01*
X51573773Y-77176676D01*
X51530990Y-77130004D01*
X51472649Y-77099444D01*
X51410419Y-77077219D01*
X51370970Y-77063329D01*
X51338744Y-77048327D01*
X51316519Y-77031103D01*
X51308184Y-77009433D01*
X51326520Y-76982207D01*
X51397084Y-76969428D01*
X51487096Y-76982207D01*
X51545992Y-77000543D01*
X51567106Y-76884973D01*
X51490985Y-76862748D01*
X51445285Y-76856914D01*
X51395973Y-76854969D01*
X51341244Y-76858164D01*
X51294849Y-76867749D01*
X51225396Y-76903309D01*
X51185391Y-76955537D01*
X51172612Y-77018323D01*
X51189281Y-77086665D01*
X51231508Y-77131671D01*
X51288182Y-77161119D01*
X51349301Y-77181677D01*
X51389861Y-77195012D01*
X51424310Y-77208903D01*
X51447646Y-77226127D01*
X51455981Y-77250574D01*
X51429311Y-77280023D01*
X51352634Y-77287246D01*
X51263179Y-77273911D01*
X51180391Y-77245018D01*
X51159277Y-77359477D01*
X50411161Y-77359477D01*
X50391591Y-77304784D01*
X50374769Y-77237628D01*
X50364611Y-77169147D01*
X50361214Y-77100000D01*
X50364611Y-77030853D01*
X50374769Y-76962372D01*
X50391591Y-76895216D01*
X50414914Y-76830033D01*
X50444514Y-76767449D01*
X50461326Y-76739399D01*
X52806149Y-76739399D01*
X52950612Y-76739399D01*
X52950612Y-77182788D01*
X52961447Y-77277661D01*
X52993951Y-77346698D01*
X53050069Y-77388786D01*
X53131746Y-77402816D01*
X53193420Y-77398371D01*
X53239537Y-77387814D01*
X53270096Y-77376146D01*
X53285098Y-77368367D01*
X53267318Y-77258353D01*
X53230647Y-77272799D01*
X53161749Y-77283912D01*
X53108409Y-77265021D01*
X53087296Y-77192789D01*
X53087296Y-76739399D01*
X53361774Y-76739399D01*
X53506237Y-76739399D01*
X53506237Y-77182788D01*
X53517072Y-77277661D01*
X53549576Y-77346698D01*
X53605694Y-77388786D01*
X53687371Y-77402816D01*
X53749045Y-77398371D01*
X53795162Y-77387814D01*
X53825721Y-77376146D01*
X53840723Y-77368367D01*
X53822943Y-77258353D01*
X53786272Y-77272799D01*
X53717374Y-77283912D01*
X53664034Y-77265021D01*
X53642921Y-77192789D01*
X53642921Y-76626052D01*
X53361774Y-76626052D01*
X53361774Y-76739399D01*
X53087296Y-76739399D01*
X53087296Y-76626052D01*
X52806149Y-76626052D01*
X52806149Y-76739399D01*
X50461326Y-76739399D01*
X50480105Y-76708068D01*
X50521346Y-76652462D01*
X50567838Y-76601165D01*
X50619135Y-76554673D01*
X50674741Y-76513433D01*
X50734122Y-76477841D01*
X50796705Y-76448241D01*
X50861889Y-76424918D01*
X50929045Y-76408097D01*
X50997526Y-76397938D01*
X51066673Y-76394541D01*
X51159277Y-76394541D01*
X53840723Y-76394541D01*
X53933327Y-76394541D01*
X54002474Y-76397938D01*
X54070955Y-76408097D01*
X54138111Y-76424918D01*
X54203295Y-76448241D01*
X54265878Y-76477841D01*
X54325259Y-76513433D01*
X54380865Y-76554673D01*
X54432162Y-76601165D01*
X54478654Y-76652462D01*
X54519895Y-76708068D01*
X54555486Y-76767449D01*
X54585086Y-76830033D01*
X54608409Y-76895216D01*
X54625231Y-76962372D01*
X54635389Y-77030853D01*
X54638786Y-77100000D01*
X54635389Y-77169147D01*
X54625231Y-77237628D01*
X54608409Y-77304784D01*
X54585086Y-77369967D01*
X54555486Y-77432551D01*
X54519895Y-77491932D01*
X54478654Y-77547538D01*
X54432162Y-77598835D01*
X54380865Y-77645327D01*
X54325259Y-77686567D01*
X54265878Y-77722159D01*
X54203295Y-77751759D01*
X54138111Y-77775082D01*
X54070955Y-77791903D01*
X54002474Y-77802062D01*
X53933327Y-77805459D01*
X53840723Y-77805459D01*
X53687371Y-77805459D01*
X53131746Y-77805459D01*
G37*
G04 #@! TD.AperFunction*
G04 #@! TA.AperFunction,EtchedComponent*
G36*
X58049981Y-129396888D02*
G01*
X57854719Y-129396888D01*
X57854719Y-128577737D01*
X58049981Y-128577737D01*
X58049981Y-128873012D01*
X58092844Y-128873012D01*
X58178966Y-128863289D01*
X58237306Y-128834119D01*
X58281756Y-128723787D01*
X58269850Y-128656319D01*
X58234131Y-128609488D01*
X58178966Y-128582103D01*
X58108719Y-128572975D01*
X58081731Y-128573769D01*
X58049981Y-128577737D01*
X57854719Y-128577737D01*
X57854719Y-128428512D01*
X57917425Y-128416606D01*
X57986481Y-128408669D01*
X58053156Y-128404700D01*
X58108719Y-128403112D01*
X58188887Y-128407875D01*
X58261119Y-128422162D01*
X58324619Y-128446372D01*
X58378594Y-128480900D01*
X58454000Y-128581706D01*
X58473645Y-128648183D01*
X58480194Y-128725375D01*
X58471463Y-128807131D01*
X58445269Y-128880950D01*
X58398834Y-128942466D01*
X58329381Y-128987313D01*
X58386531Y-129078594D01*
X58445269Y-129183369D01*
X58500037Y-129292906D01*
X58545281Y-129396888D01*
X58340494Y-129396888D01*
X58301005Y-129303423D01*
X58255562Y-129213531D01*
X58205358Y-129124830D01*
X58151581Y-129034937D01*
X58049981Y-129034937D01*
X58049981Y-129396888D01*
G37*
G04 #@! TD.AperFunction*
G04 #@! TA.AperFunction,EtchedComponent*
G36*
X50561000Y-94984000D02*
G01*
X50561000Y-94541267D01*
X55563018Y-94541267D01*
X55570908Y-94589353D01*
X55587814Y-94622245D01*
X55624584Y-94657185D01*
X55669378Y-94676847D01*
X55717785Y-94681583D01*
X55765395Y-94671742D01*
X55807797Y-94647674D01*
X55840581Y-94609731D01*
X55844935Y-94601819D01*
X55857043Y-94559156D01*
X55856300Y-94510637D01*
X55843400Y-94465122D01*
X55832787Y-94446511D01*
X55797553Y-94412868D01*
X55752368Y-94392309D01*
X55702842Y-94385778D01*
X55654583Y-94394218D01*
X55622357Y-94411112D01*
X55589687Y-94446372D01*
X55569592Y-94491682D01*
X55563018Y-94541267D01*
X50561000Y-94541267D01*
X50561000Y-89984000D01*
X53201000Y-89984000D01*
X53201000Y-87984000D01*
X50561000Y-87984000D01*
X50561000Y-85284000D01*
X53201000Y-85284000D01*
X53201000Y-83284000D01*
X50561000Y-83284000D01*
X50561000Y-80584000D01*
X55001000Y-80584000D01*
X55001000Y-81084000D01*
X51061000Y-81084000D01*
X51061000Y-82784000D01*
X53701000Y-82784000D01*
X53701000Y-85784000D01*
X51061000Y-85784000D01*
X51061000Y-87484000D01*
X53701000Y-87484000D01*
X53701000Y-90484000D01*
X51061000Y-90484000D01*
X51061000Y-92184000D01*
X55961000Y-92184000D01*
X55961000Y-92684000D01*
X51061000Y-92684000D01*
X51061000Y-94084000D01*
X55961000Y-94084000D01*
X55961000Y-94984000D01*
X55717785Y-94984000D01*
X50561000Y-94984000D01*
G37*
G04 #@! TD.AperFunction*
G04 #@! TA.AperFunction,EtchedComponent*
G36*
X51765062Y-129164319D02*
G01*
X51720612Y-129391331D01*
X51517412Y-129391331D01*
X51545416Y-129277190D01*
X51573546Y-129167176D01*
X51601804Y-129061290D01*
X51618232Y-129002394D01*
X51801575Y-129002394D01*
X51993662Y-129002394D01*
X51974612Y-128900794D01*
X51953181Y-128803163D01*
X51927781Y-128704737D01*
X51898412Y-128599169D01*
X51869044Y-128704737D01*
X51843644Y-128803163D01*
X51821419Y-128900794D01*
X51801575Y-129002394D01*
X51618232Y-129002394D01*
X51630188Y-128959531D01*
X51658700Y-128861900D01*
X51694121Y-128743979D01*
X51728947Y-128629133D01*
X51763177Y-128517363D01*
X51796812Y-128408669D01*
X52009537Y-128408669D01*
X52044413Y-128518256D01*
X52079189Y-128631117D01*
X52113866Y-128747253D01*
X52148444Y-128866662D01*
X52175908Y-128965119D01*
X52203054Y-129066815D01*
X52229883Y-129171748D01*
X52256394Y-129279921D01*
X52282587Y-129391331D01*
X52073037Y-129391331D01*
X52027000Y-129164319D01*
X51801575Y-129164319D01*
X51765062Y-129164319D01*
G37*
G04 #@! TD.AperFunction*
G04 #@! TA.AperFunction,EtchedComponent*
G36*
X54147142Y-78814275D02*
G01*
X54180480Y-78841064D01*
X54199530Y-78878569D01*
X54205483Y-78922027D01*
X53981645Y-78922027D01*
X53991766Y-78877973D01*
X54013197Y-78839873D01*
X54047725Y-78813680D01*
X54097136Y-78804155D01*
X54147142Y-78814275D01*
G37*
G04 #@! TD.AperFunction*
G04 #@! TA.AperFunction,EtchedComponent*
G36*
X52357633Y-79014300D02*
G01*
X52392161Y-79018467D01*
X52392161Y-79147055D01*
X52352870Y-79150031D01*
X52306436Y-79150627D01*
X52232617Y-79134553D01*
X52204042Y-79080380D01*
X52213567Y-79045852D01*
X52239166Y-79025611D01*
X52276670Y-79015491D01*
X52320723Y-79012514D01*
X52357633Y-79014300D01*
G37*
G04 #@! TD.AperFunction*
G04 #@! TA.AperFunction,EtchedComponent*
G36*
X54137617Y-79516545D02*
G01*
X53581595Y-79516545D01*
X52873173Y-79516545D01*
X52295720Y-79516545D01*
X51788514Y-79516545D01*
X51464664Y-79516545D01*
X51365445Y-79516545D01*
X51305013Y-79513576D01*
X51245163Y-79504699D01*
X51186472Y-79489997D01*
X51129504Y-79469614D01*
X51074808Y-79443744D01*
X51022911Y-79412639D01*
X50974313Y-79376596D01*
X50929482Y-79335963D01*
X50888849Y-79291132D01*
X50852807Y-79242534D01*
X50821701Y-79190637D01*
X50795832Y-79135942D01*
X50775448Y-79078974D01*
X50760747Y-79020282D01*
X50754120Y-78975605D01*
X51464664Y-78975605D01*
X51469278Y-79035434D01*
X51483119Y-79091095D01*
X51506782Y-79141102D01*
X51540864Y-79183964D01*
X51585661Y-79219088D01*
X51641472Y-79245877D01*
X51708891Y-79262843D01*
X51788514Y-79268498D01*
X51844176Y-79266564D01*
X51892098Y-79260759D01*
X51967108Y-79241114D01*
X51945677Y-79120861D01*
X51877216Y-79136339D01*
X51805183Y-79141102D01*
X51715737Y-79130088D01*
X51656950Y-79097048D01*
X51648802Y-79083952D01*
X52059977Y-79083952D01*
X52076645Y-79170272D01*
X52124270Y-79227422D01*
X52198684Y-79258973D01*
X52295720Y-79268498D01*
X52370432Y-79266117D01*
X52437405Y-79258973D01*
X52532655Y-79242305D01*
X52532655Y-79222064D01*
X52667195Y-79222064D01*
X52749348Y-79251830D01*
X52805903Y-79264331D01*
X52873173Y-79268498D01*
X52938955Y-79265224D01*
X52993427Y-79255402D01*
X53072603Y-79219683D01*
X53116061Y-79166105D01*
X53129158Y-79100620D01*
X53111298Y-79026206D01*
X53065459Y-78976200D01*
X53002952Y-78943458D01*
X52936277Y-78919645D01*
X52894009Y-78904763D01*
X52859481Y-78888689D01*
X52835669Y-78870234D01*
X52826739Y-78847017D01*
X52846384Y-78817847D01*
X52921989Y-78804155D01*
X53018430Y-78817847D01*
X53081533Y-78837492D01*
X53085231Y-78817252D01*
X53241077Y-78817252D01*
X53368473Y-78817252D01*
X53368473Y-79047042D01*
X53372045Y-79110592D01*
X53382761Y-79160747D01*
X53424433Y-79228017D01*
X53491108Y-79260164D01*
X53581595Y-79268498D01*
X53672678Y-79261355D01*
X53760189Y-79237542D01*
X53739948Y-79111336D01*
X53702444Y-79126814D01*
X53669106Y-79135744D01*
X53635769Y-79139911D01*
X53598264Y-79141102D01*
X53563736Y-79137530D01*
X53537542Y-79123242D01*
X53520873Y-79093477D01*
X53514920Y-79043470D01*
X53514920Y-78980367D01*
X53830436Y-78980367D01*
X53835794Y-79047340D01*
X53851867Y-79105383D01*
X53877912Y-79154645D01*
X53913184Y-79195275D01*
X53957238Y-79227124D01*
X54009625Y-79250044D01*
X54069900Y-79263885D01*
X54137617Y-79268498D01*
X54234058Y-79259569D01*
X54249374Y-79255402D01*
X54494805Y-79255402D01*
X54642442Y-79255402D01*
X54642442Y-78839873D01*
X54703164Y-78828563D01*
X54763886Y-78825586D01*
X54796033Y-78826777D01*
X54835323Y-78830944D01*
X54875209Y-78837492D01*
X54909142Y-78844636D01*
X54935336Y-78708905D01*
X54889497Y-78697594D01*
X54838895Y-78690450D01*
X54791866Y-78686283D01*
X54757933Y-78685092D01*
X54680989Y-78688366D01*
X54614463Y-78698189D01*
X54553889Y-78713370D01*
X54494805Y-78732717D01*
X54494805Y-79255402D01*
X54249374Y-79255402D01*
X54315020Y-79237542D01*
X54294780Y-79112527D01*
X54227509Y-79131577D01*
X54143570Y-79141102D01*
X54078681Y-79133214D01*
X54026889Y-79109550D01*
X53992956Y-79072194D01*
X53981645Y-79023230D01*
X54344786Y-79023230D01*
X54346572Y-78998227D01*
X54347167Y-78968461D01*
X54340023Y-78882273D01*
X54318592Y-78811034D01*
X54282873Y-78754744D01*
X54233396Y-78714064D01*
X54170690Y-78689656D01*
X54094755Y-78681520D01*
X54045344Y-78686283D01*
X53997123Y-78700570D01*
X53952177Y-78724234D01*
X53912589Y-78757125D01*
X53879252Y-78799243D01*
X53853058Y-78850589D01*
X53836091Y-78911013D01*
X53830436Y-78980367D01*
X53514920Y-78980367D01*
X53514920Y-78817252D01*
X53749473Y-78817252D01*
X53749473Y-78695808D01*
X53514920Y-78695808D01*
X53514920Y-78531502D01*
X53368473Y-78555314D01*
X53368473Y-78695808D01*
X53241077Y-78695808D01*
X53241077Y-78817252D01*
X53085231Y-78817252D01*
X53104155Y-78713667D01*
X53022597Y-78689855D01*
X52973632Y-78683604D01*
X52920798Y-78681520D01*
X52862160Y-78684943D01*
X52812452Y-78695213D01*
X52738038Y-78733313D01*
X52695175Y-78789272D01*
X52681483Y-78856542D01*
X52699342Y-78929766D01*
X52744586Y-78977986D01*
X52805308Y-79009538D01*
X52870792Y-79031564D01*
X52914250Y-79045852D01*
X52951159Y-79060734D01*
X52976163Y-79079189D01*
X52985092Y-79105383D01*
X52956517Y-79136934D01*
X52874364Y-79144673D01*
X52778519Y-79130386D01*
X52689817Y-79099430D01*
X52667195Y-79222064D01*
X52532655Y-79222064D01*
X52532655Y-78908930D01*
X52520748Y-78814275D01*
X52481458Y-78742838D01*
X52408234Y-78697594D01*
X52356591Y-78685539D01*
X52293339Y-78681520D01*
X52240654Y-78683455D01*
X52189755Y-78689259D01*
X52112364Y-78706523D01*
X52132605Y-78824395D01*
X52195113Y-78810108D01*
X52275480Y-78804155D01*
X52330248Y-78811150D01*
X52365967Y-78832134D01*
X52392161Y-78901786D01*
X52392161Y-78919645D01*
X52344834Y-78912502D01*
X52290958Y-78910120D01*
X52204042Y-78919050D01*
X52130223Y-78948220D01*
X52079027Y-79001798D01*
X52059977Y-79083952D01*
X51648802Y-79083952D01*
X51624357Y-79044661D01*
X51613492Y-78975605D01*
X51623017Y-78908930D01*
X51653973Y-78855947D01*
X51710528Y-78821419D01*
X51798039Y-78808917D01*
X51872453Y-78815466D01*
X51925436Y-78830348D01*
X51957583Y-78712477D01*
X51875430Y-78688664D01*
X51784942Y-78681520D01*
X51707403Y-78687325D01*
X51641472Y-78704738D01*
X51586554Y-78732122D01*
X51542055Y-78767841D01*
X51507824Y-78811150D01*
X51483714Y-78861305D01*
X51469427Y-78916669D01*
X51464664Y-78975605D01*
X50754120Y-78975605D01*
X50751869Y-78960432D01*
X50748900Y-78900000D01*
X50751869Y-78839568D01*
X50760747Y-78779718D01*
X50775448Y-78721026D01*
X50795832Y-78664058D01*
X50821701Y-78609363D01*
X50852807Y-78557466D01*
X50888849Y-78508868D01*
X50929482Y-78464037D01*
X50974313Y-78423404D01*
X51022911Y-78387361D01*
X51074808Y-78356256D01*
X51129504Y-78330386D01*
X51186472Y-78310003D01*
X51245163Y-78295301D01*
X51305013Y-78286424D01*
X51365445Y-78283455D01*
X51464664Y-78283455D01*
X54935336Y-78283455D01*
X55034555Y-78283455D01*
X55094987Y-78286424D01*
X55154837Y-78295301D01*
X55213528Y-78310003D01*
X55270496Y-78330386D01*
X55325192Y-78356256D01*
X55377089Y-78387361D01*
X55425687Y-78423404D01*
X55470518Y-78464037D01*
X55511151Y-78508868D01*
X55547193Y-78557466D01*
X55578299Y-78609363D01*
X55604168Y-78664058D01*
X55624552Y-78721026D01*
X55639253Y-78779718D01*
X55648131Y-78839568D01*
X55651100Y-78900000D01*
X55648131Y-78960432D01*
X55639253Y-79020282D01*
X55624552Y-79078974D01*
X55604168Y-79135942D01*
X55578299Y-79190637D01*
X55547193Y-79242534D01*
X55511151Y-79291132D01*
X55470518Y-79335963D01*
X55425687Y-79376596D01*
X55377089Y-79412639D01*
X55325192Y-79443744D01*
X55270496Y-79469614D01*
X55213528Y-79489997D01*
X55154837Y-79504699D01*
X55094987Y-79513576D01*
X55034555Y-79516545D01*
X54935336Y-79516545D01*
X54642442Y-79516545D01*
X54137617Y-79516545D01*
G37*
G04 #@! TD.AperFunction*
D10*
X58420000Y-77470000D03*
D11*
X59154000Y-100965000D03*
X58194000Y-100965000D03*
D12*
X55400000Y-97282000D03*
X56360000Y-97282000D03*
X53015000Y-98425000D03*
X53975000Y-98425000D03*
D13*
X55497000Y-111252000D03*
X56517000Y-111252000D03*
D11*
X53947000Y-97409000D03*
X52987000Y-97409000D03*
D14*
X51689000Y-116070000D03*
X51689000Y-115110000D03*
D15*
X51943000Y-127048500D03*
X51943000Y-123648500D03*
D16*
X54971500Y-113573500D03*
X54971500Y-114073500D03*
X54971500Y-114573500D03*
X54971500Y-115073500D03*
D17*
X55634000Y-115236000D03*
X56134000Y-115236000D03*
X56634000Y-115236000D03*
D16*
X57296500Y-115073500D03*
X57296500Y-114573500D03*
X57296500Y-114073500D03*
X57296500Y-113573500D03*
D17*
X56634000Y-113411000D03*
X56134000Y-113411000D03*
X55634000Y-113411000D03*
D18*
X51100000Y-98425000D03*
X52070000Y-98425000D03*
D19*
X58166000Y-101900000D03*
X58166000Y-102870000D03*
D10*
X58420000Y-80010000D03*
D20*
X50546000Y-107470000D03*
X50546000Y-108430000D03*
D21*
X51640500Y-118938000D03*
X51640500Y-120838000D03*
X53515500Y-119888000D03*
D19*
X58166000Y-98956000D03*
X58166000Y-99926000D03*
D12*
X55400000Y-98298000D03*
X56360000Y-98298000D03*
D15*
X58039000Y-127048500D03*
X58039000Y-123648500D03*
D20*
X58928000Y-108613000D03*
X58928000Y-109573000D03*
D22*
X52003635Y-106876781D03*
X52286478Y-107159623D03*
X52569320Y-107442466D03*
X52852163Y-107725309D03*
X53135006Y-108008151D03*
X53417849Y-108290994D03*
X53700691Y-108573837D03*
X53983534Y-108856680D03*
X54266377Y-109139522D03*
X54549219Y-109422365D03*
D23*
X55450781Y-109422365D03*
X55733623Y-109139522D03*
X56016466Y-108856680D03*
X56299309Y-108573837D03*
X56582151Y-108290994D03*
X56864994Y-108008151D03*
X57147837Y-107725309D03*
X57430680Y-107442466D03*
X57713522Y-107159623D03*
X57996365Y-106876781D03*
D22*
X57996365Y-105975219D03*
X57713522Y-105692377D03*
X57430680Y-105409534D03*
X57147837Y-105126691D03*
X56864994Y-104843849D03*
X56582151Y-104561006D03*
X56299309Y-104278163D03*
X56016466Y-103995320D03*
X55733623Y-103712478D03*
X55450781Y-103429635D03*
D23*
X54549219Y-103429635D03*
X54266377Y-103712478D03*
X53983534Y-103995320D03*
X53700691Y-104278163D03*
X53417849Y-104561006D03*
X53135006Y-104843849D03*
X52852163Y-105126691D03*
X52569320Y-105409534D03*
X52286478Y-105692377D03*
X52003635Y-105975219D03*
D24*
X55000000Y-106426000D03*
D11*
X53975000Y-102108000D03*
X53015000Y-102108000D03*
D25*
X53554000Y-113431000D03*
X51054000Y-113431000D03*
D12*
X52888000Y-110617000D03*
X53848000Y-110617000D03*
D10*
X58420000Y-82550000D03*
D13*
X58291000Y-110490000D03*
X59311000Y-110490000D03*
D12*
X54765000Y-116332000D03*
X55725000Y-116332000D03*
D26*
X58801000Y-113309500D03*
X58801000Y-111734500D03*
D27*
X54740000Y-99738000D03*
X53340000Y-99738000D03*
X53340000Y-100838000D03*
X54740000Y-100838000D03*
D10*
X58420000Y-90170000D03*
D14*
X50800000Y-110462000D03*
X50800000Y-109502000D03*
D28*
X52718000Y-135000000D03*
D29*
X57518000Y-135000000D03*
D12*
X56670000Y-116332000D03*
X57630000Y-116332000D03*
D10*
X58420000Y-87630000D03*
D30*
X53400000Y-130900000D03*
X53883274Y-129733274D03*
X53883274Y-132066726D03*
X55050000Y-129250000D03*
D31*
X55050000Y-130900000D03*
D30*
X55050000Y-132550000D03*
X56216726Y-129733274D03*
X56216726Y-132066726D03*
X56700000Y-130900000D03*
D10*
X58420000Y-85090000D03*
D20*
X56007000Y-99850000D03*
X56007000Y-100810000D03*
D32*
X55711000Y-92434000D03*
D33*
X55711000Y-94534000D03*
D11*
X59154000Y-103886000D03*
X58194000Y-103886000D03*
D34*
X52072000Y-117602000D03*
X51052000Y-117602000D03*
D13*
X55497000Y-112268000D03*
X56517000Y-112268000D03*
D35*
X55753000Y-118238000D03*
X55753000Y-121538000D03*
D20*
X52705000Y-115110000D03*
X52705000Y-116070000D03*
D36*
X51308000Y-102870000D03*
X51308000Y-99720000D03*
D37*
X58420000Y-120757000D03*
X58420000Y-118217000D03*
D38*
X59500000Y-116800000D03*
X58500000Y-115000000D03*
X57531000Y-112268000D03*
X55000000Y-127000000D03*
X55000000Y-127900000D03*
X50800000Y-105918000D03*
X57000000Y-78790800D03*
X55000000Y-126100000D03*
X53409009Y-109792843D03*
X59563000Y-107823000D03*
X55753000Y-119380000D03*
X57531000Y-111379000D03*
X53086000Y-103124000D03*
X55753000Y-120269000D03*
X59563000Y-112522000D03*
X59436000Y-102362000D03*
X59563000Y-109601000D03*
X50710500Y-111760000D03*
X55118000Y-110363000D03*
X59000000Y-131000000D03*
X51000000Y-132000000D03*
X57997243Y-132000000D03*
X59563000Y-78740000D03*
X59563000Y-89027000D03*
X59309000Y-97917000D03*
X59309000Y-98933000D03*
X59563000Y-81280000D03*
X55499000Y-102235000D03*
X55880000Y-106426000D03*
X59000000Y-132000000D03*
X54864000Y-106426000D03*
X51000000Y-131000000D03*
X50546000Y-97282000D03*
X53848000Y-106426000D03*
X59200000Y-115900000D03*
X59563000Y-83820000D03*
X59563000Y-86233000D03*
X59309000Y-99949000D03*
X51998259Y-132000000D03*
X51308000Y-104140000D03*
X52070000Y-97282000D03*
X57023000Y-100838000D03*
X59436000Y-91440000D03*
X58039000Y-125730000D03*
X57658000Y-109728000D03*
X59436000Y-106045000D03*
X59182000Y-106934000D03*
X57495500Y-83820000D03*
X58620085Y-107636394D03*
X56896000Y-81280000D03*
X52324000Y-104140000D03*
X51943000Y-125857000D03*
X53975000Y-115189000D03*
X52451000Y-109728000D03*
X56261112Y-114425338D03*
X52451000Y-108712000D03*
X53213000Y-118745000D03*
X52450500Y-113411000D03*
X59436000Y-105029000D03*
D39*
X58426500Y-115073500D02*
X58500000Y-115000000D01*
X57296500Y-115073500D02*
X58426500Y-115073500D01*
X55725000Y-116332000D02*
X55725000Y-118210000D01*
X55725000Y-118210000D02*
X55753000Y-118238000D01*
X54266377Y-109139522D02*
X54062330Y-109139522D01*
X54266377Y-109139522D02*
X54266376Y-109139522D01*
X54062330Y-109139522D02*
X53409009Y-109792843D01*
X58928000Y-108613000D02*
X58928000Y-108458000D01*
D40*
X55753000Y-119380000D02*
X55753000Y-120269000D01*
D39*
X58928000Y-108458000D02*
X59563000Y-107823000D01*
X52003635Y-106012365D02*
X50546000Y-107470000D01*
X55450781Y-103429635D02*
X55296635Y-103429635D01*
D40*
X55753000Y-118238000D02*
X55753000Y-119380000D01*
D39*
X52888000Y-110313852D02*
X53409009Y-109792843D01*
X52888000Y-110617000D02*
X52888000Y-110313852D01*
X58601214Y-108613000D02*
X57430680Y-107442466D01*
X56634000Y-112385000D02*
X56517000Y-112268000D01*
X58928000Y-108613000D02*
X58601214Y-108613000D01*
X55296635Y-103429635D02*
X53975000Y-102108000D01*
X56517000Y-111252000D02*
X57404000Y-111252000D01*
X57404000Y-111252000D02*
X57531000Y-111379000D01*
X50546000Y-106172000D02*
X50800000Y-105918000D01*
X52003635Y-105975219D02*
X52003635Y-106012365D01*
X56634000Y-113411000D02*
X56634000Y-112385000D01*
X57200800Y-78790800D02*
X58420000Y-80010000D01*
X56517000Y-112268000D02*
X56517000Y-111252000D01*
X57531000Y-112268000D02*
X56517000Y-112268000D01*
X50546000Y-107470000D02*
X50546000Y-106172000D01*
X53975000Y-102108000D02*
X53975000Y-102235000D01*
X57000000Y-78790800D02*
X57200800Y-78790800D01*
X53975000Y-102235000D02*
X53086000Y-103124000D01*
X54266376Y-109139522D02*
X53983534Y-108856680D01*
X53848000Y-106122528D02*
X53848000Y-106426000D01*
X56134000Y-115236000D02*
X56634000Y-115236000D01*
X56864994Y-104843849D02*
X55282843Y-106426000D01*
X50546000Y-108430000D02*
X50200000Y-108776000D01*
X55282843Y-106426000D02*
X55000000Y-106426000D01*
X54737000Y-101473000D02*
X54737000Y-100838000D01*
X54727000Y-111496000D02*
X53848000Y-110617000D01*
X50200000Y-111249500D02*
X50710500Y-111760000D01*
X54971500Y-113573500D02*
X54727000Y-113329000D01*
X50200000Y-108776000D02*
X50200000Y-111249500D01*
X56007000Y-99850000D02*
X56007000Y-98905000D01*
D40*
X59154000Y-100104000D02*
X59309000Y-99949000D01*
D39*
X53015000Y-98425000D02*
X53015000Y-99413000D01*
D40*
X59154000Y-100965000D02*
X59154000Y-100104000D01*
D39*
X52852163Y-105126691D02*
X53848000Y-106122528D01*
X53015000Y-99413000D02*
X53340000Y-99738000D01*
X56007000Y-98905000D02*
X55400000Y-98298000D01*
X55499000Y-102235000D02*
X54737000Y-101473000D01*
X54727000Y-113329000D02*
X54727000Y-111496000D01*
X51590000Y-115110000D02*
X51054000Y-114574000D01*
X51562000Y-112014000D02*
X51562000Y-112923000D01*
X51054000Y-114574000D02*
X51054000Y-113431000D01*
X52286478Y-107159623D02*
X51551000Y-107895101D01*
X51562000Y-112923000D02*
X51054000Y-113431000D01*
X51551000Y-107895101D02*
X51551000Y-112003000D01*
X51551000Y-112003000D02*
X51562000Y-112014000D01*
X53554000Y-112482000D02*
X53554000Y-113431000D01*
X53467000Y-114574000D02*
X53467000Y-113518000D01*
X51851000Y-108160786D02*
X51851000Y-110779000D01*
X52931000Y-115110000D02*
X53467000Y-114574000D01*
X51851000Y-110779000D02*
X53554000Y-112482000D01*
X52569320Y-107442466D02*
X51851000Y-108160786D01*
X53990000Y-98440000D02*
X53975000Y-98425000D01*
X53582000Y-100838000D02*
X53340000Y-100838000D01*
X55733623Y-103712478D02*
X56004963Y-103441138D01*
X53390000Y-100838000D02*
X53990000Y-100238000D01*
X54725000Y-102350000D02*
X54725000Y-101981000D01*
X53340000Y-100838000D02*
X53390000Y-100838000D01*
X54725000Y-101981000D02*
X53582000Y-100838000D01*
X55210000Y-102835000D02*
X54725000Y-102350000D01*
X56004963Y-103441138D02*
X56004963Y-102994964D01*
X55844999Y-102835000D02*
X55210000Y-102835000D01*
X56004963Y-102994964D02*
X55844999Y-102835000D01*
X53990000Y-100238000D02*
X53990000Y-98440000D01*
X50800000Y-109502000D02*
X51056000Y-109246000D01*
X51056000Y-107824416D02*
X52003635Y-106876781D01*
X51056000Y-109246000D02*
X51056000Y-107824416D01*
X54740000Y-98202000D02*
X54740000Y-99738000D01*
X56628491Y-102475491D02*
X55390000Y-101237000D01*
X54790000Y-99738000D02*
X54740000Y-99738000D01*
X55390000Y-101237000D02*
X55390000Y-100338000D01*
X56016466Y-103995320D02*
X56628491Y-103383295D01*
X53947000Y-97409000D02*
X54740000Y-98202000D01*
X55390000Y-100338000D02*
X54790000Y-99738000D01*
X56628491Y-103383295D02*
X56628491Y-102475491D01*
D41*
X58194000Y-102898000D02*
X58166000Y-102870000D01*
X58194000Y-104080528D02*
X58194000Y-103886000D01*
X57147837Y-105126691D02*
X58194000Y-104080528D01*
X58194000Y-103886000D02*
X58194000Y-102898000D01*
D39*
X56007000Y-101346000D02*
X56007000Y-100810000D01*
X56299309Y-104278163D02*
X56928491Y-103648981D01*
X56928491Y-102267491D02*
X56007000Y-101346000D01*
X56928491Y-103648981D02*
X56928491Y-102267491D01*
X57368500Y-103774657D02*
X57368500Y-102199500D01*
X56388000Y-98326000D02*
X56360000Y-98298000D01*
X56582151Y-104561006D02*
X57368500Y-103774657D01*
X52569320Y-105409534D02*
X52569320Y-105401320D01*
X56360000Y-98298000D02*
X56360000Y-97282000D01*
X57023000Y-100838000D02*
X57023000Y-99695000D01*
X57023000Y-99695000D02*
X56388000Y-99060000D01*
X52070000Y-97282000D02*
X52070000Y-98425000D01*
X56388000Y-99060000D02*
X56388000Y-98326000D01*
X57023000Y-101854000D02*
X57023000Y-100838000D01*
X52569320Y-105401320D02*
X51308000Y-104140000D01*
X57368500Y-102199500D02*
X57023000Y-101854000D01*
X59309000Y-110492000D02*
X59311000Y-110490000D01*
X58801000Y-111506000D02*
X59309000Y-110998000D01*
X58801000Y-111734500D02*
X58801000Y-111506000D01*
X59309000Y-110998000D02*
X59309000Y-110492000D01*
X58420000Y-90424000D02*
X59436000Y-91440000D01*
X58420000Y-90170000D02*
X58420000Y-90424000D01*
X58039000Y-125730000D02*
X58039000Y-123648500D01*
X56864994Y-108008151D02*
X57658000Y-108801157D01*
X57658000Y-108801157D02*
X57658000Y-109728000D01*
X57495500Y-84165500D02*
X58420000Y-85090000D01*
X57996365Y-106876781D02*
X58053584Y-106934000D01*
X58053584Y-106934000D02*
X59182000Y-106934000D01*
X57495500Y-83820000D02*
X57495500Y-84165500D01*
X58190293Y-107636394D02*
X58620085Y-107636394D01*
X57713522Y-107159623D02*
X58190293Y-107636394D01*
X57150000Y-81280000D02*
X58420000Y-82550000D01*
X56896000Y-81280000D02*
X57150000Y-81280000D01*
D41*
X55733000Y-92456000D02*
X55711000Y-92434000D01*
X58166000Y-98956000D02*
X58166000Y-94267214D01*
X56354786Y-92456000D02*
X55733000Y-92456000D01*
X57873107Y-93560107D02*
X57061893Y-92748893D01*
X58165990Y-94267214D02*
G75*
G03*
X57873107Y-93560107I-999990J14D01*
G01*
X57061900Y-92748886D02*
G75*
G03*
X56354786Y-92456000I-707100J-707114D01*
G01*
X58194000Y-99954000D02*
X58166000Y-99926000D01*
X58166000Y-101900000D02*
X58166000Y-100993000D01*
X58194000Y-100965000D02*
X58194000Y-99954000D01*
X58166000Y-100993000D02*
X58194000Y-100965000D01*
D39*
X58291000Y-108868472D02*
X58291000Y-110490000D01*
X57147837Y-107725309D02*
X58291000Y-108868472D01*
X52996843Y-104140000D02*
X52324000Y-104140000D01*
X51943000Y-125857000D02*
X51943000Y-123648500D01*
X53417849Y-104561006D02*
X52996843Y-104140000D01*
X55725000Y-116332000D02*
X55725000Y-115327000D01*
X55725000Y-115327000D02*
X55634000Y-115236000D01*
X57630000Y-115407000D02*
X57296500Y-115073500D01*
X57630000Y-116332000D02*
X57630000Y-115407000D01*
X55027000Y-111722000D02*
X55027000Y-112804000D01*
X55497000Y-111252000D02*
X55027000Y-111722000D01*
X55027000Y-112804000D02*
X55634000Y-113411000D01*
X56570648Y-109926352D02*
X55497000Y-111000000D01*
X56299309Y-108573837D02*
X56570648Y-108845176D01*
X56570648Y-108845176D02*
X56570648Y-109926352D01*
X55497000Y-111000000D02*
X55497000Y-111252000D01*
X57058000Y-108766843D02*
X57058000Y-109947000D01*
X57058000Y-108766843D02*
X56582151Y-108290994D01*
X55497000Y-112268000D02*
X55626000Y-112268000D01*
X55626000Y-112268000D02*
X56134000Y-112776000D01*
X57023000Y-109982000D02*
X56993238Y-109982000D01*
X57058000Y-109947000D02*
X57023000Y-109982000D01*
X56007000Y-111758000D02*
X55497000Y-112268000D01*
X56007000Y-110968238D02*
X56007000Y-111758000D01*
X56134000Y-112776000D02*
X56134000Y-113411000D01*
X56993238Y-109982000D02*
X56007000Y-110968238D01*
X51308000Y-98633000D02*
X51100000Y-98425000D01*
X51308000Y-99720000D02*
X51308000Y-98633000D01*
X50708000Y-103470000D02*
X51308000Y-102870000D01*
X52286478Y-105692377D02*
X51909074Y-105314973D01*
X50708000Y-104556000D02*
X50708000Y-103470000D01*
X51466973Y-105314973D02*
X50708000Y-104556000D01*
X51909074Y-105314973D02*
X51466973Y-105314973D01*
X53605163Y-108573837D02*
X52451000Y-109728000D01*
X54856000Y-115189000D02*
X54971500Y-115073500D01*
X53700691Y-108573837D02*
X53605163Y-108573837D01*
X53975000Y-115189000D02*
X54856000Y-115189000D01*
X56261112Y-114425338D02*
X56409274Y-114573500D01*
X52451000Y-108712000D02*
X52996843Y-108712000D01*
X52996843Y-108712000D02*
X53417849Y-108290994D01*
X56409274Y-114573500D02*
X57296500Y-114573500D01*
D40*
X54228000Y-121538000D02*
X55753000Y-121538000D01*
X53515500Y-119888000D02*
X53515500Y-120825500D01*
X57150000Y-119487000D02*
X58420000Y-118217000D01*
X55753000Y-121538000D02*
X56643000Y-121538000D01*
X53515500Y-120825500D02*
X54228000Y-121538000D01*
X57150000Y-121031000D02*
X57150000Y-119487000D01*
X56643000Y-121538000D02*
X57150000Y-121031000D01*
D39*
X57713522Y-105692377D02*
X58376899Y-105029000D01*
X51052000Y-117602000D02*
X51052000Y-118349500D01*
X58376899Y-105029000D02*
X59436000Y-105029000D01*
X51833500Y-118745000D02*
X51640500Y-118938000D01*
X53213000Y-118745000D02*
X51833500Y-118745000D01*
X51052000Y-118349500D02*
X51640500Y-118938000D01*
G04 #@! TA.AperFunction,Conductor*
G36*
X50988000Y-110228613D02*
G01*
X51033387Y-110274000D01*
X51050000Y-110336000D01*
X51050000Y-111240790D01*
X51070910Y-111239145D01*
X51191905Y-111203994D01*
X51248778Y-111201089D01*
X51300952Y-111223910D01*
X51337424Y-111267646D01*
X51350500Y-111323071D01*
X51350500Y-111947868D01*
X51346002Y-111974334D01*
X51349721Y-112007341D01*
X51350500Y-112021222D01*
X51350500Y-112025589D01*
X51351473Y-112029853D01*
X51353800Y-112043557D01*
X51360052Y-112099051D01*
X51357283Y-112099362D01*
X51361500Y-112113996D01*
X51361500Y-112306500D01*
X51344887Y-112368500D01*
X51299500Y-112413887D01*
X51237500Y-112430500D01*
X50544100Y-112430500D01*
X50514787Y-112436330D01*
X50481542Y-112458543D01*
X50459330Y-112491787D01*
X50453500Y-112521098D01*
X50453500Y-114340899D01*
X50459330Y-114370212D01*
X50481543Y-114403457D01*
X50514787Y-114425669D01*
X50544099Y-114431500D01*
X50544101Y-114431500D01*
X50725363Y-114431500D01*
X50783305Y-114445870D01*
X50827817Y-114485649D01*
X50848584Y-114541618D01*
X50852721Y-114578340D01*
X50853500Y-114592222D01*
X50853500Y-114596589D01*
X50854473Y-114600853D01*
X50856800Y-114614556D01*
X50860517Y-114647554D01*
X50865176Y-114658800D01*
X50885888Y-114684773D01*
X50893928Y-114696103D01*
X50896252Y-114699801D01*
X50899336Y-114702885D01*
X50908601Y-114713252D01*
X50914031Y-114720061D01*
X50923462Y-114731887D01*
X50929313Y-114739223D01*
X50951212Y-114754761D01*
X51242181Y-115045731D01*
X51269061Y-115085959D01*
X51278500Y-115133412D01*
X51278500Y-115257958D01*
X51262210Y-115319395D01*
X51217621Y-115364690D01*
X51123620Y-115420281D01*
X51009281Y-115534620D01*
X50926968Y-115673803D01*
X50884496Y-115820000D01*
X53509504Y-115820000D01*
X53482109Y-115725703D01*
X53479712Y-115666206D01*
X53505327Y-115612451D01*
X53553047Y-115576835D01*
X53611868Y-115567570D01*
X53668225Y-115586794D01*
X53764945Y-115648952D01*
X53764947Y-115648953D01*
X53903039Y-115689500D01*
X53943495Y-115689500D01*
X54005776Y-115706275D01*
X54051205Y-115752063D01*
X54067491Y-115814474D01*
X54050227Y-115876621D01*
X54032967Y-115905805D01*
X53987855Y-116061082D01*
X53986209Y-116081999D01*
X53986210Y-116082000D01*
X54891000Y-116082000D01*
X54953000Y-116098613D01*
X54998387Y-116144000D01*
X55015000Y-116206000D01*
X55015000Y-117136504D01*
X55161196Y-117094031D01*
X55300379Y-117011718D01*
X55312819Y-116999279D01*
X55362182Y-116969029D01*
X55419898Y-116964487D01*
X55473385Y-116986642D01*
X55510985Y-117030665D01*
X55524500Y-117086960D01*
X55524500Y-117563501D01*
X55507887Y-117625501D01*
X55462500Y-117670888D01*
X55400500Y-117687501D01*
X55339862Y-117687501D01*
X55311417Y-117691245D01*
X55292453Y-117693741D01*
X55188419Y-117742253D01*
X55107252Y-117823420D01*
X55058740Y-117927454D01*
X55052500Y-117974859D01*
X55052500Y-118501135D01*
X55058741Y-118548546D01*
X55107253Y-118652580D01*
X55188420Y-118733747D01*
X55292454Y-118782259D01*
X55294687Y-118782553D01*
X55349624Y-118803918D01*
X55388490Y-118848236D01*
X55402500Y-118905492D01*
X55402500Y-118973964D01*
X55394682Y-119017297D01*
X55372213Y-119055166D01*
X55327623Y-119106625D01*
X55267834Y-119237542D01*
X55247353Y-119379999D01*
X55247353Y-119380000D01*
X55249927Y-119397906D01*
X55267834Y-119522457D01*
X55327623Y-119653374D01*
X55372213Y-119704834D01*
X55394682Y-119742703D01*
X55402500Y-119786036D01*
X55402500Y-119862964D01*
X55394682Y-119906297D01*
X55372213Y-119944166D01*
X55327623Y-119995625D01*
X55267834Y-120126542D01*
X55247353Y-120269000D01*
X55267834Y-120411457D01*
X55327623Y-120542374D01*
X55402647Y-120628956D01*
X55421872Y-120651143D01*
X55542947Y-120728953D01*
X55595977Y-120744524D01*
X55646611Y-120773756D01*
X55678222Y-120822943D01*
X55683780Y-120881146D01*
X55662050Y-120935426D01*
X55617863Y-120973715D01*
X55561043Y-120987500D01*
X55339864Y-120987500D01*
X55292453Y-120993741D01*
X55188419Y-121042253D01*
X55091792Y-121138881D01*
X55091161Y-121138250D01*
X55064999Y-121168081D01*
X54998375Y-121187500D01*
X54424544Y-121187500D01*
X54377091Y-121178061D01*
X54336863Y-121151181D01*
X53902319Y-120716637D01*
X53875439Y-120676409D01*
X53866000Y-120628956D01*
X53866000Y-120412500D01*
X53882613Y-120350500D01*
X53928000Y-120305113D01*
X53990000Y-120288500D01*
X54127675Y-120288500D01*
X54152029Y-120283655D01*
X54200740Y-120273966D01*
X54283601Y-120218601D01*
X54338966Y-120135740D01*
X54353500Y-120062674D01*
X54353500Y-119713326D01*
X54338966Y-119640260D01*
X54283601Y-119557399D01*
X54200740Y-119502034D01*
X54200739Y-119502033D01*
X54200738Y-119502033D01*
X54127675Y-119487500D01*
X54127674Y-119487500D01*
X53323223Y-119487500D01*
X53266403Y-119473716D01*
X53222216Y-119435427D01*
X53213000Y-119412407D01*
X53203784Y-119435427D01*
X53159597Y-119473716D01*
X53102777Y-119487500D01*
X52903325Y-119487500D01*
X52830261Y-119502033D01*
X52747399Y-119557399D01*
X52692033Y-119640261D01*
X52677500Y-119713325D01*
X52677500Y-119981276D01*
X52660724Y-120043557D01*
X52614936Y-120088987D01*
X52552525Y-120105272D01*
X52490377Y-120088007D01*
X52488195Y-120086716D01*
X52330493Y-120040900D01*
X52293639Y-120038000D01*
X51890500Y-120038000D01*
X51890500Y-120588000D01*
X52875295Y-120588000D01*
X52875295Y-120587999D01*
X52875099Y-120585507D01*
X52834887Y-120447095D01*
X52831981Y-120390222D01*
X52854802Y-120338048D01*
X52898538Y-120301576D01*
X52953963Y-120288500D01*
X53041000Y-120288500D01*
X53103000Y-120305113D01*
X53148387Y-120350500D01*
X53165000Y-120412500D01*
X53165000Y-120776288D01*
X53162361Y-120801734D01*
X53160457Y-120810814D01*
X53164048Y-120839623D01*
X53164958Y-120854295D01*
X53168165Y-120873513D01*
X53168903Y-120878578D01*
X53175851Y-120934309D01*
X53202581Y-120983702D01*
X53204921Y-120988247D01*
X53226302Y-121031984D01*
X53226303Y-121031985D01*
X53229584Y-121038696D01*
X53235081Y-121043756D01*
X53235082Y-121043758D01*
X53256926Y-121063867D01*
X53270899Y-121076730D01*
X53274597Y-121080279D01*
X53945361Y-121751043D01*
X53961489Y-121770903D01*
X53966563Y-121778669D01*
X53989473Y-121796500D01*
X54000492Y-121806232D01*
X54009120Y-121812391D01*
X54016359Y-121817559D01*
X54020420Y-121820587D01*
X54058874Y-121850517D01*
X54058876Y-121850517D01*
X54064775Y-121855109D01*
X54118593Y-121871131D01*
X54123437Y-121872682D01*
X54169512Y-121888500D01*
X54169514Y-121888500D01*
X54176578Y-121890925D01*
X54184043Y-121890616D01*
X54184046Y-121890617D01*
X54232668Y-121888605D01*
X54237792Y-121888500D01*
X54998375Y-121888500D01*
X55064999Y-121907919D01*
X55091161Y-121937749D01*
X55091792Y-121937119D01*
X55188420Y-122033747D01*
X55292454Y-122082259D01*
X55299641Y-122083205D01*
X55339861Y-122088500D01*
X56166138Y-122088499D01*
X56213545Y-122082259D01*
X56317579Y-122033747D01*
X56317579Y-122033746D01*
X56414208Y-121937119D01*
X56414838Y-121937749D01*
X56441001Y-121907919D01*
X56507625Y-121888500D01*
X56593788Y-121888500D01*
X56619234Y-121891139D01*
X56620556Y-121891416D01*
X56628315Y-121893043D01*
X56654364Y-121889795D01*
X56657123Y-121889452D01*
X56671795Y-121888541D01*
X56691013Y-121885334D01*
X56696069Y-121884596D01*
X56744393Y-121878573D01*
X56744394Y-121878572D01*
X56751808Y-121877648D01*
X56758378Y-121874092D01*
X56758381Y-121874092D01*
X56801201Y-121850918D01*
X56805747Y-121848577D01*
X56849484Y-121827198D01*
X56849486Y-121827195D01*
X56856195Y-121823916D01*
X56861254Y-121818419D01*
X56861258Y-121818418D01*
X56894254Y-121782572D01*
X56897756Y-121778924D01*
X57363046Y-121313634D01*
X57382903Y-121297510D01*
X57390669Y-121292437D01*
X57408496Y-121269531D01*
X57418232Y-121258507D01*
X57425590Y-121248200D01*
X57429559Y-121242640D01*
X57432607Y-121238552D01*
X57462517Y-121200126D01*
X57462517Y-121200124D01*
X57467104Y-121194232D01*
X57469236Y-121187069D01*
X57469239Y-121187066D01*
X57479694Y-121151944D01*
X57507605Y-121103024D01*
X57554281Y-121071495D01*
X57610090Y-121063867D01*
X57663515Y-121081715D01*
X57703531Y-121121355D01*
X57713969Y-121137966D01*
X57790185Y-121259264D01*
X57917735Y-121386814D01*
X57917737Y-121386815D01*
X57917738Y-121386816D01*
X58070478Y-121482789D01*
X58240745Y-121542368D01*
X58420000Y-121562565D01*
X58599255Y-121542368D01*
X58769522Y-121482789D01*
X58922262Y-121386816D01*
X59049816Y-121259262D01*
X59145789Y-121106522D01*
X59205368Y-120936255D01*
X59225565Y-120757000D01*
X59205368Y-120577745D01*
X59145789Y-120407478D01*
X59049816Y-120254738D01*
X59049815Y-120254737D01*
X59049814Y-120254735D01*
X58922264Y-120127185D01*
X58857858Y-120086716D01*
X58769522Y-120031211D01*
X58599255Y-119971632D01*
X58599253Y-119971631D01*
X58599251Y-119971631D01*
X58419999Y-119951434D01*
X58240748Y-119971631D01*
X58240745Y-119971631D01*
X58240745Y-119971632D01*
X58070478Y-120031211D01*
X58070476Y-120031211D01*
X58070476Y-120031212D01*
X57917735Y-120127185D01*
X57790185Y-120254735D01*
X57758531Y-120305113D01*
X57732496Y-120346549D01*
X57729494Y-120351326D01*
X57683260Y-120394548D01*
X57621718Y-120409323D01*
X57560901Y-120391802D01*
X57516652Y-120346549D01*
X57500500Y-120285354D01*
X57500500Y-119683544D01*
X57509939Y-119636091D01*
X57536819Y-119595863D01*
X57658966Y-119473716D01*
X58103846Y-119028834D01*
X58163934Y-118995626D01*
X58232483Y-118999477D01*
X58240745Y-119002368D01*
X58419999Y-119022565D01*
X58419999Y-119022564D01*
X58420000Y-119022565D01*
X58599255Y-119002368D01*
X58769522Y-118942789D01*
X58922262Y-118846816D01*
X59049816Y-118719262D01*
X59145789Y-118566522D01*
X59205368Y-118396255D01*
X59225565Y-118217000D01*
X59205368Y-118037745D01*
X59145789Y-117867478D01*
X59049816Y-117714738D01*
X59049815Y-117714737D01*
X59049814Y-117714735D01*
X58922264Y-117587185D01*
X58859867Y-117547978D01*
X58769522Y-117491211D01*
X58599255Y-117431632D01*
X58599253Y-117431631D01*
X58599251Y-117431631D01*
X58420000Y-117411434D01*
X58240748Y-117431631D01*
X58240745Y-117431631D01*
X58240745Y-117431632D01*
X58070478Y-117491211D01*
X58070476Y-117491211D01*
X58070476Y-117491212D01*
X57917735Y-117587185D01*
X57790185Y-117714735D01*
X57714375Y-117835387D01*
X57694211Y-117867478D01*
X57673224Y-117927455D01*
X57634631Y-118037748D01*
X57614434Y-118217000D01*
X57634631Y-118396252D01*
X57637523Y-118404516D01*
X57641373Y-118473064D01*
X57608163Y-118533153D01*
X56936955Y-119204361D01*
X56917104Y-119220483D01*
X56909332Y-119225561D01*
X56891500Y-119248471D01*
X56881765Y-119259496D01*
X56870441Y-119275357D01*
X56867392Y-119279445D01*
X56850954Y-119300566D01*
X56832891Y-119323773D01*
X56816871Y-119377582D01*
X56815309Y-119382458D01*
X56797074Y-119435577D01*
X56799394Y-119491668D01*
X56799500Y-119496792D01*
X56799500Y-120834456D01*
X56790061Y-120881909D01*
X56763181Y-120922137D01*
X56568003Y-121117314D01*
X56512415Y-121149408D01*
X56448228Y-121149408D01*
X56392641Y-121117314D01*
X56317579Y-121042252D01*
X56213545Y-120993740D01*
X56166140Y-120987500D01*
X55944959Y-120987500D01*
X55888139Y-120973716D01*
X55843951Y-120935427D01*
X55822221Y-120881147D01*
X55827779Y-120822943D01*
X55859390Y-120773757D01*
X55910024Y-120744523D01*
X55963053Y-120728953D01*
X56084128Y-120651143D01*
X56178377Y-120542373D01*
X56238165Y-120411457D01*
X56258647Y-120269000D01*
X56238165Y-120126543D01*
X56219976Y-120086716D01*
X56178376Y-119995625D01*
X56133787Y-119944166D01*
X56111318Y-119906297D01*
X56103500Y-119862964D01*
X56103500Y-119786036D01*
X56111318Y-119742703D01*
X56133787Y-119704834D01*
X56178376Y-119653374D01*
X56178375Y-119653374D01*
X56178377Y-119653373D01*
X56238165Y-119522457D01*
X56258647Y-119380000D01*
X56238165Y-119237543D01*
X56223281Y-119204953D01*
X56178376Y-119106625D01*
X56133787Y-119055166D01*
X56111318Y-119017297D01*
X56103500Y-118973964D01*
X56103500Y-118905492D01*
X56117511Y-118848234D01*
X56156378Y-118803916D01*
X56211317Y-118782552D01*
X56213545Y-118782259D01*
X56317579Y-118733747D01*
X56398747Y-118652579D01*
X56447259Y-118548545D01*
X56453500Y-118501139D01*
X56453499Y-117974862D01*
X56447259Y-117927455D01*
X56398747Y-117823421D01*
X56398746Y-117823420D01*
X56398746Y-117823419D01*
X56317579Y-117742252D01*
X56213545Y-117693740D01*
X56166140Y-117687500D01*
X56166139Y-117687500D01*
X56049500Y-117687500D01*
X55987500Y-117670887D01*
X55942113Y-117625500D01*
X55925500Y-117563500D01*
X55925500Y-117101960D01*
X55939015Y-117045665D01*
X55976615Y-117001642D01*
X56030102Y-116979487D01*
X56087818Y-116984029D01*
X56120832Y-117004260D01*
X56121138Y-117003745D01*
X56273803Y-117094031D01*
X56420000Y-117136504D01*
X56420000Y-115572362D01*
X56429439Y-115524909D01*
X56456319Y-115484681D01*
X56459000Y-115482000D01*
X56459000Y-115185000D01*
X56475613Y-115123000D01*
X56521000Y-115077613D01*
X56583000Y-115061000D01*
X56685000Y-115061000D01*
X56747000Y-115077613D01*
X56792387Y-115123000D01*
X56809000Y-115185000D01*
X56809000Y-115482000D01*
X56813758Y-115486758D01*
X56858000Y-115498613D01*
X56903387Y-115544000D01*
X56920000Y-115606000D01*
X56920000Y-117136504D01*
X57066196Y-117094031D01*
X57205379Y-117011718D01*
X57319717Y-116897380D01*
X57375311Y-116803378D01*
X57420606Y-116758790D01*
X57482043Y-116742500D01*
X57793689Y-116742500D01*
X57803671Y-116740514D01*
X57863839Y-116728546D01*
X57943391Y-116675391D01*
X57996546Y-116595839D01*
X58010500Y-116525688D01*
X58010500Y-116138312D01*
X57996546Y-116068161D01*
X57943391Y-115988609D01*
X57885609Y-115950000D01*
X57845142Y-115905351D01*
X57830500Y-115846898D01*
X57830500Y-115462132D01*
X57834997Y-115435665D01*
X57833614Y-115423391D01*
X57832317Y-115411881D01*
X57843820Y-115344197D01*
X57889568Y-115293006D01*
X57955539Y-115274000D01*
X58018537Y-115274000D01*
X58070049Y-115285206D01*
X58112250Y-115316798D01*
X58150606Y-115361063D01*
X58168872Y-115382143D01*
X58289947Y-115459953D01*
X58428039Y-115500500D01*
X58571961Y-115500500D01*
X58710053Y-115459953D01*
X58831128Y-115382143D01*
X58925377Y-115273373D01*
X58985165Y-115142457D01*
X59005647Y-115000000D01*
X58985165Y-114857543D01*
X58981930Y-114850460D01*
X58926689Y-114729500D01*
X58925377Y-114726627D01*
X58925376Y-114726626D01*
X58925376Y-114726625D01*
X58831129Y-114617858D01*
X58831128Y-114617857D01*
X58710053Y-114540047D01*
X58571961Y-114499500D01*
X58428039Y-114499500D01*
X58289947Y-114540047D01*
X58168870Y-114617858D01*
X58074623Y-114726625D01*
X58040880Y-114800512D01*
X57995125Y-114853316D01*
X57928086Y-114873000D01*
X57822108Y-114873000D01*
X57769091Y-114861095D01*
X57726255Y-114827665D01*
X57701824Y-114779129D01*
X57700491Y-114724809D01*
X57709500Y-114679518D01*
X57709500Y-114467483D01*
X57701182Y-114425668D01*
X57698592Y-114412646D01*
X57685056Y-114392388D01*
X57666542Y-114347692D01*
X57666542Y-114299308D01*
X57685056Y-114254611D01*
X57698592Y-114234354D01*
X57709500Y-114179516D01*
X57709500Y-113980448D01*
X57725754Y-113919074D01*
X57770255Y-113873789D01*
X57831336Y-113856467D01*
X57892985Y-113871647D01*
X57939039Y-113915351D01*
X57977114Y-113977081D01*
X58095918Y-114095885D01*
X58238926Y-114184093D01*
X58398416Y-114236943D01*
X58496857Y-114247000D01*
X58551000Y-114247000D01*
X58551000Y-113559500D01*
X57829567Y-113559500D01*
X57774723Y-113546712D01*
X57731191Y-113510986D01*
X57707950Y-113459691D01*
X57698592Y-113412646D01*
X57657040Y-113350459D01*
X57594853Y-113308907D01*
X57540017Y-113298000D01*
X57540016Y-113298000D01*
X57052984Y-113298000D01*
X57040771Y-113298000D01*
X57040771Y-113296648D01*
X57003367Y-113295729D01*
X56954833Y-113271298D01*
X56921405Y-113228462D01*
X56909500Y-113175446D01*
X56909500Y-113167483D01*
X56898592Y-113112646D01*
X56855398Y-113048002D01*
X56839839Y-113015106D01*
X56834500Y-112979111D01*
X56834500Y-112641373D01*
X56839839Y-112605377D01*
X56855398Y-112572482D01*
X56887539Y-112524380D01*
X56888717Y-112525167D01*
X56892395Y-112517043D01*
X56935933Y-112481296D01*
X56990794Y-112468500D01*
X56992653Y-112468500D01*
X57059692Y-112488184D01*
X57105447Y-112540988D01*
X57105623Y-112541374D01*
X57199870Y-112650141D01*
X57199872Y-112650143D01*
X57320947Y-112727953D01*
X57459039Y-112768500D01*
X57602959Y-112768500D01*
X57602961Y-112768500D01*
X57698675Y-112740395D01*
X57765302Y-112739493D01*
X57822781Y-112773211D01*
X57854505Y-112831814D01*
X57851312Y-112898375D01*
X57836057Y-112944413D01*
X57826000Y-113042857D01*
X57826000Y-113059500D01*
X58927000Y-113059500D01*
X58989000Y-113076113D01*
X59034387Y-113121500D01*
X59051000Y-113183500D01*
X59051000Y-114246999D01*
X59105143Y-114246999D01*
X59203582Y-114236943D01*
X59363073Y-114184093D01*
X59506081Y-114095885D01*
X59624885Y-113977081D01*
X59713093Y-113834073D01*
X59757794Y-113699176D01*
X59796905Y-113642269D01*
X59860389Y-113615104D01*
X59928558Y-113626105D01*
X59980274Y-113671859D01*
X59999500Y-113738180D01*
X59999500Y-135994584D01*
X59999028Y-136005397D01*
X59995581Y-136044776D01*
X59995456Y-136046116D01*
X59983082Y-136171760D01*
X59979454Y-136191700D01*
X59962123Y-136256382D01*
X59961008Y-136260285D01*
X59933319Y-136351562D01*
X59927041Y-136367971D01*
X59896328Y-136433835D01*
X59893304Y-136439884D01*
X59850990Y-136519046D01*
X59843207Y-136531715D01*
X59800373Y-136592889D01*
X59794652Y-136600430D01*
X59738826Y-136668455D01*
X59730653Y-136677472D01*
X59677472Y-136730653D01*
X59668455Y-136738826D01*
X59600430Y-136794652D01*
X59592889Y-136800373D01*
X59531715Y-136843207D01*
X59519046Y-136850990D01*
X59439884Y-136893304D01*
X59433835Y-136896328D01*
X59367971Y-136927041D01*
X59351562Y-136933319D01*
X59260285Y-136961008D01*
X59256382Y-136962123D01*
X59191700Y-136979454D01*
X59171760Y-136983082D01*
X59046116Y-136995456D01*
X59044776Y-136995581D01*
X59009760Y-136998646D01*
X59005392Y-136999028D01*
X58994584Y-136999500D01*
X51005416Y-136999500D01*
X50994606Y-136999028D01*
X50992001Y-136998800D01*
X50955223Y-136995581D01*
X50953882Y-136995456D01*
X50828238Y-136983082D01*
X50808298Y-136979454D01*
X50743616Y-136962123D01*
X50739713Y-136961008D01*
X50648436Y-136933319D01*
X50632027Y-136927041D01*
X50566163Y-136896328D01*
X50560114Y-136893304D01*
X50480952Y-136850990D01*
X50468283Y-136843207D01*
X50407109Y-136800373D01*
X50399568Y-136794652D01*
X50331543Y-136738826D01*
X50322526Y-136730653D01*
X50269345Y-136677472D01*
X50261172Y-136668455D01*
X50205346Y-136600430D01*
X50199625Y-136592889D01*
X50156791Y-136531715D01*
X50149008Y-136519046D01*
X50125307Y-136474705D01*
X50106685Y-136439867D01*
X50103686Y-136433867D01*
X50072952Y-136367959D01*
X50066682Y-136351570D01*
X50061109Y-136333198D01*
X56538354Y-136333198D01*
X56545155Y-136339006D01*
X56766597Y-136474705D01*
X57006544Y-136574096D01*
X57259083Y-136634724D01*
X57518000Y-136655101D01*
X57776916Y-136634724D01*
X58029455Y-136574096D01*
X58269397Y-136474707D01*
X58490849Y-136339003D01*
X58497645Y-136333198D01*
X57518000Y-135353553D01*
X56538354Y-136333198D01*
X50061109Y-136333198D01*
X50038966Y-136260203D01*
X50037899Y-136256467D01*
X50020541Y-136191685D01*
X50016918Y-136171776D01*
X50004526Y-136045961D01*
X50004417Y-136044776D01*
X50000972Y-136005392D01*
X50000500Y-135994587D01*
X50000500Y-135933255D01*
X51467500Y-135933255D01*
X51477427Y-136001393D01*
X51528802Y-136106484D01*
X51611514Y-136189196D01*
X51611515Y-136189196D01*
X51611517Y-136189198D01*
X51716608Y-136240573D01*
X51784741Y-136250500D01*
X53651258Y-136250499D01*
X53719392Y-136240573D01*
X53824483Y-136189198D01*
X53907198Y-136106483D01*
X53958573Y-136001392D01*
X53968500Y-135933259D01*
X53968499Y-135000000D01*
X55862898Y-135000000D01*
X55883275Y-135258916D01*
X55943903Y-135511455D01*
X56043294Y-135751402D01*
X56178993Y-135972843D01*
X56184801Y-135979644D01*
X57164447Y-135000001D01*
X57871553Y-135000001D01*
X58851198Y-135979645D01*
X58857003Y-135972849D01*
X58992707Y-135751397D01*
X59092096Y-135511455D01*
X59152724Y-135258916D01*
X59173101Y-135000000D01*
X59152724Y-134741083D01*
X59092096Y-134488544D01*
X58992705Y-134248597D01*
X58857006Y-134027155D01*
X58851198Y-134020354D01*
X57871553Y-135000000D01*
X57871553Y-135000001D01*
X57164447Y-135000001D01*
X57164447Y-135000000D01*
X56184801Y-134020354D01*
X56178992Y-134027156D01*
X56043294Y-134248597D01*
X55943903Y-134488544D01*
X55883275Y-134741083D01*
X55862898Y-135000000D01*
X53968499Y-135000000D01*
X53968499Y-134066742D01*
X53958573Y-133998608D01*
X53907198Y-133893517D01*
X53907197Y-133893516D01*
X53907197Y-133893515D01*
X53824485Y-133810803D01*
X53824483Y-133810802D01*
X53719392Y-133759427D01*
X53719390Y-133759426D01*
X53719389Y-133759426D01*
X53651262Y-133749500D01*
X51784744Y-133749500D01*
X51716606Y-133759427D01*
X51611515Y-133810802D01*
X51528803Y-133893514D01*
X51477426Y-133998610D01*
X51467500Y-134066737D01*
X51467500Y-135933255D01*
X50000500Y-135933255D01*
X50000500Y-133666801D01*
X56538354Y-133666801D01*
X57518000Y-134646447D01*
X57518001Y-134646447D01*
X58497645Y-133666801D01*
X58490843Y-133660993D01*
X58269402Y-133525294D01*
X58029455Y-133425903D01*
X57776916Y-133365275D01*
X57518000Y-133344898D01*
X57259083Y-133365275D01*
X57006544Y-133425903D01*
X56766597Y-133525294D01*
X56545156Y-133660992D01*
X56538354Y-133666801D01*
X50000500Y-133666801D01*
X50000500Y-130900000D01*
X52744564Y-130900000D01*
X52764287Y-131200926D01*
X52823119Y-131496689D01*
X52920054Y-131782252D01*
X53053433Y-132052717D01*
X53053434Y-132052718D01*
X53220975Y-132303461D01*
X53419811Y-132530189D01*
X53646539Y-132729025D01*
X53897282Y-132896566D01*
X54167747Y-133029945D01*
X54310528Y-133078412D01*
X54453309Y-133126880D01*
X54552802Y-133146670D01*
X54749073Y-133185712D01*
X54749075Y-133185712D01*
X54749080Y-133185713D01*
X55050000Y-133205436D01*
X55350920Y-133185713D01*
X55350924Y-133185712D01*
X55350926Y-133185712D01*
X55447703Y-133166461D01*
X55646691Y-133126880D01*
X55932252Y-133029945D01*
X56202718Y-132896566D01*
X56453461Y-132729025D01*
X56680189Y-132530189D01*
X56879025Y-132303461D01*
X57046566Y-132052718D01*
X57179945Y-131782252D01*
X57276880Y-131496691D01*
X57335713Y-131200920D01*
X57355436Y-130900000D01*
X57335713Y-130599080D01*
X57276880Y-130303309D01*
X57179945Y-130017748D01*
X57046566Y-129747282D01*
X56879025Y-129496539D01*
X56680189Y-129269811D01*
X56453461Y-129070975D01*
X56412313Y-129043481D01*
X56202717Y-128903433D01*
X55932252Y-128770054D01*
X55646689Y-128673119D01*
X55350919Y-128614286D01*
X55225327Y-128606054D01*
X55161030Y-128582983D01*
X55118707Y-128529361D01*
X55111205Y-128461463D01*
X55133453Y-128415178D01*
X57749891Y-128415178D01*
X57752043Y-128426509D01*
X57754219Y-128449637D01*
X57754219Y-129429544D01*
X57755116Y-129432304D01*
X57767521Y-129456649D01*
X57770938Y-129461351D01*
X57790258Y-129480671D01*
X57794961Y-129484088D01*
X57819300Y-129496489D01*
X57822064Y-129497387D01*
X57822065Y-129497388D01*
X57838802Y-129497388D01*
X57887373Y-129497388D01*
X58017327Y-129497388D01*
X58065898Y-129497388D01*
X58082635Y-129497388D01*
X58082636Y-129497388D01*
X58085404Y-129496488D01*
X58109732Y-129484092D01*
X58112089Y-129482379D01*
X58112093Y-129482378D01*
X58112095Y-129482375D01*
X58122348Y-129474926D01*
X58169450Y-129453953D01*
X58221010Y-129453950D01*
X58268114Y-129474918D01*
X58275516Y-129480295D01*
X58278215Y-129482772D01*
X58284743Y-129487101D01*
X58285917Y-129487374D01*
X58285918Y-129487375D01*
X58308360Y-129492595D01*
X58318571Y-129495436D01*
X58324577Y-129497388D01*
X58324578Y-129497388D01*
X58329957Y-129499136D01*
X58342821Y-129500612D01*
X58349528Y-129502173D01*
X58349530Y-129502171D01*
X58369094Y-129500494D01*
X58369120Y-129500801D01*
X58385972Y-129497388D01*
X58520723Y-129497388D01*
X58547533Y-129500321D01*
X58555436Y-129502071D01*
X58575478Y-129493349D01*
X58586617Y-129489127D01*
X58607393Y-129482378D01*
X58607393Y-129482377D01*
X58608010Y-129482177D01*
X58609683Y-129481221D01*
X58613693Y-129478002D01*
X58614993Y-129476570D01*
X58615320Y-129476014D01*
X58615321Y-129476014D01*
X58626404Y-129457184D01*
X58632932Y-129447224D01*
X58645781Y-129429542D01*
X58645781Y-129429540D01*
X58646156Y-129429024D01*
X58646957Y-129427246D01*
X58648302Y-129422310D01*
X58648514Y-129420371D01*
X58648452Y-129419733D01*
X58648453Y-129419733D01*
X58646355Y-129397998D01*
X58645781Y-129386084D01*
X58645781Y-129364234D01*
X58645780Y-129364232D01*
X58641022Y-129357683D01*
X58627636Y-129334270D01*
X58603946Y-129279823D01*
X58601362Y-129270833D01*
X58597045Y-129262200D01*
X58597045Y-129262198D01*
X58592592Y-129253292D01*
X58589820Y-129247358D01*
X58585841Y-129238213D01*
X58585840Y-129238212D01*
X58581996Y-129229375D01*
X58576754Y-129221616D01*
X58548635Y-129165379D01*
X58545864Y-129157289D01*
X58535536Y-129138867D01*
X58532785Y-129133676D01*
X58523339Y-129114782D01*
X58518195Y-129107936D01*
X58507380Y-129088645D01*
X58492511Y-129043481D01*
X58495733Y-128996041D01*
X58516571Y-128953302D01*
X58525016Y-128942114D01*
X58525578Y-128941377D01*
X58534660Y-128929559D01*
X58534661Y-128929554D01*
X58534928Y-128929208D01*
X58535069Y-128928798D01*
X58535072Y-128928795D01*
X58540012Y-128914484D01*
X58540255Y-128913787D01*
X58563197Y-128849133D01*
X58566843Y-128840027D01*
X58569705Y-128833630D01*
X58569705Y-128833625D01*
X58571388Y-128829864D01*
X58571498Y-128825741D01*
X58571500Y-128825738D01*
X58571687Y-128818742D01*
X58572341Y-128808939D01*
X58578657Y-128749798D01*
X58581206Y-128734766D01*
X58581680Y-128732739D01*
X58581679Y-128732735D01*
X58582239Y-128730340D01*
X58582323Y-128722631D01*
X58581815Y-128720222D01*
X58581816Y-128720220D01*
X58581385Y-128718178D01*
X58579164Y-128703089D01*
X58574844Y-128652166D01*
X58574445Y-128638352D01*
X58574625Y-128631652D01*
X58573727Y-128626883D01*
X58572440Y-128623828D01*
X58572440Y-128623827D01*
X58571123Y-128620702D01*
X58566473Y-128607684D01*
X58564559Y-128601206D01*
X58562759Y-128589338D01*
X58559660Y-128580235D01*
X58559661Y-128580235D01*
X58550606Y-128553634D01*
X58549105Y-128548913D01*
X58545869Y-128537960D01*
X58545866Y-128537955D01*
X58545270Y-128535939D01*
X58544010Y-128534255D01*
X58544010Y-128534254D01*
X58537214Y-128525169D01*
X58534279Y-128521075D01*
X58521879Y-128503008D01*
X58518383Y-128497913D01*
X58518382Y-128497912D01*
X58512952Y-128490000D01*
X58504506Y-128481443D01*
X58488921Y-128460607D01*
X58482507Y-128449080D01*
X58476985Y-128442355D01*
X58459484Y-128421044D01*
X58456037Y-128416647D01*
X58448133Y-128406080D01*
X58437034Y-128398980D01*
X58432380Y-128395852D01*
X58402757Y-128374955D01*
X58390805Y-128369406D01*
X58389144Y-128368344D01*
X58378133Y-128360424D01*
X58375295Y-128358136D01*
X58375293Y-128358135D01*
X58372580Y-128355948D01*
X58368738Y-128354012D01*
X58361847Y-128352217D01*
X58348946Y-128348090D01*
X58336810Y-128343463D01*
X58312173Y-128334069D01*
X58295880Y-128326463D01*
X58295234Y-128326102D01*
X58283188Y-128322641D01*
X58282455Y-128322605D01*
X58264606Y-128320404D01*
X58228063Y-128313176D01*
X58212384Y-128308593D01*
X58210093Y-128308457D01*
X58193405Y-128306321D01*
X58191155Y-128305876D01*
X58174832Y-128306362D01*
X58140139Y-128304301D01*
X58127175Y-128302042D01*
X58115699Y-128302370D01*
X58104820Y-128302202D01*
X58082566Y-128300881D01*
X58082649Y-128302267D01*
X58050638Y-128304171D01*
X58046825Y-128304339D01*
X58021164Y-128305073D01*
X58015256Y-128306277D01*
X58009720Y-128306607D01*
X58000157Y-128305935D01*
X57981129Y-128308121D01*
X57974359Y-128308711D01*
X57955250Y-128309849D01*
X57945944Y-128312166D01*
X57932947Y-128313660D01*
X57921217Y-128313589D01*
X57906752Y-128316336D01*
X57897790Y-128317700D01*
X57883161Y-128319382D01*
X57871985Y-128322937D01*
X57856726Y-128325835D01*
X57833596Y-128328012D01*
X57822064Y-128328012D01*
X57807141Y-128338853D01*
X57793915Y-128347238D01*
X57777752Y-128356107D01*
X57773554Y-128360570D01*
X57773121Y-128360950D01*
X57772832Y-128361440D01*
X57769229Y-128366399D01*
X57763530Y-128383938D01*
X57757753Y-128398510D01*
X57749891Y-128415178D01*
X55133453Y-128415178D01*
X55140799Y-128399895D01*
X55198505Y-128363343D01*
X55210053Y-128359953D01*
X55331128Y-128282143D01*
X55425377Y-128173373D01*
X55485165Y-128042457D01*
X55505647Y-127900000D01*
X55485165Y-127757543D01*
X55425377Y-127626627D01*
X55425376Y-127626626D01*
X55425376Y-127626625D01*
X55342692Y-127531202D01*
X55315900Y-127479234D01*
X55315900Y-127420766D01*
X55342692Y-127368798D01*
X55403605Y-127298500D01*
X56689000Y-127298500D01*
X56689000Y-127496324D01*
X56695402Y-127555875D01*
X56745647Y-127690589D01*
X56831811Y-127805688D01*
X56946910Y-127891852D01*
X57081624Y-127942097D01*
X57141176Y-127948500D01*
X57789000Y-127948500D01*
X57789000Y-127298500D01*
X58289000Y-127298500D01*
X58289000Y-127948500D01*
X58936824Y-127948500D01*
X58996375Y-127942097D01*
X59131089Y-127891852D01*
X59246188Y-127805688D01*
X59332352Y-127690589D01*
X59382597Y-127555875D01*
X59389000Y-127496324D01*
X59389000Y-127298500D01*
X58289000Y-127298500D01*
X57789000Y-127298500D01*
X56689000Y-127298500D01*
X55403605Y-127298500D01*
X55425376Y-127273374D01*
X55425375Y-127273374D01*
X55425377Y-127273373D01*
X55485165Y-127142457D01*
X55505647Y-127000000D01*
X55485165Y-126857543D01*
X55458201Y-126798500D01*
X56689000Y-126798500D01*
X59389000Y-126798500D01*
X59389000Y-126600676D01*
X59382597Y-126541124D01*
X59332352Y-126406410D01*
X59246188Y-126291311D01*
X59131089Y-126205147D01*
X58996375Y-126154902D01*
X58936824Y-126148500D01*
X58591048Y-126148500D01*
X58531621Y-126133332D01*
X58486732Y-126091539D01*
X58467364Y-126033346D01*
X58478254Y-125972988D01*
X58524165Y-125872457D01*
X58530754Y-125826627D01*
X58544647Y-125730000D01*
X58524165Y-125587543D01*
X58464377Y-125456627D01*
X58464376Y-125456626D01*
X58464376Y-125456625D01*
X58370129Y-125347857D01*
X58296461Y-125300514D01*
X58254668Y-125255625D01*
X58239500Y-125196198D01*
X58239500Y-124272999D01*
X58256113Y-124210999D01*
X58301500Y-124165612D01*
X58363500Y-124148999D01*
X58898899Y-124148999D01*
X58913555Y-124146084D01*
X58928213Y-124143169D01*
X58961457Y-124120957D01*
X58983669Y-124087713D01*
X58989500Y-124058399D01*
X58989499Y-123238602D01*
X58989498Y-123238598D01*
X58983669Y-123209287D01*
X58961456Y-123176042D01*
X58928212Y-123153830D01*
X58898901Y-123148000D01*
X57179100Y-123148000D01*
X57149787Y-123153830D01*
X57116542Y-123176043D01*
X57094330Y-123209287D01*
X57088500Y-123238598D01*
X57088500Y-124058399D01*
X57094330Y-124087712D01*
X57116543Y-124120957D01*
X57149787Y-124143169D01*
X57179099Y-124149000D01*
X57179101Y-124149000D01*
X57714500Y-124149000D01*
X57776500Y-124165613D01*
X57821887Y-124211000D01*
X57838500Y-124273000D01*
X57838500Y-125196198D01*
X57823332Y-125255625D01*
X57781539Y-125300514D01*
X57707870Y-125347857D01*
X57613623Y-125456625D01*
X57553834Y-125587542D01*
X57533353Y-125729999D01*
X57553834Y-125872457D01*
X57599746Y-125972988D01*
X57610636Y-126033346D01*
X57591268Y-126091539D01*
X57546379Y-126133332D01*
X57486952Y-126148500D01*
X57141176Y-126148500D01*
X57081624Y-126154902D01*
X56946910Y-126205147D01*
X56831811Y-126291311D01*
X56745647Y-126406410D01*
X56695402Y-126541124D01*
X56689000Y-126600676D01*
X56689000Y-126798500D01*
X55458201Y-126798500D01*
X55425377Y-126726627D01*
X55425376Y-126726626D01*
X55425376Y-126726625D01*
X55342692Y-126631202D01*
X55315900Y-126579234D01*
X55315900Y-126520766D01*
X55342692Y-126468798D01*
X55425376Y-126373374D01*
X55425375Y-126373374D01*
X55425377Y-126373373D01*
X55485165Y-126242457D01*
X55505647Y-126100000D01*
X55485165Y-125957543D01*
X55425377Y-125826627D01*
X55425376Y-125826626D01*
X55425376Y-125826625D01*
X55331129Y-125717858D01*
X55331128Y-125717857D01*
X55210053Y-125640047D01*
X55071961Y-125599500D01*
X54928039Y-125599500D01*
X54789947Y-125640047D01*
X54668870Y-125717858D01*
X54574623Y-125826625D01*
X54514834Y-125957542D01*
X54494353Y-126099999D01*
X54514834Y-126242457D01*
X54574623Y-126373374D01*
X54657308Y-126468798D01*
X54684100Y-126520766D01*
X54684100Y-126579234D01*
X54657308Y-126631202D01*
X54574623Y-126726625D01*
X54514834Y-126857542D01*
X54494353Y-127000000D01*
X54514834Y-127142457D01*
X54574622Y-127273372D01*
X54657308Y-127368798D01*
X54684099Y-127420766D01*
X54684099Y-127479234D01*
X54657308Y-127531202D01*
X54574622Y-127626627D01*
X54514834Y-127757542D01*
X54494353Y-127899999D01*
X54514834Y-128042457D01*
X54574623Y-128173374D01*
X54668870Y-128282141D01*
X54668872Y-128282143D01*
X54789947Y-128359953D01*
X54818524Y-128368344D01*
X54819744Y-128368702D01*
X54877451Y-128405257D01*
X54907043Y-128466825D01*
X54899539Y-128534722D01*
X54857216Y-128588343D01*
X54792919Y-128611413D01*
X54749080Y-128614286D01*
X54453310Y-128673119D01*
X54167747Y-128770054D01*
X53897282Y-128903433D01*
X53646539Y-129070974D01*
X53419811Y-129269811D01*
X53220974Y-129496539D01*
X53053433Y-129747282D01*
X52920054Y-130017747D01*
X52823119Y-130303310D01*
X52764287Y-130599073D01*
X52744564Y-130900000D01*
X50000500Y-130900000D01*
X50000500Y-129375870D01*
X51415500Y-129375870D01*
X51416577Y-129390483D01*
X51416912Y-129399595D01*
X51416912Y-129424892D01*
X51418998Y-129430590D01*
X51419583Y-129431282D01*
X51419584Y-129431284D01*
X51435340Y-129449919D01*
X51440958Y-129457082D01*
X51455831Y-129477552D01*
X51460876Y-129480941D01*
X51461751Y-129481155D01*
X51461752Y-129481156D01*
X51485448Y-129486969D01*
X51494217Y-129489466D01*
X51508140Y-129493990D01*
X51519821Y-129495402D01*
X51525178Y-129496717D01*
X51525181Y-129496715D01*
X51543467Y-129495368D01*
X51561486Y-129491831D01*
X51698839Y-129491831D01*
X51722667Y-129494142D01*
X51723500Y-129494305D01*
X51733346Y-129496233D01*
X51750664Y-129488185D01*
X51764569Y-129482719D01*
X51782724Y-129476821D01*
X51782726Y-129476817D01*
X51786476Y-129474094D01*
X51788002Y-129473196D01*
X51789181Y-129471866D01*
X51792569Y-129468715D01*
X51792574Y-129468713D01*
X51792576Y-129468708D01*
X51806960Y-129455334D01*
X51807757Y-129456192D01*
X51833934Y-129429330D01*
X51896557Y-129412108D01*
X51959296Y-129428903D01*
X51986573Y-129456517D01*
X51987124Y-129455917D01*
X52001596Y-129469193D01*
X52001597Y-129469195D01*
X52001598Y-129469195D01*
X52003781Y-129471198D01*
X52005849Y-129473516D01*
X52008527Y-129475079D01*
X52010922Y-129476819D01*
X52010924Y-129476819D01*
X52010925Y-129476821D01*
X52029803Y-129482954D01*
X52042958Y-129488075D01*
X52061009Y-129496316D01*
X52070926Y-129494304D01*
X52095571Y-129491831D01*
X52237383Y-129491831D01*
X52254213Y-129495220D01*
X52254232Y-129495004D01*
X52273800Y-129496637D01*
X52273800Y-129496636D01*
X52273801Y-129496637D01*
X52280245Y-129495121D01*
X52292885Y-129493656D01*
X52298502Y-129491831D01*
X52298504Y-129491831D01*
X52304758Y-129489798D01*
X52314672Y-129487027D01*
X52337375Y-129481691D01*
X52337376Y-129481689D01*
X52338484Y-129481429D01*
X52344028Y-129477743D01*
X52344697Y-129476821D01*
X52344699Y-129476821D01*
X52358396Y-129457966D01*
X52364788Y-129449896D01*
X52380023Y-129432229D01*
X52380023Y-129432225D01*
X52380767Y-129431363D01*
X52383087Y-129425122D01*
X52383087Y-129400679D01*
X52383516Y-129390368D01*
X52384062Y-129383825D01*
X52384061Y-129383824D01*
X52384553Y-129377938D01*
X52383087Y-129365296D01*
X52383087Y-129358675D01*
X52377018Y-129339998D01*
X52377223Y-129339931D01*
X52370072Y-129324322D01*
X52362122Y-129290506D01*
X52361964Y-129288477D01*
X52357793Y-129271461D01*
X52357794Y-129271458D01*
X52354205Y-129256815D01*
X52354047Y-129256157D01*
X52350584Y-129241426D01*
X52350582Y-129241422D01*
X52346577Y-129224387D01*
X52345794Y-129222497D01*
X52345577Y-129221613D01*
X52335688Y-129181263D01*
X52335499Y-129179111D01*
X52331193Y-129162276D01*
X52331194Y-129162274D01*
X52327466Y-129147694D01*
X52327226Y-129146734D01*
X52319582Y-129115544D01*
X52318739Y-129113562D01*
X52308935Y-129075217D01*
X52308713Y-129072959D01*
X52300477Y-129042109D01*
X52300145Y-129040837D01*
X52292201Y-129009766D01*
X52291286Y-129007676D01*
X52281869Y-128972397D01*
X52281608Y-128970005D01*
X52273064Y-128939379D01*
X52272697Y-128938034D01*
X52264495Y-128907306D01*
X52263504Y-128905108D01*
X52254521Y-128872902D01*
X52254269Y-128870791D01*
X52249405Y-128853997D01*
X52245295Y-128839807D01*
X52245018Y-128838834D01*
X52240972Y-128824327D01*
X52240971Y-128824326D01*
X52236288Y-128807532D01*
X52235387Y-128805591D01*
X52220056Y-128752645D01*
X52219825Y-128750850D01*
X52210444Y-128719436D01*
X52210151Y-128718441D01*
X52209051Y-128714643D01*
X52205973Y-128704010D01*
X52205972Y-128704008D01*
X52201012Y-128686878D01*
X52200233Y-128685239D01*
X52198718Y-128680164D01*
X52185377Y-128635484D01*
X52185118Y-128633606D01*
X52179919Y-128616736D01*
X52179920Y-128616734D01*
X52175472Y-128602301D01*
X52175248Y-128601561D01*
X52170934Y-128587112D01*
X52170933Y-128587110D01*
X52165872Y-128570158D01*
X52165040Y-128568445D01*
X52164414Y-128566413D01*
X52150619Y-128521644D01*
X52150328Y-128519667D01*
X52145006Y-128502948D01*
X52145007Y-128502946D01*
X52140446Y-128488618D01*
X52140181Y-128487770D01*
X52135770Y-128473451D01*
X52135769Y-128473449D01*
X52130599Y-128456668D01*
X52129706Y-128454868D01*
X52115876Y-128411410D01*
X52110693Y-128378037D01*
X52110036Y-128376013D01*
X52091201Y-128350091D01*
X52090902Y-128349677D01*
X52072165Y-128323556D01*
X52072164Y-128323555D01*
X52072159Y-128323548D01*
X52071658Y-128323182D01*
X52069993Y-128322641D01*
X52041170Y-128313274D01*
X52040510Y-128313058D01*
X52020060Y-128306277D01*
X52010175Y-128302999D01*
X52008049Y-128302986D01*
X51974675Y-128308169D01*
X51830753Y-128308169D01*
X51796506Y-128302991D01*
X51795326Y-128303008D01*
X51775237Y-128309849D01*
X51768433Y-128312166D01*
X51765957Y-128313009D01*
X51764307Y-128313558D01*
X51734661Y-128323191D01*
X51733527Y-128324026D01*
X51715588Y-128349460D01*
X51714581Y-128350868D01*
X51696311Y-128376016D01*
X51695947Y-128377135D01*
X51690769Y-128411386D01*
X51677485Y-128454310D01*
X51677200Y-128454895D01*
X51667126Y-128487783D01*
X51667024Y-128488114D01*
X51656871Y-128520929D01*
X51656779Y-128521573D01*
X51643046Y-128566413D01*
X51642778Y-128566970D01*
X51633001Y-128599211D01*
X51632904Y-128599531D01*
X51622687Y-128632894D01*
X51622601Y-128633506D01*
X51608072Y-128681418D01*
X51607822Y-128681938D01*
X51602449Y-128699822D01*
X51602449Y-128699823D01*
X51598515Y-128712919D01*
X51597997Y-128714643D01*
X51597906Y-128714942D01*
X51587895Y-128747958D01*
X51587814Y-128748540D01*
X51572401Y-128799850D01*
X51571685Y-128801354D01*
X51562473Y-128832889D01*
X51562208Y-128833782D01*
X51552768Y-128865215D01*
X51552547Y-128866876D01*
X51543288Y-128898584D01*
X51542196Y-128900935D01*
X51533734Y-128931268D01*
X51533325Y-128932702D01*
X51524535Y-128962804D01*
X51524222Y-128965369D01*
X51514197Y-129001308D01*
X51513210Y-129003499D01*
X51505016Y-129034198D01*
X51504653Y-129035527D01*
X51496138Y-129066059D01*
X51495875Y-129068447D01*
X51485264Y-129108204D01*
X51484363Y-129110270D01*
X51476459Y-129141172D01*
X51476137Y-129142407D01*
X51467910Y-129173244D01*
X51467687Y-129175485D01*
X51456574Y-129218948D01*
X51455748Y-129220890D01*
X51448053Y-129252249D01*
X51447763Y-129253406D01*
X51439815Y-129284498D01*
X51439628Y-129286590D01*
X51430308Y-129324578D01*
X51422577Y-129341240D01*
X51416912Y-129358677D01*
X51416912Y-129364194D01*
X51415500Y-129375870D01*
X50000500Y-129375870D01*
X50000500Y-127298500D01*
X50593000Y-127298500D01*
X50593000Y-127496324D01*
X50599402Y-127555875D01*
X50649647Y-127690589D01*
X50735811Y-127805688D01*
X50850910Y-127891852D01*
X50985624Y-127942097D01*
X51045176Y-127948500D01*
X51693000Y-127948500D01*
X51693000Y-127298500D01*
X52193000Y-127298500D01*
X52193000Y-127948500D01*
X52840824Y-127948500D01*
X52900375Y-127942097D01*
X53035089Y-127891852D01*
X53150188Y-127805688D01*
X53236352Y-127690589D01*
X53286597Y-127555875D01*
X53293000Y-127496324D01*
X53293000Y-127298500D01*
X52193000Y-127298500D01*
X51693000Y-127298500D01*
X50593000Y-127298500D01*
X50000500Y-127298500D01*
X50000500Y-126798500D01*
X50593000Y-126798500D01*
X53293000Y-126798500D01*
X53293000Y-126600676D01*
X53286597Y-126541124D01*
X53236352Y-126406410D01*
X53150188Y-126291311D01*
X53035089Y-126205147D01*
X52900375Y-126154902D01*
X52840824Y-126148500D01*
X52549840Y-126148500D01*
X52482801Y-126128816D01*
X52437046Y-126076012D01*
X52427102Y-126006854D01*
X52434438Y-125955823D01*
X52448647Y-125857000D01*
X52428642Y-125717858D01*
X52428165Y-125714542D01*
X52368376Y-125583625D01*
X52274129Y-125474857D01*
X52200461Y-125427514D01*
X52158668Y-125382625D01*
X52143500Y-125323198D01*
X52143500Y-124272999D01*
X52160113Y-124210999D01*
X52205500Y-124165612D01*
X52267500Y-124148999D01*
X52802899Y-124148999D01*
X52817555Y-124146084D01*
X52832213Y-124143169D01*
X52865457Y-124120957D01*
X52887669Y-124087713D01*
X52893500Y-124058399D01*
X52893499Y-123238602D01*
X52893498Y-123238598D01*
X52887669Y-123209287D01*
X52865456Y-123176042D01*
X52832212Y-123153830D01*
X52802901Y-123148000D01*
X51083100Y-123148000D01*
X51053787Y-123153830D01*
X51020542Y-123176043D01*
X50998330Y-123209287D01*
X50992500Y-123238598D01*
X50992500Y-124058399D01*
X50998330Y-124087712D01*
X51020543Y-124120957D01*
X51053787Y-124143169D01*
X51083099Y-124149000D01*
X51083101Y-124149000D01*
X51618500Y-124149000D01*
X51680500Y-124165613D01*
X51725887Y-124211000D01*
X51742500Y-124273000D01*
X51742500Y-125323198D01*
X51727332Y-125382625D01*
X51685539Y-125427514D01*
X51611870Y-125474857D01*
X51517623Y-125583625D01*
X51457834Y-125714542D01*
X51437353Y-125857000D01*
X51458898Y-126006854D01*
X51448954Y-126076012D01*
X51403199Y-126128816D01*
X51336160Y-126148500D01*
X51045176Y-126148500D01*
X50985624Y-126154902D01*
X50850910Y-126205147D01*
X50735811Y-126291311D01*
X50649647Y-126406410D01*
X50599402Y-126541124D01*
X50593000Y-126600676D01*
X50593000Y-126798500D01*
X50000500Y-126798500D01*
X50000500Y-121088000D01*
X50405704Y-121088000D01*
X50405900Y-121090488D01*
X50451719Y-121248200D01*
X50535317Y-121389557D01*
X50651442Y-121505682D01*
X50792802Y-121589282D01*
X50950506Y-121635099D01*
X50987361Y-121638000D01*
X51390500Y-121638000D01*
X51390500Y-121088000D01*
X51890500Y-121088000D01*
X51890500Y-121638000D01*
X52293639Y-121638000D01*
X52330493Y-121635099D01*
X52488197Y-121589282D01*
X52629557Y-121505682D01*
X52745682Y-121389557D01*
X52829280Y-121248200D01*
X52875099Y-121090488D01*
X52875295Y-121088000D01*
X51890500Y-121088000D01*
X51390500Y-121088000D01*
X50405704Y-121088000D01*
X50000500Y-121088000D01*
X50000500Y-120587999D01*
X50405704Y-120587999D01*
X50405705Y-120588000D01*
X51390500Y-120588000D01*
X51390500Y-120038000D01*
X50987361Y-120038000D01*
X50950506Y-120040900D01*
X50792802Y-120086717D01*
X50651442Y-120170317D01*
X50535317Y-120286442D01*
X50451719Y-120427799D01*
X50405900Y-120585511D01*
X50405704Y-120587999D01*
X50000500Y-120587999D01*
X50000500Y-117810197D01*
X50681500Y-117810197D01*
X50695163Y-117878887D01*
X50747213Y-117956785D01*
X50796391Y-117989645D01*
X50836858Y-118034294D01*
X50851500Y-118092747D01*
X50851500Y-118294368D01*
X50847002Y-118320834D01*
X50850721Y-118353841D01*
X50851500Y-118367722D01*
X50851500Y-118372089D01*
X50852473Y-118376353D01*
X50854800Y-118390056D01*
X50858517Y-118423054D01*
X50863174Y-118434297D01*
X50874625Y-118448656D01*
X50897746Y-118494996D01*
X50899924Y-118546737D01*
X50880779Y-118594856D01*
X50817034Y-118690259D01*
X50802500Y-118763325D01*
X50802500Y-119112675D01*
X50817033Y-119185738D01*
X50817033Y-119185739D01*
X50817034Y-119185740D01*
X50872399Y-119268601D01*
X50955260Y-119323966D01*
X50990290Y-119330934D01*
X51028325Y-119338500D01*
X51028326Y-119338500D01*
X52252674Y-119338500D01*
X52252675Y-119338500D01*
X52290710Y-119330934D01*
X52325740Y-119323966D01*
X52408601Y-119268601D01*
X52463966Y-119185740D01*
X52478500Y-119112674D01*
X52478500Y-119069500D01*
X52495113Y-119007500D01*
X52540500Y-118962113D01*
X52602500Y-118945500D01*
X52674653Y-118945500D01*
X52741692Y-118965184D01*
X52787447Y-119017988D01*
X52787623Y-119018374D01*
X52881870Y-119127141D01*
X52881872Y-119127143D01*
X53002947Y-119204953D01*
X53137712Y-119244523D01*
X53188347Y-119273757D01*
X53213000Y-119312117D01*
X53237653Y-119273757D01*
X53288288Y-119244523D01*
X53423053Y-119204953D01*
X53544128Y-119127143D01*
X53638377Y-119018373D01*
X53698165Y-118887457D01*
X53718647Y-118745000D01*
X53698165Y-118602543D01*
X53694654Y-118594856D01*
X53638376Y-118471625D01*
X53544129Y-118362858D01*
X53544128Y-118362857D01*
X53423053Y-118285047D01*
X53284961Y-118244500D01*
X53141039Y-118244500D01*
X53002947Y-118285047D01*
X52881870Y-118362858D01*
X52787623Y-118471625D01*
X52787447Y-118472012D01*
X52741692Y-118524816D01*
X52674653Y-118544500D01*
X52626848Y-118544500D01*
X52565073Y-118528017D01*
X52519722Y-118482949D01*
X52502850Y-118421279D01*
X52518945Y-118359402D01*
X52563726Y-118313768D01*
X52599291Y-118292734D01*
X52712735Y-118179290D01*
X52794406Y-118041192D01*
X52839166Y-117887127D01*
X52841931Y-117852000D01*
X51946000Y-117852000D01*
X51884000Y-117835387D01*
X51838613Y-117790000D01*
X51822000Y-117728000D01*
X51822000Y-117476000D01*
X51838613Y-117414000D01*
X51884000Y-117368613D01*
X51946000Y-117352000D01*
X52841931Y-117352000D01*
X52839166Y-117316872D01*
X52794406Y-117162807D01*
X52720075Y-117037120D01*
X52702811Y-116974973D01*
X52719097Y-116912562D01*
X52764526Y-116866775D01*
X52826807Y-116849999D01*
X52939635Y-116849999D01*
X52975912Y-116847144D01*
X53131196Y-116802031D01*
X53270379Y-116719718D01*
X53384718Y-116605379D01*
X53398544Y-116582000D01*
X53986210Y-116582000D01*
X53987854Y-116602915D01*
X54032967Y-116758194D01*
X54115281Y-116897379D01*
X54229620Y-117011718D01*
X54368803Y-117094031D01*
X54515000Y-117136504D01*
X54515000Y-116582000D01*
X53986210Y-116582000D01*
X53398544Y-116582000D01*
X53467031Y-116466196D01*
X53509504Y-116320000D01*
X50884496Y-116320000D01*
X50926968Y-116466196D01*
X51009281Y-116605379D01*
X51123620Y-116719718D01*
X51262803Y-116802031D01*
X51365433Y-116831847D01*
X51414292Y-116859209D01*
X51446131Y-116905276D01*
X51454457Y-116960653D01*
X51437571Y-117014046D01*
X51369763Y-117128702D01*
X51335653Y-117166089D01*
X51289447Y-117186734D01*
X51238840Y-117187197D01*
X51210198Y-117181500D01*
X51210196Y-117181500D01*
X50893804Y-117181500D01*
X50893803Y-117181500D01*
X50825112Y-117195163D01*
X50747213Y-117247213D01*
X50695163Y-117325112D01*
X50681500Y-117393803D01*
X50681500Y-117810197D01*
X50000500Y-117810197D01*
X50000500Y-111176960D01*
X50014015Y-111120665D01*
X50051615Y-111076642D01*
X50105102Y-111054487D01*
X50162818Y-111059029D01*
X50212181Y-111089279D01*
X50234620Y-111111718D01*
X50373805Y-111194032D01*
X50529082Y-111239144D01*
X50549999Y-111240790D01*
X50550000Y-111240790D01*
X50550000Y-110336000D01*
X50566613Y-110274000D01*
X50612000Y-110228613D01*
X50674000Y-110212000D01*
X50926000Y-110212000D01*
X50988000Y-110228613D01*
G37*
G04 #@! TD.AperFunction*
G04 #@! TA.AperFunction,Conductor*
G36*
X55084500Y-113415113D02*
G01*
X55129887Y-113460500D01*
X55146500Y-113522500D01*
X55146500Y-114624500D01*
X55129887Y-114686500D01*
X55084500Y-114731887D01*
X55022500Y-114748500D01*
X54251733Y-114748500D01*
X54216798Y-114743477D01*
X54185461Y-114729166D01*
X54046962Y-114688500D01*
X54046961Y-114688500D01*
X53903039Y-114688500D01*
X53903038Y-114688500D01*
X53826456Y-114710986D01*
X53766090Y-114713373D01*
X53711761Y-114686952D01*
X53676364Y-114637994D01*
X53668302Y-114578126D01*
X53671362Y-114550974D01*
X53671361Y-114550973D01*
X53672417Y-114541611D01*
X53693185Y-114485645D01*
X53737697Y-114445868D01*
X53795637Y-114431499D01*
X54063899Y-114431499D01*
X54078555Y-114428583D01*
X54093213Y-114425669D01*
X54102600Y-114419396D01*
X54135494Y-114403839D01*
X54171489Y-114398500D01*
X54796500Y-114398500D01*
X54796500Y-113522500D01*
X54813113Y-113460500D01*
X54858500Y-113415113D01*
X54920500Y-113398500D01*
X55022500Y-113398500D01*
X55084500Y-113415113D01*
G37*
G04 #@! TD.AperFunction*
G04 #@! TA.AperFunction,Conductor*
G36*
X54636900Y-109333269D02*
G01*
X55079548Y-109775917D01*
X55194806Y-109660659D01*
X55250394Y-109628565D01*
X55314581Y-109628565D01*
X55370169Y-109660659D01*
X55550162Y-109840652D01*
X55550165Y-109840654D01*
X55550166Y-109840655D01*
X55590475Y-109867588D01*
X55654074Y-109880239D01*
X55717674Y-109867588D01*
X55757982Y-109840655D01*
X55869071Y-109729566D01*
X55896004Y-109689258D01*
X55897180Y-109683344D01*
X55915693Y-109638648D01*
X55949906Y-109604434D01*
X55994602Y-109585921D01*
X56000516Y-109584745D01*
X56040824Y-109557812D01*
X56151913Y-109446723D01*
X56151913Y-109446722D01*
X56158467Y-109440169D01*
X56207830Y-109409919D01*
X56265546Y-109405377D01*
X56319033Y-109427532D01*
X56356633Y-109471555D01*
X56370148Y-109527850D01*
X56370148Y-109791940D01*
X56360709Y-109839393D01*
X56333829Y-109879621D01*
X55418270Y-110795181D01*
X55378042Y-110822061D01*
X55350470Y-110827545D01*
X55350783Y-110829117D01*
X55270112Y-110845163D01*
X55192213Y-110897213D01*
X55140163Y-110975112D01*
X55126500Y-111043803D01*
X55126500Y-111287588D01*
X55117061Y-111335041D01*
X55090183Y-111375266D01*
X55005254Y-111460196D01*
X54924208Y-111541242D01*
X54902310Y-111556779D01*
X54881598Y-111582750D01*
X54872345Y-111593104D01*
X54869252Y-111596196D01*
X54866922Y-111599905D01*
X54858889Y-111611226D01*
X54838176Y-111637200D01*
X54833517Y-111648447D01*
X54829800Y-111681441D01*
X54827475Y-111695133D01*
X54826500Y-111699407D01*
X54826500Y-111703778D01*
X54825721Y-111717659D01*
X54822002Y-111750665D01*
X54826500Y-111777132D01*
X54826500Y-112748868D01*
X54819541Y-112789823D01*
X54813638Y-112806690D01*
X54811123Y-112823737D01*
X54772034Y-112873702D01*
X54713348Y-112897795D01*
X54593133Y-112913620D01*
X54450214Y-112972819D01*
X54353985Y-113046658D01*
X54290653Y-113071685D01*
X54223655Y-113059494D01*
X54173198Y-113013762D01*
X54154499Y-112948282D01*
X54154499Y-112521101D01*
X54148669Y-112491787D01*
X54126456Y-112458542D01*
X54093212Y-112436330D01*
X54063901Y-112430500D01*
X54063899Y-112430500D01*
X53829095Y-112430500D01*
X53775293Y-112418220D01*
X53732148Y-112383813D01*
X53722119Y-112371237D01*
X53714076Y-112359901D01*
X53711750Y-112356200D01*
X53708654Y-112353104D01*
X53699398Y-112342747D01*
X53682224Y-112321212D01*
X53682222Y-112321211D01*
X53678685Y-112316775D01*
X53656786Y-112301237D01*
X52587358Y-111231809D01*
X52555694Y-111177786D01*
X52554465Y-111115180D01*
X52583983Y-111059956D01*
X52636722Y-111026197D01*
X52699231Y-111022511D01*
X52724311Y-111027500D01*
X53035958Y-111027500D01*
X53097395Y-111043790D01*
X53142690Y-111088379D01*
X53198281Y-111182379D01*
X53312620Y-111296718D01*
X53451803Y-111379031D01*
X53598000Y-111421504D01*
X53598000Y-110867000D01*
X54098000Y-110867000D01*
X54098000Y-111421504D01*
X54244196Y-111379031D01*
X54383379Y-111296718D01*
X54497718Y-111182379D01*
X54580032Y-111043194D01*
X54625144Y-110887917D01*
X54626790Y-110867000D01*
X54098000Y-110867000D01*
X53598000Y-110867000D01*
X53598000Y-110491000D01*
X53614613Y-110429000D01*
X53660000Y-110383613D01*
X53722000Y-110367000D01*
X54626790Y-110367000D01*
X54625145Y-110346088D01*
X54616176Y-110315217D01*
X54612099Y-110266154D01*
X54627435Y-110219371D01*
X54659766Y-110182244D01*
X54717604Y-110137863D01*
X54902772Y-109952695D01*
X54460123Y-109510046D01*
X54428029Y-109454459D01*
X54428029Y-109390271D01*
X54460123Y-109334684D01*
X54461538Y-109333269D01*
X54517125Y-109301175D01*
X54581313Y-109301175D01*
X54636900Y-109333269D01*
G37*
G04 #@! TD.AperFunction*
G04 #@! TA.AperFunction,Conductor*
G36*
X59934927Y-108255681D02*
G01*
X59982142Y-108301240D01*
X59999500Y-108364513D01*
X59999500Y-112880821D01*
X59980274Y-112947142D01*
X59928558Y-112992896D01*
X59860388Y-113003897D01*
X59796905Y-112976732D01*
X59757794Y-112919825D01*
X59713093Y-112784926D01*
X59624885Y-112641918D01*
X59506081Y-112523114D01*
X59363073Y-112434907D01*
X59301536Y-112414515D01*
X59249118Y-112380581D01*
X59219883Y-112325404D01*
X59221246Y-112262976D01*
X59252858Y-112209129D01*
X59322799Y-112139189D01*
X59370379Y-112037153D01*
X59376500Y-111990659D01*
X59376499Y-111478342D01*
X59370379Y-111431847D01*
X59339757Y-111366177D01*
X59328191Y-111317378D01*
X59336900Y-111267990D01*
X59364458Y-111226091D01*
X59411789Y-111178760D01*
X59433687Y-111163222D01*
X59437222Y-111158788D01*
X59437224Y-111158788D01*
X59454388Y-111137265D01*
X59463661Y-111126889D01*
X59466747Y-111123803D01*
X59468719Y-111120665D01*
X59469070Y-111120105D01*
X59477112Y-111108769D01*
X59494290Y-111087231D01*
X59494290Y-111087226D01*
X59497831Y-111082788D01*
X59502478Y-111071569D01*
X59503113Y-111065925D01*
X59503115Y-111065924D01*
X59506197Y-111038557D01*
X59508529Y-111024842D01*
X59509500Y-111020589D01*
X59509500Y-111016212D01*
X59510278Y-111002345D01*
X59513362Y-110974974D01*
X59513361Y-110974971D01*
X59514437Y-110965422D01*
X59531749Y-110914811D01*
X59568763Y-110876205D01*
X59615786Y-110844786D01*
X59667836Y-110766888D01*
X59681500Y-110698196D01*
X59681500Y-110281804D01*
X59667836Y-110213112D01*
X59646428Y-110181073D01*
X59625577Y-110115591D01*
X59642798Y-110049061D01*
X59690031Y-109969194D01*
X59732504Y-109823000D01*
X58802000Y-109823000D01*
X58740000Y-109806387D01*
X58694613Y-109761000D01*
X58678000Y-109699000D01*
X58678000Y-109447000D01*
X58694613Y-109385000D01*
X58740000Y-109339613D01*
X58802000Y-109323000D01*
X59732504Y-109323000D01*
X59690031Y-109176803D01*
X59607718Y-109037620D01*
X59493379Y-108923281D01*
X59399379Y-108867690D01*
X59354790Y-108822395D01*
X59338500Y-108760958D01*
X59338500Y-108444355D01*
X59351616Y-108388850D01*
X59388191Y-108345087D01*
X59440485Y-108322325D01*
X59473210Y-108324080D01*
X59473210Y-108323500D01*
X59634961Y-108323500D01*
X59773053Y-108282953D01*
X59808461Y-108260197D01*
X59871074Y-108240592D01*
X59934927Y-108255681D01*
G37*
G04 #@! TD.AperFunction*
G04 #@! TA.AperFunction,Conductor*
G36*
X50159095Y-109173447D02*
G01*
X50275083Y-109207144D01*
X50275229Y-109207156D01*
X50275859Y-109207369D01*
X50287287Y-109210690D01*
X50287139Y-109211199D01*
X50333035Y-109226779D01*
X50374473Y-109271606D01*
X50389500Y-109330774D01*
X50389500Y-109649958D01*
X50373210Y-109711395D01*
X50328621Y-109756690D01*
X50234620Y-109812281D01*
X50212181Y-109834721D01*
X50162818Y-109864971D01*
X50105102Y-109869513D01*
X50051615Y-109847358D01*
X50014015Y-109803335D01*
X50000500Y-109747040D01*
X50000500Y-109292523D01*
X50013576Y-109237098D01*
X50050048Y-109193362D01*
X50102222Y-109170541D01*
X50159095Y-109173447D01*
G37*
G04 #@! TD.AperFunction*
G04 #@! TA.AperFunction,Conductor*
G36*
X56384091Y-93481439D02*
G01*
X56424319Y-93508319D01*
X56986681Y-94070681D01*
X57013561Y-94110909D01*
X57023000Y-94158362D01*
X57023000Y-99112088D01*
X57009485Y-99168383D01*
X56971885Y-99212406D01*
X56918398Y-99234561D01*
X56860682Y-99230019D01*
X56811319Y-99199769D01*
X56624819Y-99013270D01*
X56597939Y-98973042D01*
X56588500Y-98925589D01*
X56588500Y-98764392D01*
X56603142Y-98705938D01*
X56643607Y-98661291D01*
X56673391Y-98641391D01*
X56726546Y-98561839D01*
X56740500Y-98491688D01*
X56740500Y-98104312D01*
X56726546Y-98034161D01*
X56673391Y-97954609D01*
X56626634Y-97923367D01*
X56615609Y-97916000D01*
X56575142Y-97871351D01*
X56560500Y-97812898D01*
X56560500Y-97767102D01*
X56575142Y-97708649D01*
X56615609Y-97664000D01*
X56631948Y-97653081D01*
X56673391Y-97625391D01*
X56726546Y-97545839D01*
X56740500Y-97475688D01*
X56740500Y-97088312D01*
X56726546Y-97018161D01*
X56694681Y-96970472D01*
X56673391Y-96938608D01*
X56615396Y-96899858D01*
X56593839Y-96885454D01*
X56558763Y-96878476D01*
X56523689Y-96871500D01*
X56523688Y-96871500D01*
X56212043Y-96871500D01*
X56150606Y-96855210D01*
X56105311Y-96810622D01*
X56049717Y-96716619D01*
X55935379Y-96602281D01*
X55796196Y-96519968D01*
X55650000Y-96477496D01*
X55650000Y-98424000D01*
X55633387Y-98486000D01*
X55588000Y-98531387D01*
X55526000Y-98548000D01*
X55274000Y-98548000D01*
X55212000Y-98531387D01*
X55166613Y-98486000D01*
X55150000Y-98424000D01*
X55150000Y-97532000D01*
X54621210Y-97532000D01*
X54607891Y-97546406D01*
X54607888Y-97546427D01*
X54571616Y-97593951D01*
X54517322Y-97618980D01*
X54457627Y-97615694D01*
X54406408Y-97584858D01*
X54363820Y-97542271D01*
X54336939Y-97502042D01*
X54327500Y-97454589D01*
X54327500Y-97215311D01*
X54325184Y-97203672D01*
X54313546Y-97145161D01*
X54275560Y-97088311D01*
X54260391Y-97065608D01*
X54210090Y-97031999D01*
X54621209Y-97031999D01*
X54621210Y-97032000D01*
X55150000Y-97032000D01*
X55150000Y-96477496D01*
X55003803Y-96519968D01*
X54864620Y-96602281D01*
X54750281Y-96716620D01*
X54667967Y-96855805D01*
X54622855Y-97011082D01*
X54621209Y-97031999D01*
X54210090Y-97031999D01*
X54180839Y-97012454D01*
X54145763Y-97005476D01*
X54110689Y-96998500D01*
X54110688Y-96998500D01*
X53799043Y-96998500D01*
X53737606Y-96982210D01*
X53692311Y-96937622D01*
X53636717Y-96843619D01*
X53522379Y-96729281D01*
X53383196Y-96646968D01*
X53237000Y-96604496D01*
X53237000Y-97579131D01*
X53255561Y-97606909D01*
X53265000Y-97654362D01*
X53265000Y-98551000D01*
X53248387Y-98613000D01*
X53203000Y-98658387D01*
X53141000Y-98675000D01*
X52889000Y-98675000D01*
X52827000Y-98658387D01*
X52781613Y-98613000D01*
X52765000Y-98551000D01*
X52765000Y-98254869D01*
X52746439Y-98227091D01*
X52737000Y-98179638D01*
X52737000Y-96604496D01*
X52590803Y-96646968D01*
X52451620Y-96729281D01*
X52392992Y-96787910D01*
X52335977Y-96820377D01*
X52270377Y-96819206D01*
X52141961Y-96781500D01*
X51998039Y-96781500D01*
X51859947Y-96822047D01*
X51738870Y-96899858D01*
X51644623Y-97008625D01*
X51584834Y-97139542D01*
X51564353Y-97282000D01*
X51584834Y-97424457D01*
X51644623Y-97555374D01*
X51738870Y-97664142D01*
X51812539Y-97711486D01*
X51854332Y-97756375D01*
X51869500Y-97815802D01*
X51869500Y-97923367D01*
X51854858Y-97981820D01*
X51814391Y-98026469D01*
X51743701Y-98073702D01*
X51688102Y-98156912D01*
X51643453Y-98197379D01*
X51585000Y-98212021D01*
X51526547Y-98197379D01*
X51481898Y-98156912D01*
X51426298Y-98073702D01*
X51344264Y-98018888D01*
X51271929Y-98004500D01*
X51271928Y-98004500D01*
X50928072Y-98004500D01*
X50928071Y-98004500D01*
X50855735Y-98018888D01*
X50773701Y-98073701D01*
X50718888Y-98155735D01*
X50704500Y-98228071D01*
X50704500Y-98621929D01*
X50718888Y-98694264D01*
X50773701Y-98776298D01*
X50855735Y-98831111D01*
X50928071Y-98845500D01*
X50928072Y-98845500D01*
X50983500Y-98845500D01*
X51045500Y-98862113D01*
X51090887Y-98907500D01*
X51107500Y-98969500D01*
X51107500Y-98970500D01*
X51090887Y-99032500D01*
X51045500Y-99077887D01*
X50983500Y-99094500D01*
X50574737Y-99094500D01*
X50506609Y-99104426D01*
X50401515Y-99155802D01*
X50318802Y-99238515D01*
X50267426Y-99343609D01*
X50257500Y-99411737D01*
X50257500Y-100028263D01*
X50267426Y-100096390D01*
X50318802Y-100201484D01*
X50401515Y-100284197D01*
X50401516Y-100284197D01*
X50401517Y-100284198D01*
X50506607Y-100335573D01*
X50533860Y-100339543D01*
X50574737Y-100345500D01*
X50574740Y-100345500D01*
X52041260Y-100345500D01*
X52041263Y-100345500D01*
X52075326Y-100340536D01*
X52109393Y-100335573D01*
X52214483Y-100284198D01*
X52221091Y-100277589D01*
X52273838Y-100246291D01*
X52335132Y-100244101D01*
X52389977Y-100271555D01*
X52424957Y-100321934D01*
X52446647Y-100380089D01*
X52532811Y-100495188D01*
X52647911Y-100581352D01*
X52708833Y-100604075D01*
X52751070Y-100630514D01*
X52779488Y-100671444D01*
X52789500Y-100720257D01*
X52789500Y-101203274D01*
X52778245Y-101254893D01*
X52746525Y-101297141D01*
X52700096Y-101322350D01*
X52618805Y-101345967D01*
X52479620Y-101428281D01*
X52365281Y-101542620D01*
X52282967Y-101681805D01*
X52237855Y-101837082D01*
X52236209Y-101857999D01*
X52236210Y-101858000D01*
X53141000Y-101858000D01*
X53203000Y-101874613D01*
X53248387Y-101920000D01*
X53265000Y-101982000D01*
X53265000Y-102234000D01*
X53248387Y-102296000D01*
X53203000Y-102341387D01*
X53141000Y-102358000D01*
X52318044Y-102358000D01*
X52270591Y-102348561D01*
X52230363Y-102321681D01*
X52214484Y-102305802D01*
X52160712Y-102279515D01*
X52109393Y-102254427D01*
X52109391Y-102254426D01*
X52109390Y-102254426D01*
X52041263Y-102244500D01*
X52041260Y-102244500D01*
X50574740Y-102244500D01*
X50574737Y-102244500D01*
X50506609Y-102254426D01*
X50401515Y-102305802D01*
X50318802Y-102388515D01*
X50267426Y-102493609D01*
X50257500Y-102561737D01*
X50257500Y-103178263D01*
X50267426Y-103246390D01*
X50267426Y-103246391D01*
X50267427Y-103246393D01*
X50277626Y-103267255D01*
X50318802Y-103351484D01*
X50401517Y-103434199D01*
X50437960Y-103452015D01*
X50488688Y-103497753D01*
X50507500Y-103563415D01*
X50507500Y-104500868D01*
X50503002Y-104527334D01*
X50506721Y-104560341D01*
X50507500Y-104574222D01*
X50507500Y-104578589D01*
X50508473Y-104582853D01*
X50510800Y-104596556D01*
X50514517Y-104629554D01*
X50519176Y-104640800D01*
X50539888Y-104666773D01*
X50547928Y-104678103D01*
X50550252Y-104681801D01*
X50553336Y-104684885D01*
X50562601Y-104695252D01*
X50583312Y-104721222D01*
X50605212Y-104736762D01*
X51114506Y-105246056D01*
X51146751Y-105302214D01*
X51146289Y-105366969D01*
X51113245Y-105422661D01*
X51056633Y-105454101D01*
X50991890Y-105452714D01*
X50871961Y-105417500D01*
X50728039Y-105417500D01*
X50589947Y-105458047D01*
X50468870Y-105535858D01*
X50374623Y-105644625D01*
X50314834Y-105775542D01*
X50294353Y-105917999D01*
X50314834Y-106060457D01*
X50334221Y-106102907D01*
X50344648Y-106168298D01*
X50341002Y-106200663D01*
X50345500Y-106227132D01*
X50345500Y-106994853D01*
X50330858Y-107053306D01*
X50290390Y-107097955D01*
X50193390Y-107162768D01*
X50130584Y-107183517D01*
X50066047Y-107169024D01*
X50018142Y-107123415D01*
X50000500Y-107059666D01*
X50000500Y-95882000D01*
X50017113Y-95820000D01*
X50062500Y-95774613D01*
X50124500Y-95758000D01*
X55372000Y-95758000D01*
X55372000Y-95208500D01*
X55388613Y-95146500D01*
X55434000Y-95101113D01*
X55496000Y-95084500D01*
X55993655Y-95084500D01*
X55996423Y-95083600D01*
X56020753Y-95071203D01*
X56023109Y-95069490D01*
X56023112Y-95069490D01*
X56023113Y-95069487D01*
X56025471Y-95067775D01*
X56044775Y-95048471D01*
X56046487Y-95046113D01*
X56046490Y-95046112D01*
X56046490Y-95046109D01*
X56048203Y-95043753D01*
X56060600Y-95019423D01*
X56061500Y-95016655D01*
X56061500Y-94051348D01*
X56061500Y-94051346D01*
X56061498Y-94051344D01*
X56060601Y-94048581D01*
X56048200Y-94024242D01*
X56044783Y-94019539D01*
X56025463Y-94000219D01*
X56023112Y-93998511D01*
X56023112Y-93998510D01*
X56023110Y-93998509D01*
X56020761Y-93996802D01*
X55996416Y-93984397D01*
X55993656Y-93983500D01*
X55993654Y-93983500D01*
X55976917Y-93983500D01*
X55496000Y-93983500D01*
X55434000Y-93966887D01*
X55388613Y-93921500D01*
X55372000Y-93859500D01*
X55372000Y-93596000D01*
X55388613Y-93534000D01*
X55434000Y-93488613D01*
X55496000Y-93472000D01*
X56336638Y-93472000D01*
X56384091Y-93481439D01*
G37*
G04 #@! TD.AperFunction*
G04 #@! TA.AperFunction,Conductor*
G36*
X57749295Y-103126867D02*
G01*
X57796101Y-103168460D01*
X57814702Y-103196298D01*
X57862500Y-103228236D01*
X57863391Y-103228831D01*
X57903858Y-103273480D01*
X57918500Y-103331933D01*
X57918500Y-103451012D01*
X57903856Y-103509469D01*
X57893124Y-103521307D01*
X57894312Y-103522101D01*
X57827454Y-103622160D01*
X57814617Y-103686696D01*
X57788853Y-103741169D01*
X57780285Y-103747523D01*
X57799133Y-103768616D01*
X57813500Y-103826553D01*
X57813500Y-104020050D01*
X57804061Y-104067503D01*
X57777181Y-104107731D01*
X56952320Y-104932590D01*
X56896732Y-104964684D01*
X56832545Y-104964684D01*
X56776958Y-104932590D01*
X56775898Y-104931530D01*
X56743804Y-104875943D01*
X56743804Y-104811755D01*
X56775898Y-104756168D01*
X57419454Y-104112611D01*
X57416648Y-104069796D01*
X57424330Y-104018007D01*
X57452701Y-103974005D01*
X57471289Y-103955417D01*
X57493187Y-103939879D01*
X57496722Y-103935445D01*
X57496724Y-103935445D01*
X57513888Y-103913922D01*
X57523161Y-103903546D01*
X57526247Y-103900460D01*
X57528569Y-103896764D01*
X57536612Y-103885426D01*
X57553790Y-103863888D01*
X57553790Y-103863883D01*
X57557331Y-103859445D01*
X57561978Y-103848226D01*
X57562613Y-103842582D01*
X57562615Y-103842581D01*
X57565697Y-103815214D01*
X57568034Y-103801477D01*
X57568616Y-103798930D01*
X57595528Y-103745650D01*
X57601915Y-103741119D01*
X57583642Y-103720957D01*
X57569000Y-103662504D01*
X57569000Y-103237352D01*
X57584811Y-103176763D01*
X57628210Y-103131625D01*
X57688132Y-103113448D01*
X57749295Y-103126867D01*
G37*
G04 #@! TD.AperFunction*
G04 #@! TA.AperFunction,Conductor*
G36*
X59342000Y-100731613D02*
G01*
X59387387Y-100777000D01*
X59404000Y-100839000D01*
X59404000Y-101769504D01*
X59550196Y-101727031D01*
X59689379Y-101644718D01*
X59787819Y-101546279D01*
X59837182Y-101516029D01*
X59894898Y-101511487D01*
X59948385Y-101533642D01*
X59985985Y-101577665D01*
X59999500Y-101633960D01*
X59999500Y-103217040D01*
X59985985Y-103273335D01*
X59948385Y-103317358D01*
X59894898Y-103339513D01*
X59837182Y-103334971D01*
X59787819Y-103304721D01*
X59689379Y-103206281D01*
X59550196Y-103123968D01*
X59404000Y-103081496D01*
X59404000Y-104012000D01*
X59387387Y-104074000D01*
X59342000Y-104119387D01*
X59280000Y-104136000D01*
X59028000Y-104136000D01*
X58966000Y-104119387D01*
X58920613Y-104074000D01*
X58904000Y-104012000D01*
X58904000Y-103081496D01*
X58745094Y-103127661D01*
X58688221Y-103130566D01*
X58636048Y-103107745D01*
X58599576Y-103064009D01*
X58586500Y-103008584D01*
X58586500Y-102698071D01*
X58572111Y-102625735D01*
X58517298Y-102543701D01*
X58434087Y-102488102D01*
X58393620Y-102443453D01*
X58378978Y-102385000D01*
X58393620Y-102326547D01*
X58434087Y-102281898D01*
X58517298Y-102226298D01*
X58519818Y-102222526D01*
X58572111Y-102144265D01*
X58586500Y-102071928D01*
X58586500Y-101842416D01*
X58599576Y-101786991D01*
X58636048Y-101743255D01*
X58688221Y-101720434D01*
X58745094Y-101723339D01*
X58904000Y-101769504D01*
X58904000Y-100839000D01*
X58920613Y-100777000D01*
X58966000Y-100731613D01*
X59028000Y-100715000D01*
X59280000Y-100715000D01*
X59342000Y-100731613D01*
G37*
G04 #@! TD.AperFunction*
G04 #@! TA.AperFunction,Conductor*
G36*
X55536035Y-101679145D02*
G01*
X55574902Y-101705451D01*
X55985511Y-102116061D01*
X56391672Y-102522222D01*
X56418552Y-102562450D01*
X56427991Y-102609903D01*
X56427991Y-102849474D01*
X56413185Y-102908233D01*
X56372303Y-102952960D01*
X56315108Y-102972975D01*
X56255259Y-102963497D01*
X56207046Y-102926790D01*
X56173082Y-102884203D01*
X56165026Y-102872847D01*
X56162709Y-102869159D01*
X56159617Y-102866067D01*
X56150351Y-102855699D01*
X56129652Y-102829743D01*
X56107755Y-102814206D01*
X56025759Y-102732211D01*
X56010223Y-102710313D01*
X55984251Y-102689601D01*
X55973884Y-102680336D01*
X55970800Y-102677252D01*
X55967102Y-102674928D01*
X55955772Y-102666888D01*
X55929799Y-102646176D01*
X55918553Y-102641517D01*
X55885555Y-102637800D01*
X55871854Y-102635473D01*
X55867589Y-102634500D01*
X55867588Y-102634500D01*
X55863221Y-102634500D01*
X55849340Y-102633721D01*
X55816333Y-102630002D01*
X55789867Y-102634500D01*
X55344412Y-102634500D01*
X55296959Y-102625061D01*
X55256731Y-102598181D01*
X54961819Y-102303270D01*
X54934939Y-102263042D01*
X54925500Y-102215589D01*
X54925500Y-102036132D01*
X54929997Y-102009665D01*
X54926279Y-101976659D01*
X54925500Y-101962778D01*
X54925500Y-101958411D01*
X54924530Y-101954162D01*
X54922199Y-101940451D01*
X54919116Y-101913076D01*
X54919114Y-101913073D01*
X54916255Y-101887691D01*
X54909518Y-101865482D01*
X54924940Y-101802021D01*
X54970466Y-101755198D01*
X55033469Y-101738000D01*
X55237824Y-101738000D01*
X55297375Y-101731597D01*
X55443888Y-101676951D01*
X55490173Y-101669168D01*
X55536035Y-101679145D01*
G37*
G04 #@! TD.AperFunction*
G04 #@! TA.AperFunction,Conductor*
G36*
X59005392Y-76000972D02*
G01*
X59017433Y-76002025D01*
X59044880Y-76004426D01*
X59045961Y-76004526D01*
X59171776Y-76016918D01*
X59191685Y-76020541D01*
X59256467Y-76037899D01*
X59260203Y-76038966D01*
X59351570Y-76066682D01*
X59367959Y-76072952D01*
X59433867Y-76103686D01*
X59439867Y-76106685D01*
X59482639Y-76129548D01*
X59519046Y-76149008D01*
X59531715Y-76156791D01*
X59592889Y-76199625D01*
X59600430Y-76205346D01*
X59668455Y-76261172D01*
X59677472Y-76269345D01*
X59730653Y-76322526D01*
X59738826Y-76331543D01*
X59794652Y-76399568D01*
X59800373Y-76407109D01*
X59843207Y-76468283D01*
X59850990Y-76480952D01*
X59893304Y-76560114D01*
X59896328Y-76566163D01*
X59927041Y-76632027D01*
X59933319Y-76648436D01*
X59961008Y-76739713D01*
X59962123Y-76743616D01*
X59979454Y-76808298D01*
X59983082Y-76828238D01*
X59995456Y-76953882D01*
X59995581Y-76955223D01*
X59999028Y-76994604D01*
X59999500Y-77005416D01*
X59999500Y-90993571D01*
X59985170Y-91051438D01*
X59945491Y-91095929D01*
X59889635Y-91116763D01*
X59830512Y-91109122D01*
X59781787Y-91074774D01*
X59767128Y-91057857D01*
X59708999Y-91020500D01*
X59646053Y-90980047D01*
X59507961Y-90939500D01*
X59364039Y-90939500D01*
X59364038Y-90939500D01*
X59322547Y-90951682D01*
X59256948Y-90952852D01*
X59199934Y-90920385D01*
X59119425Y-90839876D01*
X59087908Y-90786368D01*
X59086287Y-90724288D01*
X59106840Y-90684817D01*
X59105342Y-90683952D01*
X59201250Y-90517835D01*
X59201249Y-90517835D01*
X59256497Y-90347803D01*
X59275185Y-90170000D01*
X59256497Y-89992197D01*
X59201250Y-89822165D01*
X59201250Y-89822164D01*
X59111859Y-89667334D01*
X58992228Y-89534472D01*
X58847596Y-89429389D01*
X58684264Y-89356669D01*
X58509393Y-89319500D01*
X58509391Y-89319500D01*
X58330609Y-89319500D01*
X58330607Y-89319500D01*
X58155735Y-89356669D01*
X57992408Y-89429387D01*
X57847768Y-89534474D01*
X57728140Y-89667334D01*
X57638749Y-89822164D01*
X57583503Y-89992195D01*
X57564815Y-90170000D01*
X57583503Y-90347804D01*
X57638749Y-90517835D01*
X57728140Y-90672665D01*
X57847771Y-90805527D01*
X57992403Y-90910610D01*
X58155735Y-90983330D01*
X58330607Y-91020500D01*
X58330609Y-91020500D01*
X58509391Y-91020500D01*
X58627909Y-90995308D01*
X58688904Y-90997704D01*
X58741368Y-91028917D01*
X58914381Y-91201930D01*
X58944354Y-91250452D01*
X58949438Y-91307258D01*
X58930353Y-91439999D01*
X58950834Y-91582457D01*
X59010623Y-91713374D01*
X59090213Y-91805226D01*
X59104872Y-91822143D01*
X59225947Y-91899953D01*
X59364039Y-91940500D01*
X59507961Y-91940500D01*
X59646053Y-91899953D01*
X59767128Y-91822143D01*
X59781785Y-91805226D01*
X59830512Y-91770878D01*
X59889635Y-91763237D01*
X59945491Y-91784071D01*
X59985170Y-91828562D01*
X59999500Y-91886429D01*
X59999500Y-100296040D01*
X59985985Y-100352335D01*
X59948385Y-100396358D01*
X59894898Y-100418513D01*
X59837182Y-100413971D01*
X59787819Y-100383721D01*
X59689379Y-100285281D01*
X59550197Y-100202969D01*
X59398405Y-100158870D01*
X59351976Y-100133661D01*
X59320255Y-100091412D01*
X59309000Y-100039793D01*
X59309000Y-93599002D01*
X59309000Y-93599000D01*
X58674000Y-92710000D01*
X58673998Y-92709997D01*
X57470000Y-91440000D01*
X57469997Y-91439999D01*
X56642000Y-91186000D01*
X56641999Y-91186000D01*
X55496000Y-91186000D01*
X55434000Y-91169387D01*
X55388613Y-91124000D01*
X55372000Y-91062000D01*
X55372000Y-88673124D01*
X57730426Y-88673124D01*
X57730427Y-88673125D01*
X57792610Y-88716666D01*
X57990840Y-88809102D01*
X58202113Y-88865712D01*
X58420000Y-88884775D01*
X58637886Y-88865712D01*
X58849159Y-88809102D01*
X59047385Y-88716667D01*
X59109572Y-88673124D01*
X58420001Y-87983553D01*
X58420000Y-87983553D01*
X57730426Y-88673124D01*
X55372000Y-88673124D01*
X55372000Y-87630000D01*
X57165224Y-87630000D01*
X57184287Y-87847886D01*
X57240898Y-88059161D01*
X57333331Y-88257386D01*
X57376873Y-88319571D01*
X57376875Y-88319572D01*
X58066447Y-87630001D01*
X58066447Y-87630000D01*
X58773553Y-87630000D01*
X59463124Y-88319572D01*
X59506667Y-88257385D01*
X59599102Y-88059159D01*
X59655712Y-87847886D01*
X59674775Y-87629999D01*
X59655712Y-87412113D01*
X59599102Y-87200840D01*
X59506667Y-87002615D01*
X59463123Y-86940428D01*
X58773553Y-87630000D01*
X58066447Y-87630000D01*
X57376875Y-86940427D01*
X57376874Y-86940428D01*
X57333333Y-87002611D01*
X57240897Y-87200840D01*
X57184287Y-87412113D01*
X57165224Y-87630000D01*
X55372000Y-87630000D01*
X55372000Y-86586875D01*
X57730427Y-86586875D01*
X58420000Y-87276447D01*
X58420001Y-87276447D01*
X59109572Y-86586875D01*
X59109571Y-86586873D01*
X59047386Y-86543331D01*
X58849161Y-86450898D01*
X58637886Y-86394287D01*
X58420000Y-86375224D01*
X58202113Y-86394287D01*
X57990840Y-86450897D01*
X57792611Y-86543333D01*
X57730428Y-86586874D01*
X57730427Y-86586875D01*
X55372000Y-86586875D01*
X55372000Y-81280000D01*
X56390353Y-81280000D01*
X56410834Y-81422457D01*
X56470623Y-81553374D01*
X56554906Y-81650642D01*
X56564872Y-81662143D01*
X56685947Y-81739953D01*
X56824039Y-81780500D01*
X56967961Y-81780500D01*
X57106053Y-81739953D01*
X57156136Y-81707766D01*
X57208450Y-81688960D01*
X57263728Y-81694903D01*
X57310852Y-81724401D01*
X57626325Y-82039875D01*
X57655165Y-82085143D01*
X57662171Y-82138360D01*
X57646031Y-82189552D01*
X57638750Y-82202163D01*
X57583503Y-82372195D01*
X57564815Y-82549999D01*
X57583503Y-82727804D01*
X57638749Y-82897835D01*
X57728138Y-83052662D01*
X57728141Y-83052665D01*
X57819637Y-83154281D01*
X57848627Y-83210778D01*
X57845847Y-83274220D01*
X57812025Y-83327966D01*
X57756032Y-83357922D01*
X57692552Y-83356229D01*
X57567462Y-83319500D01*
X57567461Y-83319500D01*
X57423539Y-83319500D01*
X57285447Y-83360047D01*
X57164370Y-83437858D01*
X57070123Y-83546625D01*
X57010334Y-83677542D01*
X56989853Y-83820000D01*
X57010334Y-83962457D01*
X57070123Y-84093374D01*
X57093844Y-84120749D01*
X57164372Y-84202143D01*
X57285447Y-84279953D01*
X57306458Y-84286122D01*
X57340675Y-84302171D01*
X57368470Y-84327785D01*
X57370813Y-84330723D01*
X57392713Y-84346262D01*
X57626324Y-84579873D01*
X57655165Y-84625143D01*
X57662171Y-84678360D01*
X57646031Y-84729552D01*
X57638750Y-84742163D01*
X57583503Y-84912195D01*
X57564815Y-85089999D01*
X57583503Y-85267804D01*
X57638749Y-85437835D01*
X57728140Y-85592665D01*
X57847771Y-85725527D01*
X57992403Y-85830610D01*
X58155735Y-85903330D01*
X58330607Y-85940500D01*
X58330609Y-85940500D01*
X58509391Y-85940500D01*
X58509393Y-85940500D01*
X58684264Y-85903330D01*
X58684265Y-85903329D01*
X58684267Y-85903329D01*
X58847593Y-85830612D01*
X58992230Y-85725526D01*
X59111859Y-85592665D01*
X59201250Y-85437835D01*
X59256497Y-85267803D01*
X59275185Y-85090000D01*
X59256497Y-84912197D01*
X59201250Y-84742165D01*
X59201250Y-84742164D01*
X59111859Y-84587334D01*
X58992228Y-84454472D01*
X58847596Y-84349389D01*
X58684264Y-84276669D01*
X58509393Y-84239500D01*
X58509391Y-84239500D01*
X58330609Y-84239500D01*
X58330607Y-84239500D01*
X58155735Y-84276669D01*
X58049870Y-84323804D01*
X58001599Y-84334505D01*
X57952984Y-84325495D01*
X57911754Y-84298205D01*
X57903184Y-84289635D01*
X57871888Y-84236888D01*
X57869699Y-84175594D01*
X57897151Y-84120753D01*
X57920877Y-84093373D01*
X57980665Y-83962457D01*
X58001147Y-83820000D01*
X57980665Y-83677543D01*
X57920877Y-83546627D01*
X57920876Y-83546626D01*
X57920876Y-83546625D01*
X57879682Y-83499084D01*
X57851251Y-83439259D01*
X57857674Y-83373334D01*
X57897115Y-83320120D01*
X57958322Y-83294801D01*
X58023828Y-83304601D01*
X58076306Y-83327966D01*
X58155735Y-83363330D01*
X58330607Y-83400500D01*
X58330609Y-83400500D01*
X58509391Y-83400500D01*
X58509393Y-83400500D01*
X58684264Y-83363330D01*
X58684265Y-83363329D01*
X58684267Y-83363329D01*
X58847593Y-83290612D01*
X58870155Y-83274220D01*
X58957474Y-83210778D01*
X58992230Y-83185526D01*
X59111859Y-83052665D01*
X59201250Y-82897835D01*
X59256497Y-82727803D01*
X59275185Y-82550000D01*
X59256497Y-82372197D01*
X59201250Y-82202165D01*
X59201250Y-82202164D01*
X59111859Y-82047334D01*
X58992228Y-81914472D01*
X58847596Y-81809389D01*
X58684264Y-81736669D01*
X58509393Y-81699500D01*
X58509391Y-81699500D01*
X58330609Y-81699500D01*
X58330607Y-81699500D01*
X58155735Y-81736669D01*
X58049870Y-81783804D01*
X58001599Y-81794505D01*
X57952984Y-81785495D01*
X57911754Y-81758205D01*
X57425473Y-81271923D01*
X57402270Y-81239746D01*
X57390416Y-81201888D01*
X57381165Y-81137542D01*
X57321376Y-81006625D01*
X57227129Y-80897858D01*
X57227128Y-80897857D01*
X57106053Y-80820047D01*
X56967961Y-80779500D01*
X56824039Y-80779500D01*
X56685947Y-80820047D01*
X56564870Y-80897858D01*
X56470623Y-81006625D01*
X56410834Y-81137542D01*
X56390353Y-81280000D01*
X55372000Y-81280000D01*
X55372000Y-80010000D01*
X50124500Y-80010000D01*
X50062500Y-79993387D01*
X50017113Y-79948000D01*
X50000500Y-79886000D01*
X50000500Y-78915390D01*
X50647522Y-78915390D01*
X50649714Y-78929232D01*
X50650295Y-78941059D01*
X50649470Y-78955049D01*
X50650839Y-78964274D01*
X50652030Y-78976362D01*
X50652271Y-78981261D01*
X50652489Y-78985698D01*
X50656026Y-78999249D01*
X50657763Y-79010956D01*
X50658315Y-79024964D01*
X50660581Y-79034014D01*
X50662950Y-79045926D01*
X50664320Y-79055159D01*
X50669170Y-79068306D01*
X50672046Y-79079787D01*
X50673966Y-79093667D01*
X50675460Y-79097845D01*
X50675461Y-79097846D01*
X50677111Y-79102459D01*
X50680636Y-79114081D01*
X50682904Y-79123135D01*
X50689023Y-79135750D01*
X50693008Y-79146888D01*
X50696279Y-79160514D01*
X50700264Y-79168939D01*
X50704916Y-79180169D01*
X50708060Y-79188955D01*
X50715382Y-79200904D01*
X50720440Y-79211597D01*
X50725033Y-79224843D01*
X50729834Y-79232853D01*
X50735563Y-79243571D01*
X50739553Y-79252006D01*
X50748012Y-79263181D01*
X50748017Y-79263189D01*
X50754093Y-79273327D01*
X50759958Y-79286050D01*
X50762601Y-79289614D01*
X50762602Y-79289616D01*
X50765512Y-79293539D01*
X50772270Y-79303654D01*
X50774788Y-79307854D01*
X50777070Y-79311661D01*
X50786582Y-79321951D01*
X50793630Y-79331454D01*
X50800719Y-79343548D01*
X50806972Y-79350446D01*
X50814693Y-79359853D01*
X50817607Y-79363783D01*
X50817608Y-79363783D01*
X50820253Y-79367351D01*
X50830734Y-79376664D01*
X50838678Y-79385430D01*
X50846913Y-79396763D01*
X50853825Y-79403029D01*
X50862414Y-79411618D01*
X50868685Y-79418536D01*
X50880026Y-79426776D01*
X50888789Y-79434719D01*
X50898097Y-79445193D01*
X50901659Y-79447834D01*
X50901660Y-79447836D01*
X50905593Y-79450753D01*
X50914993Y-79458468D01*
X50921900Y-79464728D01*
X50933985Y-79471811D01*
X50943489Y-79478859D01*
X50953786Y-79488377D01*
X50957590Y-79490656D01*
X50957592Y-79490659D01*
X50961795Y-79493178D01*
X50971893Y-79499925D01*
X50975827Y-79502843D01*
X50975829Y-79502843D01*
X50979392Y-79505486D01*
X50992120Y-79511353D01*
X51002269Y-79517436D01*
X51013442Y-79525893D01*
X51017447Y-79527787D01*
X51017449Y-79527789D01*
X51021892Y-79529890D01*
X51032584Y-79535605D01*
X51036795Y-79538129D01*
X51036798Y-79538129D01*
X51040605Y-79540411D01*
X51053833Y-79544998D01*
X51064540Y-79550062D01*
X51076489Y-79557385D01*
X51085259Y-79560523D01*
X51096500Y-79565179D01*
X51104927Y-79569164D01*
X51118555Y-79572436D01*
X51122109Y-79573707D01*
X51129697Y-79576422D01*
X51142310Y-79582539D01*
X51146609Y-79583615D01*
X51146611Y-79583617D01*
X51151348Y-79584803D01*
X51162985Y-79588333D01*
X51167602Y-79589985D01*
X51167603Y-79589985D01*
X51171787Y-79591482D01*
X51185675Y-79593402D01*
X51197132Y-79596272D01*
X51210286Y-79601124D01*
X51214669Y-79601774D01*
X51214673Y-79601776D01*
X51219512Y-79602493D01*
X51231439Y-79604865D01*
X51236182Y-79606054D01*
X51236182Y-79606053D01*
X51240486Y-79607132D01*
X51254489Y-79607681D01*
X51266200Y-79609418D01*
X51279755Y-79612956D01*
X51284181Y-79613173D01*
X51284184Y-79613174D01*
X51289070Y-79613413D01*
X51301171Y-79614605D01*
X51306013Y-79615324D01*
X51306015Y-79615323D01*
X51310407Y-79615975D01*
X51324398Y-79615149D01*
X51330610Y-79615454D01*
X51339267Y-79617045D01*
X51349528Y-79617045D01*
X51359926Y-79617045D01*
X51366008Y-79617194D01*
X51367526Y-79617268D01*
X51376411Y-79617705D01*
X51376412Y-79617704D01*
X51386652Y-79618207D01*
X51395374Y-79617045D01*
X51448747Y-79617045D01*
X51480581Y-79617045D01*
X51755860Y-79617045D01*
X51772597Y-79617045D01*
X51804431Y-79617045D01*
X51821168Y-79617045D01*
X52263066Y-79617045D01*
X52279803Y-79617045D01*
X52311637Y-79617045D01*
X52328374Y-79617045D01*
X52840519Y-79617045D01*
X52857256Y-79617045D01*
X52889090Y-79617045D01*
X52905827Y-79617045D01*
X53548941Y-79617045D01*
X53565678Y-79617045D01*
X53597512Y-79617045D01*
X53614249Y-79617045D01*
X54104963Y-79617045D01*
X54121700Y-79617045D01*
X54153534Y-79617045D01*
X54170271Y-79617045D01*
X54609788Y-79617045D01*
X54626525Y-79617045D01*
X54658359Y-79617045D01*
X54675096Y-79617045D01*
X54919419Y-79617045D01*
X54951253Y-79617045D01*
X55004626Y-79617045D01*
X55013347Y-79618207D01*
X55023587Y-79617704D01*
X55023589Y-79617705D01*
X55032532Y-79617265D01*
X55033992Y-79617194D01*
X55040074Y-79617045D01*
X55060750Y-79617045D01*
X55069408Y-79615453D01*
X55071130Y-79615368D01*
X55075613Y-79615149D01*
X55089596Y-79615975D01*
X55093984Y-79615323D01*
X55093987Y-79615324D01*
X55098826Y-79614605D01*
X55110937Y-79613413D01*
X55115817Y-79613174D01*
X55115820Y-79613172D01*
X55120255Y-79612955D01*
X55133822Y-79609414D01*
X55145495Y-79607682D01*
X55159508Y-79607133D01*
X55163812Y-79606054D01*
X55163818Y-79606055D01*
X55168584Y-79604861D01*
X55180485Y-79602494D01*
X55185327Y-79601776D01*
X55185330Y-79601774D01*
X55189715Y-79601124D01*
X55202858Y-79596274D01*
X55214327Y-79593401D01*
X55228217Y-79591481D01*
X55232396Y-79589985D01*
X55232398Y-79589985D01*
X55236999Y-79588338D01*
X55248638Y-79584806D01*
X55253388Y-79583617D01*
X55253392Y-79583614D01*
X55257695Y-79582537D01*
X55270294Y-79576424D01*
X55281437Y-79572437D01*
X55295066Y-79569167D01*
X55299075Y-79567270D01*
X55299078Y-79567270D01*
X55303497Y-79565179D01*
X55314730Y-79560526D01*
X55319340Y-79558877D01*
X55319342Y-79558875D01*
X55323521Y-79557380D01*
X55335468Y-79550056D01*
X55346152Y-79545003D01*
X55359393Y-79540414D01*
X55363204Y-79538129D01*
X55363206Y-79538129D01*
X55367400Y-79535615D01*
X55378126Y-79529881D01*
X55382551Y-79527789D01*
X55382552Y-79527787D01*
X55386565Y-79525890D01*
X55397735Y-79517432D01*
X55407879Y-79511352D01*
X55420607Y-79505487D01*
X55424170Y-79502843D01*
X55424172Y-79502843D01*
X55428089Y-79499937D01*
X55438219Y-79493168D01*
X55442408Y-79490658D01*
X55442410Y-79490655D01*
X55446218Y-79488373D01*
X55456512Y-79478856D01*
X55466003Y-79471817D01*
X55478096Y-79464731D01*
X55481383Y-79461751D01*
X55481386Y-79461750D01*
X55485006Y-79458467D01*
X55494415Y-79450745D01*
X55498340Y-79447836D01*
X55498342Y-79447833D01*
X55501901Y-79445194D01*
X55511210Y-79434717D01*
X55519975Y-79426773D01*
X55531310Y-79418539D01*
X55534289Y-79415251D01*
X55534294Y-79415249D01*
X55537593Y-79411608D01*
X55546163Y-79403038D01*
X55549804Y-79399739D01*
X55549806Y-79399734D01*
X55553095Y-79396754D01*
X55561330Y-79385418D01*
X55569272Y-79376655D01*
X55579744Y-79367352D01*
X55582387Y-79363787D01*
X55582392Y-79363784D01*
X55585308Y-79359850D01*
X55593015Y-79350459D01*
X55596305Y-79346831D01*
X55596306Y-79346828D01*
X55599286Y-79343541D01*
X55606371Y-79331449D01*
X55613417Y-79321949D01*
X55622928Y-79311662D01*
X55625208Y-79307856D01*
X55625212Y-79307854D01*
X55627729Y-79303652D01*
X55634487Y-79293539D01*
X55637397Y-79289617D01*
X55637398Y-79289613D01*
X55640042Y-79286049D01*
X55645906Y-79273325D01*
X55651985Y-79263182D01*
X55660443Y-79252014D01*
X55664427Y-79243590D01*
X55670169Y-79232847D01*
X55672684Y-79228652D01*
X55672684Y-79228649D01*
X55674967Y-79224841D01*
X55679561Y-79211590D01*
X55684613Y-79200910D01*
X55691935Y-79188963D01*
X55693427Y-79184791D01*
X55693431Y-79184787D01*
X55695084Y-79180165D01*
X55699725Y-79168959D01*
X55701824Y-79164523D01*
X55701824Y-79164516D01*
X55703724Y-79160501D01*
X55706995Y-79146875D01*
X55710976Y-79135748D01*
X55717095Y-79123137D01*
X55719359Y-79114097D01*
X55722892Y-79102448D01*
X55724539Y-79097846D01*
X55724539Y-79097842D01*
X55726034Y-79093664D01*
X55727952Y-79079784D01*
X55730826Y-79068311D01*
X55735678Y-79055164D01*
X55737047Y-79045940D01*
X55739421Y-79034003D01*
X55741686Y-79024960D01*
X55742236Y-79010956D01*
X55743972Y-78999249D01*
X55747511Y-78985695D01*
X55747728Y-78981262D01*
X55747729Y-78981261D01*
X55747968Y-78976379D01*
X55749162Y-78964262D01*
X55749879Y-78959434D01*
X55749878Y-78959432D01*
X55750530Y-78955043D01*
X55749704Y-78941048D01*
X55750284Y-78929243D01*
X55752477Y-78915398D01*
X55752259Y-78910967D01*
X55752260Y-78910966D01*
X55752020Y-78906083D01*
X55752020Y-78893907D01*
X55752260Y-78889034D01*
X55752259Y-78889031D01*
X55752477Y-78884603D01*
X55750284Y-78870758D01*
X55749704Y-78858954D01*
X55750530Y-78844960D01*
X55749878Y-78840568D01*
X55749879Y-78840566D01*
X55749160Y-78835723D01*
X55747968Y-78823620D01*
X55747729Y-78818739D01*
X55747727Y-78818735D01*
X55747510Y-78814306D01*
X55743972Y-78800744D01*
X55742497Y-78790800D01*
X56494353Y-78790800D01*
X56514834Y-78933257D01*
X56574623Y-79064174D01*
X56668870Y-79172941D01*
X56668872Y-79172943D01*
X56789947Y-79250753D01*
X56928039Y-79291300D01*
X57071961Y-79291300D01*
X57210053Y-79250753D01*
X57227747Y-79239381D01*
X57280065Y-79220574D01*
X57335342Y-79226517D01*
X57382467Y-79256016D01*
X57626324Y-79499873D01*
X57655165Y-79545143D01*
X57662171Y-79598360D01*
X57646031Y-79649552D01*
X57638750Y-79662163D01*
X57583503Y-79832195D01*
X57564815Y-80009999D01*
X57583503Y-80187804D01*
X57638749Y-80357835D01*
X57728140Y-80512665D01*
X57847771Y-80645527D01*
X57992403Y-80750610D01*
X58155735Y-80823330D01*
X58330607Y-80860500D01*
X58330609Y-80860500D01*
X58509391Y-80860500D01*
X58509393Y-80860500D01*
X58684264Y-80823330D01*
X58684265Y-80823329D01*
X58684267Y-80823329D01*
X58847593Y-80750612D01*
X58992230Y-80645526D01*
X59111859Y-80512665D01*
X59201250Y-80357835D01*
X59256497Y-80187803D01*
X59275185Y-80010000D01*
X59256497Y-79832197D01*
X59201250Y-79662165D01*
X59201250Y-79662164D01*
X59111859Y-79507334D01*
X58992228Y-79374472D01*
X58847596Y-79269389D01*
X58684264Y-79196669D01*
X58509393Y-79159500D01*
X58509391Y-79159500D01*
X58330609Y-79159500D01*
X58330607Y-79159500D01*
X58155735Y-79196669D01*
X58049870Y-79243804D01*
X58001599Y-79254505D01*
X57952984Y-79245495D01*
X57911754Y-79218205D01*
X57538407Y-78844858D01*
X57515204Y-78812681D01*
X57503350Y-78774824D01*
X57485165Y-78648342D01*
X57425376Y-78517425D01*
X57331129Y-78408658D01*
X57331128Y-78408657D01*
X57210053Y-78330847D01*
X57071961Y-78290300D01*
X56928039Y-78290300D01*
X56789947Y-78330847D01*
X56668870Y-78408658D01*
X56574623Y-78517425D01*
X56514834Y-78648342D01*
X56494353Y-78790800D01*
X55742497Y-78790800D01*
X55742237Y-78789045D01*
X55741687Y-78775044D01*
X55740609Y-78770739D01*
X55739419Y-78765991D01*
X55737047Y-78754063D01*
X55736330Y-78749227D01*
X55736329Y-78749225D01*
X55735678Y-78744837D01*
X55730827Y-78731690D01*
X55727953Y-78720218D01*
X55726035Y-78706336D01*
X55722894Y-78697558D01*
X55719359Y-78685904D01*
X55717095Y-78676865D01*
X55710977Y-78664253D01*
X55706994Y-78653121D01*
X55703724Y-78639494D01*
X55699736Y-78631063D01*
X55695081Y-78619824D01*
X55693431Y-78615213D01*
X55693429Y-78615211D01*
X55691938Y-78611042D01*
X55684612Y-78599086D01*
X55679558Y-78588401D01*
X55674968Y-78575159D01*
X55670164Y-78567144D01*
X55664429Y-78556414D01*
X55660444Y-78547989D01*
X55651987Y-78536818D01*
X55645909Y-78526678D01*
X55640042Y-78513950D01*
X55637397Y-78510384D01*
X55637397Y-78510383D01*
X55634483Y-78506454D01*
X55627724Y-78496338D01*
X55622933Y-78488344D01*
X55613415Y-78478048D01*
X55606371Y-78468549D01*
X55599284Y-78456456D01*
X55593023Y-78449548D01*
X55585307Y-78440147D01*
X55582392Y-78436216D01*
X55582389Y-78436214D01*
X55579747Y-78432651D01*
X55569269Y-78423339D01*
X55561322Y-78414570D01*
X55553089Y-78403238D01*
X55546173Y-78396969D01*
X55537584Y-78388380D01*
X55531318Y-78381467D01*
X55519977Y-78373226D01*
X55511204Y-78365275D01*
X55501895Y-78354799D01*
X55494420Y-78349256D01*
X55485007Y-78341532D01*
X55478099Y-78335270D01*
X55466008Y-78328184D01*
X55456505Y-78321136D01*
X55446212Y-78311621D01*
X55438220Y-78306831D01*
X55428104Y-78300072D01*
X55420614Y-78294517D01*
X55407876Y-78288645D01*
X55397734Y-78282566D01*
X55386557Y-78274105D01*
X55378124Y-78270116D01*
X55367399Y-78264384D01*
X55359400Y-78259590D01*
X55346165Y-78255000D01*
X55335468Y-78249941D01*
X55323516Y-78242617D01*
X55314732Y-78239474D01*
X55303495Y-78234819D01*
X55295075Y-78230836D01*
X55281443Y-78227563D01*
X55270295Y-78223574D01*
X55257689Y-78217460D01*
X55248650Y-78215196D01*
X55237002Y-78211662D01*
X55228223Y-78208520D01*
X55214334Y-78206599D01*
X55202854Y-78203723D01*
X55189708Y-78198873D01*
X55180481Y-78197504D01*
X55168573Y-78195135D01*
X55159521Y-78192868D01*
X55145514Y-78192318D01*
X55133819Y-78190584D01*
X55120246Y-78187042D01*
X55110921Y-78186584D01*
X55098819Y-78185392D01*
X55089599Y-78184024D01*
X55075602Y-78184849D01*
X55069363Y-78184542D01*
X55060717Y-78182955D01*
X55050472Y-78182955D01*
X55040074Y-78182955D01*
X55033992Y-78182806D01*
X55027121Y-78182468D01*
X55023588Y-78182295D01*
X55013347Y-78181792D01*
X55004626Y-78182955D01*
X54951253Y-78182955D01*
X51480581Y-78182955D01*
X51395374Y-78182955D01*
X51386652Y-78181792D01*
X51366008Y-78182806D01*
X51359926Y-78182955D01*
X51339286Y-78182955D01*
X51330636Y-78184542D01*
X51324390Y-78184849D01*
X51310403Y-78184024D01*
X51301170Y-78185394D01*
X51289071Y-78186585D01*
X51279761Y-78187042D01*
X51266195Y-78190581D01*
X51254474Y-78192319D01*
X51240474Y-78192869D01*
X51231433Y-78195134D01*
X51219519Y-78197504D01*
X51210298Y-78198872D01*
X51197146Y-78203723D01*
X51185666Y-78206599D01*
X51171777Y-78208520D01*
X51162991Y-78211664D01*
X51151365Y-78215191D01*
X51142318Y-78217457D01*
X51129710Y-78223571D01*
X51120711Y-78226791D01*
X51118553Y-78227564D01*
X51104926Y-78230836D01*
X51096489Y-78234826D01*
X51085268Y-78239473D01*
X51076495Y-78242612D01*
X51064547Y-78249933D01*
X51053830Y-78255002D01*
X51040598Y-78259591D01*
X51032587Y-78264392D01*
X51021885Y-78270112D01*
X51013449Y-78274103D01*
X51002273Y-78282560D01*
X50992113Y-78288649D01*
X50979388Y-78294516D01*
X50971899Y-78300070D01*
X50961795Y-78306821D01*
X50953792Y-78311618D01*
X50943496Y-78321135D01*
X50933977Y-78328194D01*
X50921894Y-78335276D01*
X50914982Y-78341541D01*
X50905596Y-78349243D01*
X50898106Y-78354798D01*
X50888795Y-78365275D01*
X50880011Y-78373236D01*
X50868681Y-78381469D01*
X50862408Y-78388388D01*
X50853833Y-78396963D01*
X50846913Y-78403236D01*
X50838678Y-78414570D01*
X50830720Y-78423350D01*
X50820245Y-78432658D01*
X50814692Y-78440147D01*
X50806977Y-78449547D01*
X50800722Y-78456448D01*
X50793634Y-78468538D01*
X50786579Y-78478051D01*
X50777067Y-78488343D01*
X50772268Y-78496349D01*
X50765516Y-78506454D01*
X50759959Y-78513947D01*
X50754090Y-78526678D01*
X50748005Y-78536830D01*
X50739548Y-78548003D01*
X50735560Y-78556433D01*
X50729839Y-78567138D01*
X50725034Y-78575155D01*
X50720444Y-78588391D01*
X50715383Y-78599092D01*
X50708059Y-78611046D01*
X50704916Y-78619830D01*
X50700267Y-78631055D01*
X50696279Y-78639486D01*
X50693009Y-78653109D01*
X50689021Y-78664255D01*
X50682903Y-78676869D01*
X50680635Y-78685921D01*
X50677110Y-78697543D01*
X50673967Y-78706327D01*
X50672048Y-78720206D01*
X50669171Y-78731693D01*
X50664319Y-78744845D01*
X50662949Y-78754076D01*
X50660582Y-78765976D01*
X50658315Y-78775029D01*
X50657764Y-78789037D01*
X50656027Y-78800748D01*
X50652488Y-78814313D01*
X50652030Y-78823627D01*
X50650839Y-78835723D01*
X50649470Y-78844951D01*
X50650295Y-78858939D01*
X50649714Y-78870768D01*
X50647522Y-78884613D01*
X50647979Y-78893926D01*
X50647979Y-78906071D01*
X50647522Y-78915390D01*
X50000500Y-78915390D01*
X50000500Y-77115390D01*
X50259836Y-77115390D01*
X50262028Y-77129232D01*
X50263037Y-77149773D01*
X50262212Y-77163768D01*
X50263580Y-77172989D01*
X50264772Y-77185092D01*
X50265229Y-77194401D01*
X50268766Y-77207957D01*
X50271785Y-77228306D01*
X50272337Y-77242317D01*
X50274601Y-77251356D01*
X50276973Y-77263280D01*
X50278340Y-77272499D01*
X50283190Y-77285645D01*
X50288188Y-77305594D01*
X50290109Y-77319476D01*
X50293254Y-77328268D01*
X50296779Y-77339889D01*
X50299048Y-77348944D01*
X50305165Y-77361556D01*
X50312090Y-77380911D01*
X50315361Y-77394538D01*
X50319346Y-77402963D01*
X50324000Y-77414198D01*
X50327144Y-77422985D01*
X50334468Y-77434937D01*
X50343256Y-77453517D01*
X50347848Y-77466760D01*
X50352640Y-77474755D01*
X50358371Y-77485476D01*
X50362362Y-77493913D01*
X50370817Y-77505084D01*
X50381389Y-77522721D01*
X50387262Y-77535458D01*
X50392818Y-77542950D01*
X50399575Y-77553063D01*
X50404363Y-77561051D01*
X50413873Y-77571339D01*
X50426126Y-77587859D01*
X50433213Y-77599950D01*
X50439474Y-77606858D01*
X50447189Y-77616259D01*
X50452750Y-77623756D01*
X50463227Y-77633066D01*
X50477027Y-77648292D01*
X50485270Y-77659636D01*
X50488552Y-77662611D01*
X50488553Y-77662612D01*
X50492171Y-77665891D01*
X50500780Y-77674500D01*
X50507035Y-77681401D01*
X50518376Y-77689642D01*
X50533613Y-77703452D01*
X50542925Y-77713930D01*
X50550404Y-77719477D01*
X50559809Y-77727194D01*
X50566731Y-77733468D01*
X50578828Y-77740556D01*
X50595332Y-77752797D01*
X50605620Y-77762306D01*
X50609420Y-77764583D01*
X50609421Y-77764585D01*
X50613604Y-77767092D01*
X50613609Y-77767095D01*
X50623724Y-77773853D01*
X50627658Y-77776771D01*
X50631223Y-77779415D01*
X50643948Y-77785280D01*
X50661578Y-77795847D01*
X50672756Y-77804309D01*
X50681174Y-77808290D01*
X50691918Y-77814033D01*
X50699911Y-77818824D01*
X50713159Y-77823418D01*
X50731731Y-77832202D01*
X50743685Y-77839528D01*
X50752464Y-77842669D01*
X50763714Y-77847329D01*
X50772129Y-77851309D01*
X50785752Y-77854580D01*
X50805120Y-77861509D01*
X50817728Y-77867625D01*
X50822028Y-77868702D01*
X50822030Y-77868703D01*
X50826775Y-77869891D01*
X50838400Y-77873417D01*
X50843019Y-77875070D01*
X50843023Y-77875070D01*
X50847204Y-77876566D01*
X50861087Y-77878485D01*
X50881015Y-77883476D01*
X50894163Y-77888328D01*
X50903381Y-77889695D01*
X50915322Y-77892070D01*
X50920067Y-77893259D01*
X50920069Y-77893258D01*
X50924369Y-77894336D01*
X50938368Y-77894885D01*
X50958708Y-77897903D01*
X50972267Y-77901442D01*
X50976694Y-77901659D01*
X50976697Y-77901660D01*
X50981576Y-77901899D01*
X50993669Y-77903089D01*
X50998523Y-77903810D01*
X50998526Y-77903809D01*
X51002918Y-77904461D01*
X51016911Y-77903635D01*
X51020086Y-77903791D01*
X51031843Y-77904369D01*
X51040495Y-77905959D01*
X51050756Y-77905959D01*
X51061154Y-77905959D01*
X51067235Y-77906108D01*
X51068909Y-77906190D01*
X51077639Y-77906619D01*
X51077640Y-77906618D01*
X51087881Y-77907121D01*
X51096602Y-77905959D01*
X51143360Y-77905959D01*
X51175194Y-77905959D01*
X51318869Y-77905959D01*
X51335606Y-77905959D01*
X51367440Y-77905959D01*
X51384177Y-77905959D01*
X51828933Y-77905959D01*
X51845670Y-77905959D01*
X51877504Y-77905959D01*
X51894241Y-77905959D01*
X52499017Y-77905959D01*
X52515754Y-77905959D01*
X52547588Y-77905959D01*
X52564325Y-77905959D01*
X53099092Y-77905959D01*
X53115829Y-77905959D01*
X53147663Y-77905959D01*
X53164400Y-77905959D01*
X53654717Y-77905959D01*
X53671454Y-77905959D01*
X53703288Y-77905959D01*
X53720025Y-77905959D01*
X53824806Y-77905959D01*
X53856640Y-77905959D01*
X53903398Y-77905959D01*
X53912118Y-77907121D01*
X53922359Y-77906618D01*
X53922361Y-77906619D01*
X53931153Y-77906187D01*
X53932765Y-77906108D01*
X53938846Y-77905959D01*
X53959512Y-77905959D01*
X53968162Y-77904368D01*
X53983100Y-77903634D01*
X53997090Y-77904460D01*
X54001474Y-77903809D01*
X54001477Y-77903810D01*
X54006307Y-77903093D01*
X54018426Y-77901899D01*
X54023303Y-77901660D01*
X54023303Y-77901659D01*
X54027736Y-77901442D01*
X54041299Y-77897901D01*
X54061629Y-77894885D01*
X54075632Y-77894336D01*
X54079931Y-77893258D01*
X54079934Y-77893259D01*
X54084696Y-77892065D01*
X54096605Y-77889697D01*
X54101447Y-77888979D01*
X54101450Y-77888977D01*
X54105840Y-77888326D01*
X54118978Y-77883478D01*
X54138912Y-77878485D01*
X54152799Y-77876566D01*
X54156979Y-77875070D01*
X54156982Y-77875070D01*
X54161591Y-77873420D01*
X54173234Y-77869888D01*
X54177970Y-77868703D01*
X54177972Y-77868701D01*
X54182278Y-77867623D01*
X54194885Y-77861506D01*
X54214233Y-77854583D01*
X54227861Y-77851313D01*
X54231872Y-77849415D01*
X54231876Y-77849415D01*
X54236289Y-77847326D01*
X54247529Y-77842670D01*
X54252139Y-77841022D01*
X54252141Y-77841020D01*
X54256318Y-77839526D01*
X54268268Y-77832201D01*
X54286839Y-77823418D01*
X54300087Y-77818825D01*
X54303891Y-77816544D01*
X54303893Y-77816544D01*
X54308080Y-77814033D01*
X54318830Y-77808288D01*
X54320230Y-77807625D01*
X54323237Y-77806204D01*
X54323237Y-77806203D01*
X54327245Y-77804308D01*
X54338419Y-77795848D01*
X54356052Y-77785278D01*
X54368775Y-77779415D01*
X54372337Y-77776772D01*
X54372342Y-77776771D01*
X54376280Y-77773849D01*
X54386391Y-77767095D01*
X54390579Y-77764585D01*
X54390580Y-77764583D01*
X54394385Y-77762303D01*
X54404671Y-77752793D01*
X54421177Y-77740551D01*
X54433267Y-77733467D01*
X54436558Y-77730483D01*
X54436562Y-77730482D01*
X54440187Y-77727195D01*
X54449583Y-77719484D01*
X54453517Y-77716568D01*
X54453519Y-77716565D01*
X54457083Y-77713922D01*
X54466392Y-77703444D01*
X54481617Y-77689646D01*
X54492959Y-77681407D01*
X54495936Y-77678121D01*
X54495939Y-77678120D01*
X54499224Y-77674494D01*
X54507821Y-77665897D01*
X54511447Y-77662612D01*
X54511449Y-77662607D01*
X54514731Y-77659634D01*
X54522968Y-77648296D01*
X54536765Y-77633072D01*
X54547243Y-77623764D01*
X54549891Y-77620192D01*
X54549894Y-77620191D01*
X54552810Y-77616259D01*
X54560520Y-77606863D01*
X54563810Y-77603235D01*
X54563811Y-77603231D01*
X54566794Y-77599941D01*
X54573884Y-77587842D01*
X54586113Y-77571353D01*
X54595631Y-77561059D01*
X54597912Y-77557252D01*
X54597914Y-77557251D01*
X54600426Y-77553058D01*
X54607182Y-77542946D01*
X54610098Y-77539016D01*
X54610099Y-77539012D01*
X54612743Y-77535448D01*
X54618608Y-77522721D01*
X54629178Y-77505088D01*
X54637636Y-77493915D01*
X54639529Y-77489911D01*
X54639532Y-77489909D01*
X54641627Y-77485478D01*
X54647363Y-77474749D01*
X54650210Y-77469999D01*
X57564815Y-77469999D01*
X57583503Y-77647804D01*
X57638749Y-77817835D01*
X57728140Y-77972665D01*
X57847771Y-78105527D01*
X57992403Y-78210610D01*
X57992406Y-78210611D01*
X57992407Y-78210612D01*
X58060936Y-78241123D01*
X58155735Y-78283330D01*
X58330607Y-78320500D01*
X58330609Y-78320500D01*
X58509391Y-78320500D01*
X58509393Y-78320500D01*
X58684264Y-78283330D01*
X58684265Y-78283329D01*
X58684267Y-78283329D01*
X58847593Y-78210612D01*
X58848619Y-78209867D01*
X58888659Y-78180774D01*
X58992230Y-78105526D01*
X59111859Y-77972665D01*
X59201250Y-77817835D01*
X59256497Y-77647803D01*
X59275185Y-77470000D01*
X59256497Y-77292197D01*
X59214768Y-77163768D01*
X59201250Y-77122164D01*
X59111859Y-76967334D01*
X58992228Y-76834472D01*
X58847596Y-76729389D01*
X58684264Y-76656669D01*
X58509393Y-76619500D01*
X58509391Y-76619500D01*
X58330609Y-76619500D01*
X58330607Y-76619500D01*
X58155735Y-76656669D01*
X57992408Y-76729387D01*
X57847768Y-76834474D01*
X57728140Y-76967334D01*
X57638749Y-77122164D01*
X57583503Y-77292195D01*
X57564815Y-77469999D01*
X54650210Y-77469999D01*
X54652154Y-77466755D01*
X54656746Y-77453510D01*
X54665525Y-77434947D01*
X54672852Y-77422992D01*
X54674346Y-77418813D01*
X54674349Y-77418811D01*
X54675997Y-77414203D01*
X54680645Y-77402979D01*
X54682742Y-77398547D01*
X54682742Y-77398541D01*
X54684641Y-77394528D01*
X54687910Y-77380905D01*
X54694834Y-77361554D01*
X54700950Y-77348948D01*
X54702027Y-77344645D01*
X54702029Y-77344644D01*
X54703217Y-77339899D01*
X54706750Y-77328255D01*
X54706926Y-77327760D01*
X54708396Y-77323655D01*
X54708396Y-77323653D01*
X54709891Y-77319474D01*
X54711810Y-77305591D01*
X54716808Y-77285645D01*
X54721657Y-77272503D01*
X54722306Y-77268121D01*
X54722308Y-77268119D01*
X54723023Y-77263291D01*
X54725397Y-77251355D01*
X54726587Y-77246608D01*
X54726586Y-77246604D01*
X54727664Y-77242305D01*
X54728213Y-77228304D01*
X54731230Y-77207964D01*
X54734769Y-77194408D01*
X54735226Y-77185103D01*
X54736420Y-77172979D01*
X54737788Y-77163758D01*
X54736962Y-77149757D01*
X54737971Y-77129237D01*
X54740163Y-77115399D01*
X54739945Y-77110968D01*
X54739946Y-77110966D01*
X54739706Y-77106083D01*
X54739706Y-77093908D01*
X54739946Y-77089034D01*
X54739945Y-77089031D01*
X54740163Y-77084602D01*
X54737970Y-77070757D01*
X54736962Y-77050236D01*
X54737788Y-77036242D01*
X54736420Y-77027019D01*
X54735226Y-77014898D01*
X54734769Y-77005592D01*
X54731231Y-76992034D01*
X54728215Y-76971705D01*
X54727665Y-76957695D01*
X54725400Y-76948656D01*
X54723025Y-76936717D01*
X54722308Y-76931881D01*
X54722306Y-76931877D01*
X54721656Y-76927494D01*
X54716805Y-76914344D01*
X54711812Y-76894412D01*
X54709893Y-76880530D01*
X54708396Y-76876346D01*
X54708396Y-76876345D01*
X54706746Y-76871733D01*
X54703219Y-76860105D01*
X54700952Y-76851059D01*
X54694835Y-76838446D01*
X54693413Y-76834472D01*
X54687910Y-76819093D01*
X54684640Y-76805465D01*
X54680654Y-76797037D01*
X54675994Y-76785787D01*
X54672855Y-76777013D01*
X54665526Y-76765053D01*
X54656744Y-76746484D01*
X54652153Y-76733242D01*
X54647358Y-76725241D01*
X54641623Y-76714512D01*
X54637640Y-76706091D01*
X54629182Y-76694917D01*
X54618606Y-76677272D01*
X54612740Y-76664548D01*
X54610098Y-76660985D01*
X54610098Y-76660984D01*
X54607182Y-76657053D01*
X54600428Y-76646943D01*
X54595636Y-76638949D01*
X54586119Y-76628654D01*
X54573879Y-76612150D01*
X54566793Y-76600057D01*
X54563810Y-76596766D01*
X54563810Y-76596765D01*
X54560523Y-76593138D01*
X54552808Y-76583738D01*
X54549894Y-76579809D01*
X54549892Y-76579808D01*
X54547246Y-76576239D01*
X54536768Y-76566929D01*
X54522965Y-76551698D01*
X54514728Y-76540362D01*
X54507827Y-76534107D01*
X54499218Y-76525498D01*
X54492963Y-76518597D01*
X54481619Y-76510354D01*
X54466392Y-76496553D01*
X54457083Y-76486077D01*
X54449585Y-76480516D01*
X54440189Y-76472805D01*
X54436562Y-76469518D01*
X54436560Y-76469517D01*
X54433271Y-76466536D01*
X54421182Y-76459451D01*
X54404668Y-76447203D01*
X54394381Y-76437694D01*
X54386382Y-76432899D01*
X54376271Y-76426142D01*
X54368784Y-76420589D01*
X54356052Y-76414720D01*
X54338415Y-76404148D01*
X54327243Y-76395690D01*
X54318828Y-76391711D01*
X54308089Y-76385971D01*
X54300093Y-76381178D01*
X54286845Y-76376583D01*
X54268265Y-76367795D01*
X54256314Y-76360471D01*
X54247534Y-76357330D01*
X54236289Y-76352672D01*
X54227865Y-76348688D01*
X54214239Y-76345416D01*
X54194889Y-76338493D01*
X54182278Y-76332376D01*
X54173232Y-76330110D01*
X54161589Y-76326578D01*
X54152806Y-76323435D01*
X54138919Y-76321514D01*
X54118971Y-76316517D01*
X54105834Y-76311671D01*
X54096602Y-76310301D01*
X54084691Y-76307931D01*
X54075642Y-76305665D01*
X54061631Y-76305113D01*
X54041285Y-76302094D01*
X54027729Y-76298557D01*
X54018424Y-76298100D01*
X54006318Y-76296908D01*
X53997094Y-76295539D01*
X53983103Y-76296364D01*
X53968144Y-76295629D01*
X53959492Y-76294041D01*
X53949244Y-76294041D01*
X53938846Y-76294041D01*
X53932765Y-76293892D01*
X53925646Y-76293542D01*
X53922360Y-76293381D01*
X53912118Y-76292878D01*
X53903398Y-76294041D01*
X53856640Y-76294041D01*
X51175194Y-76294041D01*
X51096602Y-76294041D01*
X51087881Y-76292878D01*
X51067235Y-76293892D01*
X51061154Y-76294041D01*
X51040515Y-76294041D01*
X51031861Y-76295629D01*
X51016896Y-76296364D01*
X51002905Y-76295539D01*
X50993680Y-76296908D01*
X50981579Y-76298099D01*
X50972274Y-76298556D01*
X50958709Y-76302095D01*
X50938361Y-76305113D01*
X50924363Y-76305665D01*
X50915311Y-76307932D01*
X50903389Y-76310303D01*
X50894168Y-76311671D01*
X50881020Y-76316521D01*
X50861076Y-76321516D01*
X50847192Y-76323436D01*
X50838405Y-76326580D01*
X50826782Y-76330106D01*
X50822315Y-76331225D01*
X50817730Y-76332374D01*
X50805125Y-76338487D01*
X50785745Y-76345421D01*
X50772122Y-76348693D01*
X50763693Y-76352679D01*
X50752474Y-76357326D01*
X50743691Y-76360469D01*
X50731739Y-76367792D01*
X50713148Y-76376585D01*
X50699906Y-76381178D01*
X50691904Y-76385974D01*
X50681182Y-76391705D01*
X50672763Y-76395687D01*
X50661585Y-76404147D01*
X50643953Y-76414716D01*
X50643945Y-76414721D01*
X50631215Y-76420590D01*
X50623719Y-76426149D01*
X50613622Y-76432896D01*
X50605622Y-76437691D01*
X50595337Y-76447197D01*
X50578818Y-76459449D01*
X50566726Y-76466536D01*
X50559804Y-76472810D01*
X50550406Y-76480522D01*
X50542925Y-76486070D01*
X50533617Y-76496543D01*
X50518365Y-76510366D01*
X50507030Y-76518603D01*
X50500773Y-76525507D01*
X50492180Y-76534100D01*
X50485272Y-76540361D01*
X50477034Y-76551698D01*
X50463221Y-76566939D01*
X50452745Y-76576249D01*
X50447186Y-76583744D01*
X50439487Y-76593126D01*
X50433214Y-76600048D01*
X50426131Y-76612131D01*
X50413871Y-76628662D01*
X50404361Y-76638952D01*
X50399572Y-76646942D01*
X50392820Y-76657047D01*
X50387262Y-76664541D01*
X50381392Y-76677272D01*
X50370813Y-76694921D01*
X50362359Y-76706091D01*
X50358367Y-76714530D01*
X50352645Y-76725235D01*
X50347851Y-76733235D01*
X50343259Y-76746476D01*
X50334468Y-76765064D01*
X50327143Y-76777017D01*
X50324001Y-76785799D01*
X50319352Y-76797024D01*
X50315362Y-76805461D01*
X50312090Y-76819089D01*
X50305161Y-76838453D01*
X50299046Y-76851061D01*
X50296778Y-76860114D01*
X50293255Y-76871729D01*
X50290109Y-76880523D01*
X50288189Y-76894403D01*
X50283190Y-76914357D01*
X50278339Y-76927509D01*
X50276971Y-76936729D01*
X50274600Y-76948648D01*
X50272337Y-76957681D01*
X50271786Y-76971687D01*
X50268767Y-76992041D01*
X50265229Y-77005603D01*
X50264772Y-77014910D01*
X50263581Y-77027010D01*
X50262212Y-77036237D01*
X50263037Y-77050225D01*
X50262028Y-77070768D01*
X50259836Y-77084613D01*
X50260293Y-77093927D01*
X50260293Y-77106072D01*
X50259836Y-77115390D01*
X50000500Y-77115390D01*
X50000500Y-77005412D01*
X50000972Y-76994605D01*
X50001197Y-76992034D01*
X50004418Y-76955209D01*
X50004540Y-76953904D01*
X50005058Y-76948648D01*
X50016918Y-76828221D01*
X50020540Y-76808318D01*
X50037908Y-76743498D01*
X50038956Y-76739828D01*
X50066685Y-76648419D01*
X50072948Y-76632049D01*
X50103700Y-76566102D01*
X50106670Y-76560161D01*
X50149012Y-76480944D01*
X50156786Y-76468289D01*
X50199639Y-76407089D01*
X50205330Y-76399587D01*
X50261191Y-76331521D01*
X50269325Y-76322547D01*
X50322547Y-76269325D01*
X50331521Y-76261191D01*
X50399587Y-76205330D01*
X50407089Y-76199639D01*
X50468289Y-76156786D01*
X50480944Y-76149012D01*
X50560161Y-76106670D01*
X50566102Y-76103700D01*
X50632049Y-76072948D01*
X50648419Y-76066685D01*
X50739828Y-76038956D01*
X50743498Y-76037908D01*
X50808318Y-76020540D01*
X50828221Y-76016918D01*
X50953927Y-76004537D01*
X50955204Y-76004419D01*
X50994605Y-76000971D01*
X51005412Y-76000500D01*
X58994587Y-76000500D01*
X59005392Y-76000972D01*
G37*
G04 #@! TD.AperFunction*
M02*
