G04 #@! TF.GenerationSoftware,KiCad,Pcbnew,7.0.1-0*
G04 #@! TF.CreationDate,2023-08-25T07:29:48+02:00*
G04 #@! TF.ProjectId,spellcaster,7370656c-6c63-4617-9374-65722e6b6963,0.0.1*
G04 #@! TF.SameCoordinates,Original*
G04 #@! TF.FileFunction,Paste,Top*
G04 #@! TF.FilePolarity,Positive*
%FSLAX46Y46*%
G04 Gerber Fmt 4.6, Leading zero omitted, Abs format (unit mm)*
G04 Created by KiCad (PCBNEW 7.0.1-0) date 2023-08-25 07:29:48*
%MOMM*%
%LPD*%
G01*
G04 APERTURE LIST*
G04 Aperture macros list*
%AMRoundRect*
0 Rectangle with rounded corners*
0 $1 Rounding radius*
0 $2 $3 $4 $5 $6 $7 $8 $9 X,Y pos of 4 corners*
0 Add a 4 corners polygon primitive as box body*
4,1,4,$2,$3,$4,$5,$6,$7,$8,$9,$2,$3,0*
0 Add four circle primitives for the rounded corners*
1,1,$1+$1,$2,$3*
1,1,$1+$1,$4,$5*
1,1,$1+$1,$6,$7*
1,1,$1+$1,$8,$9*
0 Add four rect primitives between the rounded corners*
20,1,$1+$1,$2,$3,$4,$5,0*
20,1,$1+$1,$4,$5,$6,$7,0*
20,1,$1+$1,$6,$7,$8,$9,0*
20,1,$1+$1,$8,$9,$2,$3,0*%
G04 Aperture macros list end*
%ADD10RoundRect,0.112500X-0.112500X0.187500X-0.112500X-0.187500X0.112500X-0.187500X0.112500X0.187500X0*%
%ADD11RoundRect,0.140000X0.140000X0.170000X-0.140000X0.170000X-0.140000X-0.170000X0.140000X-0.170000X0*%
%ADD12RoundRect,0.140000X-0.140000X-0.170000X0.140000X-0.170000X0.140000X0.170000X-0.140000X0.170000X0*%
%ADD13RoundRect,0.135000X-0.135000X-0.185000X0.135000X-0.185000X0.135000X0.185000X-0.135000X0.185000X0*%
%ADD14RoundRect,0.140000X0.170000X-0.140000X0.170000X0.140000X-0.170000X0.140000X-0.170000X-0.140000X0*%
%ADD15R,1.700000X0.800000*%
%ADD16RoundRect,0.087500X-0.225000X-0.087500X0.225000X-0.087500X0.225000X0.087500X-0.225000X0.087500X0*%
%ADD17RoundRect,0.087500X-0.087500X-0.225000X0.087500X-0.225000X0.087500X0.225000X-0.087500X0.225000X0*%
%ADD18RoundRect,0.147500X-0.147500X-0.172500X0.147500X-0.172500X0.147500X0.172500X-0.147500X0.172500X0*%
%ADD19RoundRect,0.147500X-0.172500X0.147500X-0.172500X-0.147500X0.172500X-0.147500X0.172500X0.147500X0*%
%ADD20RoundRect,0.140000X-0.170000X0.140000X-0.170000X-0.140000X0.170000X-0.140000X0.170000X0.140000X0*%
%ADD21RoundRect,0.150000X-0.587500X-0.150000X0.587500X-0.150000X0.587500X0.150000X-0.587500X0.150000X0*%
%ADD22RoundRect,0.242500X0.000000X-0.342947X0.342947X0.000000X0.000000X0.342947X-0.342947X0.000000X0*%
%ADD23RoundRect,0.062500X-0.203293X-0.291682X0.291682X0.203293X0.203293X0.291682X-0.291682X-0.203293X0*%
%ADD24RoundRect,0.062500X0.203293X-0.291682X0.291682X-0.203293X-0.203293X0.291682X-0.291682X0.203293X0*%
%ADD25R,1.000000X1.800000*%
%ADD26RoundRect,0.218750X0.256250X-0.218750X0.256250X0.218750X-0.256250X0.218750X-0.256250X-0.218750X0*%
%ADD27R,0.900000X0.800000*%
%ADD28RoundRect,0.135000X0.135000X0.185000X-0.135000X0.185000X-0.135000X-0.185000X0.135000X-0.185000X0*%
%ADD29RoundRect,0.250000X0.700000X-0.275000X0.700000X0.275000X-0.700000X0.275000X-0.700000X-0.275000X0*%
G04 APERTURE END LIST*
D10*
X55753000Y-118150000D03*
X55753000Y-120250000D03*
D11*
X59154000Y-100965000D03*
X58194000Y-100965000D03*
D12*
X55400000Y-97282000D03*
X56360000Y-97282000D03*
X53015000Y-98425000D03*
X53975000Y-98425000D03*
D13*
X55497000Y-111252000D03*
X56517000Y-111252000D03*
D11*
X53947000Y-97409000D03*
X52987000Y-97409000D03*
D14*
X51689000Y-116070000D03*
X51689000Y-115110000D03*
D15*
X51943000Y-127048500D03*
X51943000Y-123648500D03*
D16*
X54971500Y-113573500D03*
X54971500Y-114073500D03*
X54971500Y-114573500D03*
X54971500Y-115073500D03*
D17*
X55634000Y-115236000D03*
X56134000Y-115236000D03*
X56634000Y-115236000D03*
D16*
X57296500Y-115073500D03*
X57296500Y-114573500D03*
X57296500Y-114073500D03*
X57296500Y-113573500D03*
D17*
X56634000Y-113411000D03*
X56134000Y-113411000D03*
X55634000Y-113411000D03*
D18*
X51100000Y-98425000D03*
X52070000Y-98425000D03*
D19*
X58166000Y-101900000D03*
X58166000Y-102870000D03*
D20*
X50546000Y-107470000D03*
X50546000Y-108430000D03*
D21*
X51640500Y-118938000D03*
X51640500Y-120838000D03*
X53515500Y-119888000D03*
D19*
X58166000Y-98956000D03*
X58166000Y-99926000D03*
D12*
X55400000Y-98298000D03*
X56360000Y-98298000D03*
D15*
X58039000Y-127048500D03*
X58039000Y-123648500D03*
D20*
X58928000Y-108613000D03*
X58928000Y-109573000D03*
D22*
X53302944Y-106426000D03*
X54151472Y-107274528D03*
X55000000Y-108123056D03*
X54151472Y-105577472D03*
X55000000Y-106426000D03*
X55848528Y-107274528D03*
X55000000Y-104728944D03*
X55848528Y-105577472D03*
X56697056Y-106426000D03*
D23*
X52003635Y-106876781D03*
X52286478Y-107159623D03*
X52569320Y-107442466D03*
X52852163Y-107725309D03*
X53135006Y-108008151D03*
X53417849Y-108290994D03*
X53700691Y-108573837D03*
X53983534Y-108856680D03*
X54266377Y-109139522D03*
X54549219Y-109422365D03*
D24*
X55450781Y-109422365D03*
X55733623Y-109139522D03*
X56016466Y-108856680D03*
X56299309Y-108573837D03*
X56582151Y-108290994D03*
X56864994Y-108008151D03*
X57147837Y-107725309D03*
X57430680Y-107442466D03*
X57713522Y-107159623D03*
X57996365Y-106876781D03*
D23*
X57996365Y-105975219D03*
X57713522Y-105692377D03*
X57430680Y-105409534D03*
X57147837Y-105126691D03*
X56864994Y-104843849D03*
X56582151Y-104561006D03*
X56299309Y-104278163D03*
X56016466Y-103995320D03*
X55733623Y-103712478D03*
X55450781Y-103429635D03*
D24*
X54549219Y-103429635D03*
X54266377Y-103712478D03*
X53983534Y-103995320D03*
X53700691Y-104278163D03*
X53417849Y-104561006D03*
X53135006Y-104843849D03*
X52852163Y-105126691D03*
X52569320Y-105409534D03*
X52286478Y-105692377D03*
X52003635Y-105975219D03*
D11*
X53975000Y-102108000D03*
X53015000Y-102108000D03*
D25*
X53554000Y-113431000D03*
X51054000Y-113431000D03*
D12*
X52888000Y-110617000D03*
X53848000Y-110617000D03*
D13*
X58291000Y-110490000D03*
X59311000Y-110490000D03*
D12*
X54765000Y-116332000D03*
X55725000Y-116332000D03*
D26*
X58801000Y-113309500D03*
X58801000Y-111734500D03*
D27*
X54740000Y-99738000D03*
X53340000Y-99738000D03*
X53340000Y-100838000D03*
X54740000Y-100838000D03*
D14*
X50800000Y-110462000D03*
X50800000Y-109502000D03*
D12*
X56670000Y-116332000D03*
X57630000Y-116332000D03*
D20*
X56007000Y-99850000D03*
X56007000Y-100810000D03*
D11*
X59154000Y-103886000D03*
X58194000Y-103886000D03*
D28*
X52072000Y-117602000D03*
X51052000Y-117602000D03*
D13*
X55497000Y-112268000D03*
X56517000Y-112268000D03*
D20*
X52705000Y-115110000D03*
X52705000Y-116070000D03*
D29*
X51308000Y-102870000D03*
X51308000Y-99720000D03*
M02*
