M48
; DRILL file {KiCad 7.0.1-0} date 2023 August 24, Thursday 20:11:57
; FORMAT={-:-/ absolute / metric / decimal}
; #@! TF.CreationDate,2023-08-24T20:11:57+02:00
; #@! TF.GenerationSoftware,Kicad,Pcbnew,7.0.1-0
; #@! TF.FileFunction,MixedPlating,1,4
FMAT,2
METRIC
; #@! TA.AperFunction,Plated,PTH,ComponentDrill
T1C0.300
; #@! TA.AperFunction,Plated,PTH,ViaDrill
T2C0.400
; #@! TA.AperFunction,Plated,PTH,ComponentDrill
T3C0.400
; #@! TA.AperFunction,Plated,PTH,ComponentDrill
T4C0.800
; #@! TA.AperFunction,Plated,PTH,ComponentDrill
T5C1.100
; #@! TA.AperFunction,Plated,PTH,ComponentDrill
T6C2.200
%
G90
G05
T1
X55.711Y-94.534
T2
X50.546Y-97.282
X50.71Y-111.76
X50.8Y-105.918
X51.0Y-131.0
X51.0Y-132.0
X51.308Y-104.14
X51.943Y-125.857
X51.998Y-132.0
X52.07Y-97.282
X52.324Y-104.14
X52.45Y-113.411
X52.451Y-108.712
X52.451Y-109.728
X53.086Y-103.124
X53.213Y-118.745
X53.409Y-109.793
X53.848Y-106.426
X53.975Y-115.189
X54.864Y-106.426
X55.0Y-126.1
X55.0Y-127.0
X55.0Y-127.9
X55.118Y-110.363
X55.499Y-102.235
X55.753Y-119.38
X55.753Y-120.269
X55.88Y-106.426
X56.261Y-114.425
X56.896Y-81.28
X57.0Y-78.791
X57.023Y-100.838
X57.495Y-83.82
X57.531Y-111.379
X57.531Y-112.268
X57.658Y-109.728
X57.997Y-132.0
X58.039Y-125.73
X58.5Y-115.0
X58.62Y-107.636
X59.0Y-131.0
X59.0Y-132.0
X59.182Y-106.934
X59.2Y-115.9
X59.309Y-97.917
X59.309Y-98.933
X59.309Y-99.949
X59.436Y-91.44
X59.436Y-102.362
X59.436Y-105.029
X59.436Y-106.045
X59.5Y-116.8
X59.563Y-78.74
X59.563Y-81.28
X59.563Y-83.82
X59.563Y-86.233
X59.563Y-89.027
X59.563Y-107.823
X59.563Y-109.601
X59.563Y-112.522
T3
X53.4Y-130.9
X53.883Y-129.733
X53.883Y-132.067
X55.05Y-129.25
X55.05Y-132.55
X56.217Y-129.733
X56.217Y-132.067
X56.7Y-130.9
T4
X58.42Y-118.217
X58.42Y-120.757
T5
X52.718Y-135.0
X57.518Y-135.0
T6
X55.05Y-130.9
T0
M30
